<?xml version="1.0" encoding="utf-8"?>
<!DOCTYPE svg PUBLIC "-//W3C//DTD SVG 1.1//EN" "http://www.w3.org/Graphics/SVG/1.1/DTD/svg11.dtd">
<svg xmlns="http://www.w3.org/2000/svg" xmlns:xlink="http://www.w3.org/1999/xlink" version="1.1" id="Layer_1" x="0px" y="0px" width="300.722px" height="68.139px" viewBox="0 0 300.722 68.139" enable-background="new 0 0 300.722 68.139" xml:space="preserve">
<g id="correct_x5F_gr">	
	<polygon fill="#00CC66" points="288.609,35.981 300.722,36.398 297.64,58.87 289.216,59.118   "/>
	<path fill="#00CC66" d="M296.396,65.269c-0.17-1.64-1.07-3.149-2.675-3.137c-2.333,0.021-3.208,1.632-3.277,3.276   c-0.069,1.647,0.771,2.656,3.187,2.727C295.232,68.182,296.605,67.3,296.396,65.269"/>
	<path fill="#00CC66" d="M184.86,48.437c0-7.575-4.813-9.936-10.294-9.581l-0.02-2.807l-7.832,0.396l0.007,2.818   c-8.11,0.098-11.095,3.932-11.095,9.611c0,6.319,3.752,12.485,10.424,11.226l-0.215,5.361h9.024l-0.062-5.866   C180.378,59.528,184.86,56.361,184.86,48.437z M166.25,53.258c-1.787-0.188-3.262-1.898-3.162-3.812   c0.097-1.848,1.875-3.625,3.439-3.493L166.25,53.258z M174.731,52.597l-0.097-6.896c2.201-0.256,3.373,1.143,3.26,3.301   C177.791,50.933,177.337,52.06,174.731,52.597z"/>
	<polygon fill="#00CC66" points="59.936,39.104 59.936,65.704 72.857,65.589 70.675,56.954 76.666,65.497 88.005,65.589    78.018,52.356 85.074,39.046 75.332,39.012 70.84,47.72 72.151,38.809   "/>
	<path fill="#00CC66" d="M105.274,38.698l-10.575,0.545l-7.694,26.57l9.659-0.179l1.416-4.366l5.618-0.234l0.64,4.252h9.543   L105.274,38.698z M98.788,56.046l1.761-7.126l2.409,6.966L98.788,56.046z"/>
	<path fill="#00CC66" d="M37.124,38.698l-10.575,0.545l-7.694,26.57l9.659-0.179l1.416-4.366l5.618-0.234l0.64,4.252h9.543   L37.124,38.698z M30.638,56.046l1.761-7.126l2.409,6.966L30.638,56.046z"/>
	<polygon fill="#00CC66" points="186.546,38.364 186.6,66.149 207.451,65.624 207.892,58.849 199.505,59.429 199.653,55.567    207.892,55.895 207.451,50.089 200.255,50.609 200.64,46.916 208.037,46.559 208.632,37.971   "/>
	<polygon fill="#00CC66" points="234.574,37.561 234.626,65.346 255.479,64.82 255.919,58.045 247.533,58.625 247.681,54.764    255.919,55.091 255.479,49.285 248.283,49.806 248.667,46.112 256.063,45.755 256.66,37.167   "/>
	<polygon fill="#00CC66" points="0,38.629 0.16,46.147 6.417,45.681 5.028,66.508 14.635,66.323 14.235,45.532 20.424,45.378    20.266,38.005   "/>
	<path fill="#00CC66" d="M149.005,38.502l-10.574,0.545l-7.695,26.57l9.66-0.178l1.416-4.367l5.617-0.234l0.641,4.252h9.543   L149.005,38.502z M142.519,55.85l1.762-7.126l2.408,6.966L142.519,55.85z"/>
	<polygon fill="#00CC66" points="111.882,38.433 112.042,45.951 118.298,45.484 116.909,66.312 126.517,66.127 126.116,45.336    132.306,45.182 132.147,37.809   "/>
	<polygon fill="#00CC66" points="282.009,45.772 282.009,36.428 259.688,36.708 259.433,43.948 266.443,51.888 259.232,57.716    259.553,65.424 282.009,66.085 282.009,56.741 269.08,56.888 274.332,51.113 270.361,44.977   "/>
	<path fill="#00CC66" d="M232.351,48.042c-0.157-5.421-1.832-12.579-16.582-10.898l-3.337,0.86l-0.476,27.099l12.102,0.518   l-0.749-8.17C223.309,57.449,232.565,55.454,232.351,48.042z M220,50.782v0.005v-7c0,0,4.25-0.5,4.25,3.5S220,50.782,220,50.782z"/>
	<path fill="#00CC66" d="M107.875,0.846L97.299,1.39l-7.693,26.57l9.658-0.178l1.416-4.367l5.618-0.234l0.64,4.253h9.542   L107.875,0.846z M101.388,18.193l1.76-7.127l2.41,6.966L101.388,18.193z"/>
	<path fill="#00CC66" d="M172.746,13.31c-0.814-6.624-5.145-12.729-12.854-12.672c-11.216,0.082-15.425,6.588-15.759,13.237   c-0.332,6.656,3.701,14.008,15.312,14.289C167.16,28.353,173.757,21.517,172.746,13.31 M159.566,16.973   c-2.084-0.078-3.709-1.606-3.617-3.414c0.09-1.806,1.861-3.204,3.945-3.126c2.09,0.074,3.715,1.604,3.621,3.414   C163.421,15.651,161.656,17.047,159.566,16.973"/>
	<polygon fill="#00CC66" points="63.696,0 44.279,0.145 42.382,28.485 51.32,28.493 52.011,11.401 56.981,11.401 57.753,28.784    66.207,28.806   "/>
	<path fill="#00CC66" d="M136.764,14.188c1.892-1.337,2.935-3.202,2.821-5.862c-0.485-11.332-18.439-7.025-20.341-7.213   l-0.543,10.795l0.143,15.387c0,0,21.821,5.164,21.249-7.437C139.978,17.309,138.527,15.503,136.764,14.188z M127.311,7.21   c0,0,2.744-0.395,3.116,1.886c0.474,2.899-2.913,2.726-2.913,2.726L127.311,7.21z M127.925,21.135l-0.168-3.78   c0,0,4.031-1.314,4.145,1.841C131.984,21.466,127.925,21.135,127.925,21.135z"/>
	<path fill="#00CC66" d="M89.602,11.189c-0.156-5.422-1.833-12.579-16.583-10.9L69.682,1.15l-0.476,27.099l12.102,0.519   l-0.748-8.17C80.56,20.597,89.816,18.602,89.602,11.189z M78.065,13.929v0.006v-7c0,0,4.25-0.5,4.25,3.5   S78.065,13.929,78.065,13.929z"/>
	<polygon fill="#00CC66" points="12.276,17.268 18.763,27.056 24.775,17.268 24.551,28.055 37.66,27.971 37.488,1.139 23.27,1.054    18.46,9.82 14.718,0.611 2.162,1 2,28.063 12.664,28.195   "/>
</g>
</svg>
