<?xml version="1.0" encoding="utf-8"?>
<!DOCTYPE svg PUBLIC "-//W3C//DTD SVG 1.1//EN" "http://www.w3.org/Graphics/SVG/1.1/DTD/svg11.dtd">
<svg version="1.1" id="Layer_1" xmlns="http://www.w3.org/2000/svg" xmlns:xlink="http://www.w3.org/1999/xlink" x="0px" y="0px" width="274.799px" height="70.168px" viewBox="0 0 274.799 70.168" enable-background="new 0 0 274.799 70.168" xml:space="preserve">
<g id="correct_x5F_en">
	<g>
		<path fill="#00CC66" d="M48.581,1.406L40.336,29.18H29.052l-4.521-11.246l-4.9,11.246H9.105L2,1.406l12.386-0.381l1.862,13.906
			l4.901-13.906h7.522l5.623,13.906l1.862-13.906L48.581,1.406z"/>
		<path fill="#00CC66" d="M72.073,1.064l-0.684,8.549l-7.751,0.228l-0.456,3.724l7.523-0.418l0.456,5.699l-8.436-0.229l-0.228,3.762
			l8.663-0.456l-0.456,6.839L49.048,29.18V1.292L72.073,1.064z"/>
		<path fill="#00CC66" d="M87.487,1.064l-0.836,21.314l8.282-0.076l-0.456,6.84L74.34,29.18V1.292L87.487,1.064z"/>
		<path fill="#00CC66" d="M108.987,1.064l-0.836,21.314l8.282-0.076l-0.456,6.84L95.84,29.179V1.292L108.987,1.064z"/>
		<path fill="#00CC66" d="M129.737,28.952l-0.761-27.927c13.449-1.52,26.748,1.9,26.748,13.944
			C155.724,26.596,147.136,30.852,129.737,28.952z M144.438,14.59c0-2.697-2.734-4.635-5.053-4.256v9.689
			C143.603,19.985,144.819,17.287,144.438,14.59z"/>
		<path fill="#00CC66" d="M172.774,29.75c-12.311-0.456-16.488-8.245-16.262-15.578C156.97,7.105,161.376,0,173.231,0
			c8.396,0,12.803,6.611,13.754,13.717C188.124,22.455,181.171,30.016,172.774,29.75z M177.183,14.172
			c0-1.899-1.596-3.533-3.951-3.533c-2.09-0.229-3.953,1.406-4.18,3.306c0,1.899,1.633,3.533,3.951,3.761
			C175.093,17.705,176.954,16.3,177.183,14.172z"/>
		<path fill="#00CC66" d="M189.054,1.141l10.334,0.075l7.902,14.742l-0.686-14.515l8.436-0.075l-0.684,27.964l-11.475-0.076
			l-5.623-12.538l0.912,12.538l-9.348,0.229L189.054,1.141z"/>
		<path fill="#00CC66" d="M240.702,1.064l-0.684,8.549l-7.752,0.228l-0.455,3.724l7.521-0.418l0.457,5.699l-8.436-0.229
			l-0.229,3.762l8.662-0.456l-0.455,6.839l-21.656,0.418V1.292L240.702,1.064z"/>
		<path fill="#00CC66" d="M12.994,41.254l2.432,11.094l3.495-11.094l10.942,0.229l-8.891,17.554l0.229,10.334L8.207,69.294
			l0.456-8.892L0,41.254H12.994z"/>
		<path fill="#00CC66" d="M44.32,69.75c-12.311-0.456-16.489-8.245-16.262-15.578C28.515,47.105,32.922,40,44.776,40
			c8.396,0,12.804,6.611,13.754,13.717C59.67,62.455,52.717,70.016,44.32,69.75z M48.728,54.172c0-1.898-1.596-3.533-3.951-3.533
			c-2.09-0.229-3.952,1.406-4.18,3.307c0,1.898,1.634,3.533,3.951,3.761C46.638,57.705,48.5,56.3,48.728,54.172z"/>
		<path fill="#00CC66" d="M79.188,69.787l-0.342-2.165c-1.786,1.444-3.572,2.546-6.802,2.546c-17.287,0-11.474-28.838-11.474-28.838
			l9.08-0.38c-0.038,4.179-2.317,18.579,3.876,18.579c6.003,0,3.419-13.564,3.191-17.857l9.423-0.722l1.063,28.458L79.188,69.787z"
			/>
		<path fill="#00CC66" d="M111.3,69.408l-11.171-0.229l0.229-28.039l12.994-0.457l3.875,9.574l5.016-9.117h14.817l0.228,28.039
			H123.61l0.229-11.171l-6.384,10.259l-6.61-10.259L111.3,69.408z"/>
		<path fill="#00CC66" d="M166.021,69.18h-9.803l-0.684-4.559l-5.928,0.229l-1.367,4.56l-10.26,0.228l8.207-27.584l10.942-0.684
			L166.021,69.18z M154.622,59.377l-2.508-7.295l-1.823,7.523L154.622,59.377z"/>
		<path fill="#00CC66" d="M167.058,68.952l-0.76-27.927c13.45-1.521,26.748,1.899,26.748,13.943
			C193.046,66.596,184.459,70.852,167.058,68.952z M181.763,54.59c0-2.697-2.736-4.635-5.055-4.256v9.689
			C180.926,59.984,182.142,57.287,181.763,54.59z"/>
		<path fill="#00CC66" d="M217.894,41.064l-0.684,8.549l-7.751,0.228l-0.456,3.724l7.523-0.418l0.455,5.699l-8.436-0.229
			l-0.229,3.762l8.664-0.456l-0.457,6.839l-21.656,0.418V41.292L217.894,41.064z"/>
		<path fill="#00CC66" d="M231.272,41.292l9.574-0.685l0.911,28.496l-10.942,0.229L231.272,41.292z"/>
		<path fill="#00CC66" d="M263.485,40.95v7.522l-6.383,0.229l0.455,20.517l-10.941,0.228l1.367-20.896l-5.471,0.076l-0.229-7.751
			L263.485,40.95z"/>
		<path fill="#00CC66" d="M263.972,40.988l10.827,0.38l-2.696,19.719l-7.562,0.38L263.972,40.988z M268.304,69.445
			c-2.509-0.229-3.421-1.139-3.193-2.963c0-1.635,0.912-3.42,3.421-3.42c1.596,0,2.546,1.559,2.735,3.42
			C271.494,68.534,270.126,69.445,268.304,69.445z"/>
	</g>
</g>
</svg>
