<?xml version="1.0" encoding="iso-8859-1"?>
<!DOCTYPE svg PUBLIC "-//W3C//DTD SVG 1.1//EN" "http://www.w3.org/Graphics/SVG/1.1/DTD/svg11.dtd">
<svg version="1.1" xmlns="http://www.w3.org/2000/svg" xmlns:xlink="http://www.w3.org/1999/xlink" x="0px" y="0px" width="257.634px" height="146.721px" viewBox="0 0 257.634 146.721" style="enable-background:new 0 0 257.634 146.721;" xml:space="preserve">
<g id="game_x5F_4_x5F_title_x5F_gr">
	<g>
		<g>
			<path style="fill:#FF6600;" d="M28.63,33.532c-0.814-6.625-5.145-12.729-12.854-12.672C4.561,20.942,0.353,27.448,0.019,34.099
				c-0.333,6.656,3.7,14.008,15.312,14.289C23.043,48.575,29.643,41.739,28.63,33.532 M15.45,37.195
				c-2.084-0.078-3.709-1.606-3.617-3.414c0.091-1.805,1.861-3.204,3.946-3.126c2.09,0.075,3.715,1.604,3.621,3.414
				C19.308,35.874,17.541,37.27,15.45,37.195"/>
			<path style="fill:#FF6600;" d="M231.895,32.723c-0.814-6.625-5.145-12.729-12.854-12.672
				c-11.215,0.082-15.423,6.588-15.757,13.238c-0.333,6.656,3.7,14.008,15.312,14.289C226.308,47.766,232.907,40.93,231.895,32.723
				 M218.714,36.386c-2.084-0.078-3.709-1.606-3.617-3.414c0.091-1.805,1.861-3.204,3.946-3.126c2.09,0.075,3.715,1.604,3.621,3.414
				C222.572,35.064,220.805,36.46,218.714,36.386"/>
			<polygon style="fill:#FF6600;" points="75.829,21.417 84.942,20.833 85.86,48.305 75.436,48.553 			"/>
			<polygon style="fill:#FF6600;" points="199.658,29.067 199.658,19.723 177.336,20.003 177.082,27.243 184.092,35.183 
				176.881,41.011 177.201,48.719 199.658,49.38 199.658,40.036 186.729,40.183 191.98,34.408 188.01,28.271 			"/>
			<polygon style="fill:#FF6600;" points="257.634,28.438 257.634,19.094 235.312,19.374 235.058,26.614 242.067,34.554 
				234.856,40.382 235.177,48.09 257.634,48.751 257.634,39.407 244.704,39.554 249.956,33.779 245.985,27.643 			"/>
			<path style="fill-rule:evenodd;clip-rule:evenodd;fill:#FF6600;" d="M63.999,21.124L52.835,22l-7.592,26.293l27.676,0.429
				L63.999,21.124z M56.27,41.294l2.514-9.091l3.027,8.781L56.27,41.294z"/>
			<polygon style="fill:#FF6600;" points="120.911,49.528 128.674,49.253 127.917,37.347 133.916,48.261 144.234,48.675 
				143.881,19.892 136.738,20.339 137.381,33.931 127.95,20.179 119.87,19.858 			"/>
			<polygon style="fill:#FF6600;" points="146.573,20.571 154.928,39.089 154.399,47.702 166.911,48.032 166.649,37.778 
				175.259,20.87 164.717,20.74 160.966,30.898 159.118,20.571 			"/>
			<path style="fill:#FF6600;" d="M116.715,33.208c-0.814-6.624-5.145-12.729-12.854-12.672
				c-11.215,0.082-15.423,6.588-15.757,13.238c-0.333,6.656,3.7,14.008,15.312,14.289C111.128,48.251,117.728,41.415,116.715,33.208
				 M103.535,36.872c-2.084-0.078-3.709-1.607-3.617-3.414c0.091-1.805,1.861-3.205,3.946-3.127c2.09,0.076,3.715,1.604,3.621,3.414
				C107.393,35.55,105.625,36.946,103.535,36.872"/>
		</g>
		<polygon style="fill:#FF6600;" points="233,146.721 25,146.721 25,140.904 233,142.447 		"/>
		<polygon style="fill:#FF6600;" points="234,5.721 24,5.721 24,0.279 56.008,2.044 234,0.736 		"/>
		<g>
			<polygon style="fill:#FF6600;" points="62.63,61.33 62.63,87.93 75.552,87.814 73.369,79.18 79.361,87.723 90.699,87.814 
				80.712,74.582 87.769,61.271 78.027,61.236 73.535,69.945 74.845,61.033 			"/>
			<path style="fill:#FF6600;" d="M107.968,60.924l-10.574,0.545l-7.695,26.57l9.66-0.178l1.416-4.367l5.617-0.234l0.641,4.252
				h9.543L107.968,60.924z M101.482,78.271l1.762-7.127l2.408,6.967L101.482,78.271z"/>
			<path style="fill:#FF6600;" d="M180.225,73.389c-0.814-6.625-5.145-12.729-12.854-12.672
				c-11.215,0.082-15.423,6.588-15.757,13.238c-0.333,6.656,3.7,14.008,15.312,14.289C174.638,88.432,181.237,81.596,180.225,73.389
				 M167.044,77.051c-2.084-0.078-3.709-1.605-3.617-3.414c0.091-1.805,1.861-3.203,3.946-3.125c2.09,0.074,3.715,1.604,3.621,3.414
				C170.902,75.73,169.135,77.125,167.044,77.051"/>
			<polygon style="fill:#FF6600;" points="120.771,62.016 129.884,61.432 130.802,88.902 120.378,89.15 			"/>
			<polygon style="fill:#FF6600;" points="184.972,61.205 194.085,60.621 195.003,88.092 184.579,88.34 			"/>
		</g>
		<g>
			<polygon style="fill-rule:evenodd;clip-rule:evenodd;fill:#FF6600;" points="77.271,127.09 80.837,117.778 80.837,117.778 
				81.874,114.842 83.208,118.932 86.216,127.174 96.801,127.26 85.718,100.642 78.188,100.782 66.723,127.02 			"/>
			<polygon style="fill:#FF6600;" points="54.025,100.676 63.138,100.092 64.056,127.562 53.632,127.811 			"/>
			<path style="fill:#FF6600;" d="M125.381,112.858c-0.814-6.625-5.145-12.729-12.854-12.672
				c-11.215,0.082-15.423,6.588-15.757,13.238c-0.333,6.656,3.7,14.008,15.312,14.289
				C119.794,127.901,126.394,121.065,125.381,112.858 M112.201,116.521c-2.084-0.078-3.709-1.606-3.617-3.414
				c0.091-1.805,1.861-3.204,3.946-3.126c2.09,0.075,3.715,1.604,3.621,3.414C116.059,115.2,114.292,116.596,112.201,116.521"/>
			<polygon style="fill:#FF6600;" points="130.128,100.676 139.241,100.092 140.159,127.562 129.736,127.811 			"/>
			<path style="fill:#FF6600;" d="M50.479,110.631c0-7.575-4.814-9.935-10.294-9.582l-0.019-2.805l-7.833,0.396l0.007,2.817
				c-8.11,0.099-11.094,3.932-11.094,9.613c0,6.318,3.751,12.485,10.423,11.225l-0.214,5.361h9.024l-0.062-5.867
				C45.998,121.723,50.479,118.556,50.479,110.631z M31.868,115.451c-1.787-0.188-3.261-1.898-3.162-3.812
				c0.097-1.848,1.875-3.625,3.44-3.492L31.868,115.451z M40.35,114.791l-0.096-6.896c2.201-0.257,3.372,1.142,3.259,3.3
				C43.409,113.127,42.956,114.254,40.35,114.791z"/>
			<polygon style="fill:#FF6600;" points="207.699,99.98 216.054,118.498 215.525,127.111 228.037,127.441 227.775,117.188 
				236.385,100.279 225.843,100.149 222.092,110.308 220.244,99.98 			"/>
			<path style="fill:#FF6600;" d="M208.863,112.237c-0.814-6.625-5.145-12.729-12.854-12.673
				c-11.215,0.082-15.423,6.588-15.757,13.239c-0.333,6.656,3.7,14.008,15.312,14.289
				C203.276,127.28,209.876,120.444,208.863,112.237 M195.683,115.899c-2.084-0.078-3.709-1.605-3.617-3.414
				c0.091-1.805,1.861-3.203,3.946-3.125c2.09,0.074,3.715,1.604,3.621,3.414C199.541,114.579,197.773,115.974,195.683,115.899"/>
			<polygon style="fill:#FF6600;" points="159.499,99.083 159.659,106.603 164.916,106.135 163.527,126.962 174.134,126.777 
				173.734,105.987 179.923,105.833 179.765,98.46 			"/>
		</g>
	</g>
</g>
</svg>
