<?xml version="1.0" encoding="iso-8859-1"?>
<!DOCTYPE svg PUBLIC "-//W3C//DTD SVG 1.1//EN" "http://www.w3.org/Graphics/SVG/1.1/DTD/svg11.dtd">
<svg version="1.1" xmlns="http://www.w3.org/2000/svg" xmlns:xlink="http://www.w3.org/1999/xlink" x="0px" y="0px" width="215.429px" height="146.721px" viewBox="0 0 215.429 146.721" style="enable-background:new 0 0 215.429 146.721;" xml:space="preserve">
<g id="game_x5F_4_x5F_title_x5F_en">
	<g>
		<polygon style="fill:#FF6600;" points="211,146.721 3,146.721 3,140.904 211,142.447 		"/>
		<polygon style="fill:#FF6600;" points="212,5.721 2,5.721 2,0.279 34.008,2.044 212,0.736 		"/>
		<path style="fill:#FF6600;" d="M0.76,46.696L0,18.771c13.45-1.521,26.748,1.899,26.748,13.943
			C26.748,44.341,18.161,48.596,0.76,46.696z M15.464,32.334c0-2.697-2.735-4.635-5.054-4.255v9.688
			C14.628,37.729,15.844,35.032,15.464,32.334z"/>
		<path style="fill:#FF6600;" d="M30.385,19.036l9.574-0.684l0.912,28.495l-10.942,0.229L30.385,19.036z"/>
		<path style="fill:#FF6600;" d="M60.105,47.494c-12.311-0.456-16.489-8.245-16.262-15.578c0.456-7.066,4.863-14.172,16.718-14.172
			c8.396,0,12.804,6.611,13.754,13.716C75.455,40.199,68.502,47.76,60.105,47.494z M64.513,31.916c0-1.899-1.596-3.533-3.951-3.533
			c-2.09-0.229-3.952,1.405-4.18,3.306c0,1.899,1.634,3.533,3.951,3.761C62.423,35.449,64.285,34.044,64.513,31.916z"/>
		<path style="fill:#FF6600;" d="M77.903,18.884l10.334,0.076l7.903,14.742l-0.685-14.514l8.435-0.076l-0.684,27.964L91.732,47
			l-5.623-12.538L87.021,47l-9.347,0.228L77.903,18.884z"/>
		<path style="fill:#FF6600;" d="M118.394,18.998l2.432,11.095l3.495-11.095l10.942,0.229l-8.891,17.553l0.229,10.335l-12.994-0.076
			l0.456-8.891l-8.663-19.149H118.394z"/>
		<path style="fill:#FF6600;" d="M157.604,28.459c-2.621-1.103-4.673-1.482-6.155-1.482c-2.089,0-3.115,0.723-3.115,1.33
			c0,3.647,10.373,3.496,10.373,11.284c0,7.105-6.878,7.713-13.299,7.713c-4.445,0-7.333-0.646-9.422-1.367v-9.879
			c1.785,0.57,5.281,1.481,7.599,1.481c1.33,0,2.241-0.304,2.241-1.102c0-2.773-10.22-2.85-10.22-11.36
			c0-5.319,5.318-7.104,11.436-7.104c3.952,0,7.903,0.76,11.322,1.785L157.604,28.459z"/>
		<path style="fill:#FF6600;" d="M180.838,47.532l-0.342-2.166c-1.786,1.443-3.572,2.546-6.802,2.546
			c-17.287,0-11.474-28.838-11.474-28.838l9.08-0.38c-0.038,4.18-2.317,18.579,3.876,18.579c6.003,0,3.419-13.564,3.191-17.857
			l9.423-0.722l1.063,28.458L180.838,47.532z"/>
		<path style="fill:#FF6600;" d="M214.326,28.459c-2.621-1.103-4.673-1.482-6.155-1.482c-2.089,0-3.115,0.723-3.115,1.33
			c0,3.647,10.373,3.496,10.373,11.284c0,7.105-6.877,7.713-13.299,7.713c-4.445,0-7.333-0.646-9.422-1.367v-9.879
			c1.785,0.57,5.281,1.481,7.599,1.481c1.33,0,2.241-0.304,2.241-1.102c0-2.773-10.22-2.85-10.22-11.36
			c0-5.319,5.318-7.104,11.436-7.104c3.952,0,7.903,0.76,11.322,1.785L214.326,28.459z"/>
		<path style="fill:#FF6600;" d="M51.362,86.924H41.56l-0.684-4.56l-5.928,0.229l-1.367,4.56L23.322,87.38l8.207-27.584
			l10.942-0.684L51.362,86.924z M39.964,77.121l-2.508-7.295l-1.823,7.523L39.964,77.121z"/>
		<path style="fill:#FF6600;" d="M53.643,58.884l10.334,0.076l7.903,14.742l-0.685-14.514l8.435-0.076l-0.684,27.964L67.472,87
			l-5.623-12.538L62.761,87l-9.347,0.228L53.643,58.884z"/>
		<path style="fill:#FF6600;" d="M84.372,86.696l-0.76-27.926c13.45-1.521,26.748,1.899,26.748,13.943
			C110.36,84.341,101.773,88.596,84.372,86.696z M99.076,72.334c0-2.697-2.735-4.635-5.054-4.255v9.688
			C98.24,77.729,99.456,75.032,99.076,72.334z"/>
		<path style="fill:#FF6600;" d="M140.762,87l0.228-10.677l-6.155,0.418l0.229,10.031L125.943,87l0.456-27.888l7.751-0.646
			l0.228,9.993l6.611,0.228l0.228-9.574l7.523-0.646l1.14,28.307L140.762,87z"/>
		<path style="fill:#FF6600;" d="M154.349,59.036l9.574-0.684l0.912,28.495l-10.942,0.229L154.349,59.036z"/>
		<path style="fill:#FF6600;" d="M190.243,68.459c-2.621-1.103-4.673-1.482-6.155-1.482c-2.089,0-3.115,0.723-3.115,1.33
			c0,3.647,10.373,3.496,10.373,11.284c0,7.105-6.878,7.713-13.299,7.713c-4.445,0-7.333-0.646-9.422-1.367v-9.879
			c1.785,0.57,5.281,1.481,7.599,1.481c1.33,0,2.241-0.304,2.241-1.102c0-2.773-10.22-2.85-10.22-11.36
			c0-5.319,5.318-7.104,11.436-7.104c3.952,0,7.903,0.76,11.322,1.785L190.243,68.459z"/>
		<path style="fill:#FF6600;" d="M40.022,107.356l-8.663-0.455l0.076,5.851l6.231-0.342l0.456,5.699l-6.649-0.152l0.114,9.005
			H21.329l0.912-28.268h1.367l2.736-0.229h4.787l8.891-0.228V107.356z"/>
		<path style="fill:#FF6600;" d="M60.934,115.943l6.726,10.449l-9.917,1.063l-4.636-9.043L53.715,127l-11.019-0.076l0.456-27.888
			l3.647-0.912c15.273-1.823,17.098,5.699,17.098,11.398C63.897,112.145,62.415,114.5,60.934,115.943z M55.69,108.61
			c0-4.103-4.331-3.647-4.331-3.647v7.295C51.359,112.258,55.69,112.942,55.69,108.61z"/>
		<path style="fill:#FF6600;" d="M70.234,99.036l9.574-0.684l0.912,28.495l-10.942,0.229L70.234,99.036z"/>
		<path style="fill:#FF6600;" d="M107.805,98.809l-0.684,8.548l-7.751,0.229l-0.456,3.724l7.523-0.418l0.456,5.699l-8.436-0.229
			l-0.228,3.762l8.663-0.456l-0.456,6.839l-21.657,0.418V99.036L107.805,98.809z"/>
		<path style="fill:#FF6600;" d="M111.757,98.884l10.334,0.076l7.903,14.742l-0.685-14.514l8.435-0.076l-0.684,27.964L125.586,127
			l-5.623-12.538L120.875,127l-9.347,0.228L111.757,98.884z"/>
		<path style="fill:#FF6600;" d="M142.486,126.696l-0.76-27.926c13.45-1.521,26.748,1.899,26.748,13.943
			C168.475,124.341,159.888,128.596,142.486,126.696z M157.19,112.334c0-2.697-2.735-4.635-5.054-4.255v9.688
			C156.354,117.729,157.57,115.032,157.19,112.334z"/>
		<path style="fill:#FF6600;" d="M192.997,108.459c-2.621-1.103-4.673-1.482-6.155-1.482c-2.089,0-3.115,0.723-3.115,1.33
			c0,3.647,10.373,3.496,10.373,11.284c0,7.105-6.878,7.713-13.299,7.713c-4.445,0-7.333-0.646-9.422-1.367v-9.879
			c1.785,0.57,5.281,1.481,7.599,1.481c1.33,0,2.241-0.304,2.241-1.102c0-2.773-10.22-2.85-10.22-11.36
			c0-5.319,5.318-7.104,11.436-7.104c3.952,0,7.903,0.76,11.322,1.785L192.997,108.459z"/>
	</g>
</g>
</svg>
