<?xml version="1.0" encoding="iso-8859-1"?>
<!-- Generator: Adobe Illustrator 16.0.0, SVG Export Plug-In . SVG Version: 6.00 Build 0)  -->
<!DOCTYPE svg PUBLIC "-//W3C//DTD SVG 1.1//EN" "http://www.w3.org/Graphics/SVG/1.1/DTD/svg11.dtd">
<svg version="1.1" xmlns="http://www.w3.org/2000/svg" xmlns:xlink="http://www.w3.org/1999/xlink" x="0px" y="0px"
	 width="292.116px" height="30.168px" viewBox="0 0 292.116 30.168" style="enable-background:new 0 0 292.116 30.168;"
	 xml:space="preserve">
<g id="instructions_x5F_en">
	<g>
		<path style="fill:#FF6600;" d="M0.456,1.292l9.574-0.684l0.912,28.496L0,29.332L0.456,1.292z"/>
		<path style="fill:#FF6600;" d="M13.71,1.14l10.334,0.075l7.903,14.742L31.263,1.444l8.435-0.076l-0.684,27.964l-11.475-0.076
			l-5.623-12.539l0.912,12.539l-9.347,0.229L13.71,1.14z"/>
		<path style="fill:#FF6600;" d="M63.715,10.715c-2.621-1.103-4.673-1.482-6.155-1.482c-2.089,0-3.115,0.722-3.115,1.33
			c0,3.646,10.373,3.495,10.373,11.285c0,7.104-6.877,7.711-13.299,7.711c-4.445,0-7.333-0.645-9.422-1.367v-9.879
			c1.785,0.57,5.281,1.482,7.599,1.482c1.33,0,2.241-0.305,2.241-1.102c0-2.773-10.22-2.849-10.22-11.361
			c0-5.318,5.318-7.104,11.436-7.104c3.952,0,7.903,0.761,11.322,1.786L63.715,10.715z"/>
		<path style="fill:#FF6600;" d="M85.914,0.95v7.523L79.53,8.701l0.456,20.516l-10.942,0.229l1.368-20.896L64.94,8.625l-0.228-7.752
			L85.914,0.95z"/>
		<path style="fill:#FF6600;" d="M104.454,18.199l6.726,10.449l-9.917,1.062l-4.636-9.043l0.608,8.588L86.217,29.18l0.456-27.888
			l3.647-0.912c15.273-1.822,17.098,5.699,17.098,11.398C107.418,14.4,105.936,16.756,104.454,18.199z M99.211,10.867
			c0-4.104-4.331-3.647-4.331-3.647v7.295C94.88,14.514,99.211,15.198,99.211,10.867z"/>
		<path style="fill:#FF6600;" d="M130.473,29.787l-0.342-2.166c-1.786,1.445-3.572,2.547-6.802,2.547
			c-17.287,0-11.474-28.837-11.474-28.837l9.08-0.381c-0.038,4.18-2.317,18.58,3.876,18.58c6.003,0,3.419-13.564,3.191-17.857
			l9.423-0.723l1.063,28.458L130.473,29.787z"/>
		<path style="fill:#FF6600;" d="M161.165,19.453l0.418,10.031c-6.649,0.76-21.999,1.102-21.581-14.476
			c0.418-15.616,20.745-14.514,20.745-14.514v9.65C150.982,9.764,151.097,21.314,161.165,19.453z"/>
		<path style="fill:#FF6600;" d="M183.133,0.95v7.523l-6.384,0.228l0.456,20.516l-10.942,0.229l1.368-20.896l-5.472,0.076
			l-0.228-7.752L183.133,0.95z"/>
		<path style="fill:#FF6600;" d="M183.891,1.292l9.574-0.684l0.912,28.496l-10.942,0.229L183.891,1.292z"/>
		<path style="fill:#FF6600;" d="M212.092,29.75c-12.311-0.457-16.489-8.246-16.262-15.578C196.286,7.105,200.693,0,212.548,0
			c8.396,0,12.804,6.611,13.754,13.716C227.441,22.455,220.488,30.016,212.092,29.75z M216.499,14.172
			c0-1.9-1.596-3.533-3.951-3.533c-2.09-0.229-3.952,1.405-4.18,3.305c0,1.9,1.634,3.533,3.951,3.761
			C214.409,17.705,216.271,16.299,216.499,14.172z"/>
		<path style="fill:#FF6600;" d="M228.37,1.14l10.334,0.075l7.903,14.742l-0.685-14.514l8.435-0.076l-0.684,27.964l-11.475-0.076
			l-5.623-12.539l0.912,12.539l-9.347,0.229L228.37,1.14z"/>
		<path style="fill:#FF6600;" d="M278.374,10.715c-2.621-1.103-4.673-1.482-6.155-1.482c-2.089,0-3.115,0.722-3.115,1.33
			c0,3.646,10.373,3.495,10.373,11.285c0,7.104-6.878,7.711-13.299,7.711c-4.445,0-7.333-0.645-9.422-1.367v-9.879
			c1.785,0.57,5.281,1.482,7.599,1.482c1.33,0,2.241-0.305,2.241-1.102c0-2.773-10.22-2.849-10.22-11.361
			c0-5.318,5.318-7.104,11.436-7.104c3.952,0,7.903,0.761,11.322,1.786L278.374,10.715z"/>
		<path style="fill:#FF6600;" d="M281.288,0.989l10.828,0.379l-2.697,19.718l-7.561,0.381L281.288,0.989z M285.62,29.445
			c-2.508-0.229-3.42-1.139-3.192-2.963c0-1.635,0.912-3.42,3.42-3.42c1.596,0,2.546,1.559,2.735,3.42
			C288.812,28.533,287.443,29.445,285.62,29.445z"/>
	</g>
</g>
<g id="Layer_1">
</g>
</svg>
