<?xml version="1.0" encoding="iso-8859-1"?>
<!-- Generator: Adobe Illustrator 16.0.0, SVG Export Plug-In . SVG Version: 6.00 Build 0)  -->
<!DOCTYPE svg PUBLIC "-//W3C//DTD SVG 1.1//EN" "http://www.w3.org/Graphics/SVG/1.1/DTD/svg11.dtd">
<svg version="1.1" xmlns="http://www.w3.org/2000/svg" xmlns:xlink="http://www.w3.org/1999/xlink" x="0px" y="0px"
	 width="190.88px" height="32.155px" viewBox="0 0 190.88 32.155" style="enable-background:new 0 0 190.88 32.155;"
	 xml:space="preserve">
<g id="instructions_x5F_gr">
	<g>
		<polygon style="fill:#FF6600;" points="178.769,0 190.88,0.416 187.8,22.888 179.374,23.136 		"/>
		<path style="fill:#FF6600;" d="M186.554,29.286c-0.17-1.639-1.07-3.15-2.674-3.135c-2.334,0.02-3.209,1.631-3.277,3.275
			c-0.07,1.648,0.77,2.656,3.186,2.727C185.392,32.2,186.765,31.317,186.554,29.286"/>
		<polygon style="fill:#FF6600;" points="81.832,31.174 80.88,2.723 73.515,3.327 73.375,12.996 67.105,12.857 66.767,2.723 
			59.4,3.327 58.992,31.433 67.718,31.174 67.38,21.109 73.261,20.811 73.107,31.433 		"/>
		<path style="fill-rule:evenodd;clip-rule:evenodd;fill:#FF6600;" d="M48.16,3.279L36.996,4.155l-7.592,26.293l27.676,0.429
			L48.16,3.279z M40.431,23.449l2.514-9.091l3.027,8.781L40.431,23.449z"/>
		<path style="fill:#FF6600;" d="M28.63,16.984C27.816,10.36,23.486,4.256,15.775,4.312C4.56,4.395,0.353,10.9,0.019,17.551
			c-0.334,6.656,3.699,14.008,15.312,14.289C23.042,32.027,29.642,25.191,28.63,16.984 M15.449,20.648
			c-2.084-0.078-3.709-1.607-3.617-3.414c0.092-1.805,1.861-3.205,3.947-3.127c2.09,0.076,3.715,1.604,3.621,3.414
			C19.308,19.326,17.541,20.723,15.449,20.648"/>
		<polygon style="fill:#FF6600;" points="107.449,3.802 116.562,3.218 117.48,30.689 107.057,30.938 		"/>
		<polygon style="fill:#FF6600;" points="103.031,3.282 94.545,3.444 94.542,3.282 89.85,3.536 87.254,3.585 87.256,3.675 86,3.687 
			85.081,30.873 94.846,30.873 94.633,11.55 103.031,12.047 		"/>
		<polygon style="fill:#FF6600;" points="122.605,2.416 122.659,30.201 143.511,29.676 143.951,22.9 135.565,23.48 135.713,19.619 
			143.951,19.946 143.511,14.141 136.314,14.661 136.699,10.968 144.096,10.61 144.691,2.022 		"/>
		<polygon style="fill:#FF6600;" points="171.47,10.594 171.47,1.249 149.147,1.529 148.893,8.77 154.903,15.709 148.692,22.537 
			149.013,30.245 171.47,30.906 171.47,21.562 158.54,21.709 163.792,15.935 159.821,9.798 		"/>
	</g>
</g>
<g id="Layer_1">
</g>
</svg>
