<?xml version="1.0" encoding="iso-8859-1"?>
<!DOCTYPE svg PUBLIC "-//W3C//DTD SVG 1.1//EN" "http://www.w3.org/Graphics/SVG/1.1/DTD/svg11.dtd">
<svg version="1.1" xmlns="http://www.w3.org/2000/svg" xmlns:xlink="http://www.w3.org/1999/xlink" x="0px" y="0px" width="345.663px" height="67.686px" viewBox="0 0 345.663 67.686" style="enable-background:new 0 0 345.663 67.686;" xml:space="preserve">
<g id="keep_x5F_trying_x5F_gr">
	<g>
		<path style="fill:#FF6600;" d="M86.065,8.063l3.887,5.795l-5.183,5.363h12.742v8.315l-22.245-0.252l-0.216-7.235l7.127-5.579
			l-6.911-7.415l0.216-6.839l22.029-0.18v8.675L86.065,8.063z"/>
		<path style="fill:#FF6600;" d="M110.365,0.612l2.304,10.511l3.312-10.511l10.366,0.216l-8.423,16.63l0.217,9.791l-12.311-0.072
			l0.432-8.423L98.055,0.612H110.365z"/>
		<path style="fill:#FF6600;" d="M127.203,0.504l9.791,0.072l7.487,13.966l-0.648-13.75l7.991-0.072l-0.647,26.493l-10.871-0.072
			l-5.327-11.878l0.864,11.878l-8.855,0.216L127.203,0.504z"/>
		<path style="fill:#FF6600;" d="M176.858,0.432l-0.648,8.099l-7.343,0.216l-0.432,3.527l7.127-0.396l0.432,5.399l-7.99-0.216
			l-0.217,3.563l8.207-0.432l-0.432,6.479l-20.518,0.396V0.648L176.858,0.432z"/>
		<path style="fill:#FF6600;" d="M197.433,27.104l-3.743-7.055l-2.808,7.055l-13.606-0.072l9.143-13.174l-8.566-13.247l12.311-0.288
			l3.383,7.703l4.392-7.271h12.526l-9.143,13.75l8.495,12.886L197.433,27.104z"/>
		<path style="fill:#FF6600;" d="M211.341,0.648L220.412,0l0.864,26.997l-10.367,0.216L211.341,0.648z"/>
		<path style="fill:#FF6600;" d="M234.683,8.063l3.887,5.795l-5.183,5.363h12.742v8.315l-22.245-0.252l-0.216-7.235l7.127-5.579
			l-6.911-7.415l0.216-6.839l22.029-0.18v8.675L234.683,8.063z"/>
		<path style="fill:#FF6600;" d="M270.973,0.432l-0.647,8.099l-7.344,0.216l-0.432,3.527l7.127-0.396l0.432,5.399l-7.99-0.216
			l-0.217,3.563l8.207-0.432l-0.432,6.479l-20.518,0.396V0.648L270.973,0.432z"/>
		<path style="fill:#FF6600;" d="M20.086,40.324v7.127l-6.047,0.216l0.432,19.438L4.104,67.32L5.4,47.523l-5.184,0.072L0,40.252
			L20.086,40.324z"/>
		<path style="fill:#FF6600;" d="M35.506,67.141l0.215-10.115l-5.83,0.396l0.215,9.503l-8.639,0.216l0.432-26.421l7.344-0.612
			l0.216,9.467l6.263,0.217l0.217-9.071l7.127-0.612l1.08,26.817L35.506,67.141z"/>
		<path style="fill:#FF6600;" d="M47.488,40.504l9.79,0.072l7.487,13.966l-0.648-13.75l7.991-0.072l-0.647,26.493L60.59,67.141
			l-5.327-11.879l0.864,11.879l-8.855,0.216L47.488,40.504z"/>
		<path style="fill:#FF6600;" d="M109.332,67.393h-8.423l-0.647-17.062h-4.968l-0.647,16.847h-8.855l0.504-26.997h21.525
			L109.332,67.393z"/>
		<path style="fill:#FF6600;" d="M123.189,59.869l0.647,7.271l-11.519-0.072l0.433-26.42l3.455-0.864
			c14.47-1.728,16.198,5.399,16.198,10.798C132.62,57.926,123.189,59.869,123.189,59.869z M124.629,49.719
			c0-3.888-4.104-3.455-4.104-3.455v6.91C120.525,53.174,124.629,53.822,124.629,49.719z"/>
		<path style="fill:#FF6600;" d="M148.651,67.608c-11.662-0.432-15.622-7.812-15.406-14.758c0.433-6.695,4.607-13.427,15.839-13.427
			c7.954,0,12.13,6.264,13.03,12.994C163.193,60.697,156.606,67.86,148.651,67.608z M152.827,52.851c0-1.8-1.512-3.348-3.743-3.348
			c-1.98-0.216-3.744,1.331-3.96,3.132c0,1.799,1.548,3.348,3.743,3.563C150.848,56.198,152.611,54.866,152.827,52.851z"/>
		<path style="fill:#FF6600;" d="M174.623,48.062l3.887,5.796l-5.183,5.363h12.742v8.315l-22.245-0.252l-0.216-7.236l7.127-5.578
			l-6.911-7.416l0.216-6.839l22.029-0.18v8.675L174.623,48.062z"/>
		<path style="fill:#FF6600;" d="M212.424,67.393h-8.423l-0.647-17.062h-4.968l-0.647,16.847h-8.855l0.504-26.997h21.525
			L212.424,67.393z"/>
		<path style="fill:#FF6600;" d="M240.082,67.068h-9.286l-0.648-4.319l-5.615,0.216l-1.296,4.32l-9.719,0.215l7.775-26.133
			l10.366-0.647L240.082,67.068z M229.283,57.781l-2.375-6.91l-1.729,7.127L229.283,57.781z"/>
		<path style="fill:#FF6600;" d="M255.617,67.681c-11.663-0.216-15.767-7.774-15.551-14.47c0.433-6.695,4.752-13.391,15.982-13.391
			c7.991-0.217,12.311,6.047,13.175,12.742C270.303,60.985,263.607,67.896,255.617,67.681z M260.368,55.586h-11.662
			c0.647,2.16,2.375,3.455,5.615,3.455C257.776,59.258,259.721,57.962,260.368,55.586z M248.922,51.051l11.662-0.217
			c-0.647-2.159-2.375-3.455-5.615-3.671C251.514,47.163,249.569,48.459,248.922,51.051z"/>
		<path style="fill:#FF6600;" d="M293.521,40.432l-0.648,8.1l-7.343,0.216l-0.432,3.527l7.127-0.396l0.432,5.398l-7.99-0.215
			l-0.217,3.562l8.207-0.432l-0.432,6.479l-20.518,0.396v-26.42L293.521,40.432z"/>
		<path style="fill:#FF6600;" d="M296.702,40.648l9.07-0.648l0.864,26.996l-10.367,0.217L296.702,40.648z"/>
		<path style="fill:#FF6600;" d="M334.368,67.068h-9.287l-0.647-4.319l-5.615,0.216l-1.296,4.32l-9.719,0.215l7.775-26.133
			l10.366-0.647L334.368,67.068z M323.569,57.781l-2.375-6.91l-1.729,7.127L323.569,57.781z"/>
		<path style="fill:#FF6600;" d="M335.404,40.359l10.259,0.36l-2.556,18.682l-7.163,0.36L335.404,40.359z M339.508,67.32
			c-2.376-0.216-3.24-1.08-3.023-2.807c0-1.549,0.863-3.24,3.239-3.24c1.512,0,2.411,1.476,2.592,3.24
			C342.531,66.457,341.235,67.32,339.508,67.32z"/>
	</g>
</g>
</svg>
