<?xml version="1.0" encoding="iso-8859-1"?>
<!DOCTYPE svg PUBLIC "-//W3C//DTD SVG 1.1//EN" "http://www.w3.org/Graphics/SVG/1.1/DTD/svg11.dtd">
<svg version="1.1" xmlns="http://www.w3.org/2000/svg" xmlns:xlink="http://www.w3.org/1999/xlink" x="0px" y="0px" width="264.243px" height="28.052px" viewBox="0 0 264.243 28.052" style="enable-background:new 0 0 264.243 28.052;" xml:space="preserve">
<g id="keep_x5F_trying_x5F_en">
	<g>
		<path style="fill:#FF6600;" d="M12.095,1.199l-1.296,8.854l4.535-8.998h10.583L17.926,14.59l8.855,12.958H15.55l-4.967-8.423
			l2.159,8.423L0,27.764V1.415L12.095,1.199z"/>
		<path style="fill:#FF6600;" d="M49.63,0.911L48.981,9.01l-7.343,0.217l-0.432,3.527l7.127-0.396l0.432,5.399l-7.99-0.216
			l-0.217,3.563l8.207-0.432l-0.432,6.479l-20.518,0.396V1.127L49.63,0.911z"/>
		<path style="fill:#FF6600;" d="M74.319,0.911L73.671,9.01l-7.343,0.217l-0.432,3.527l7.127-0.396l0.432,5.399l-7.99-0.216
			l-0.217,3.563l8.207-0.432l-0.432,6.479l-20.518,0.396V1.127L74.319,0.911z"/>
		<path style="fill:#FF6600;" d="M87.939,20.349l0.647,7.271l-11.519-0.072l0.433-26.421l3.455-0.863
			c14.47-1.729,16.198,5.399,16.198,10.798C97.37,18.405,87.939,20.349,87.939,20.349z M89.379,10.198
			c0-3.888-4.104-3.456-4.104-3.456v6.911C85.275,13.653,89.379,14.302,89.379,10.198z"/>
		<path style="fill:#FF6600;" d="M130.236,0.804v7.127l-6.047,0.216l0.432,19.438L114.255,27.8l1.295-19.798l-5.183,0.072
			l-0.216-7.343L130.236,0.804z"/>
		<path style="fill:#FF6600;" d="M148.896,17.146l6.371,9.898l-9.395,1.008l-4.392-8.566l0.575,8.135l-10.438-0.072l0.433-26.421
			l3.455-0.863c14.47-1.729,16.198,5.399,16.198,10.798C151.703,13.546,150.299,15.777,148.896,17.146z M143.928,10.198
			c0-3.888-4.104-3.456-4.104-3.456v6.911C139.824,13.653,143.928,14.302,143.928,10.198z"/>
		<path style="fill:#FF6600;" d="M165.644,1.091l2.304,10.511l3.312-10.511l10.366,0.217l-8.423,16.63l0.217,9.79l-12.311-0.071
			l0.432-8.423l-8.207-18.143H165.644z"/>
		<path style="fill:#FF6600;" d="M182.587,1.127l9.07-0.647l0.864,26.996l-10.367,0.216L182.587,1.127z"/>
		<path style="fill:#FF6600;" d="M195.862,0.983l9.791,0.072l7.487,13.966l-0.648-13.75l7.991-0.072l-0.647,26.492l-10.871-0.071
			l-5.327-11.879l0.864,11.879l-8.855,0.216L195.862,0.983z"/>
		<path style="fill:#FF6600;" d="M250.744,27.08c-13.21,1.26-27.86,2.052-27.86-12.454c0-10.835,10.942-15.047,22.138-14.074
			l-0.721,8.603c-5.723-1.08-8.459,2.016-8.459,4.932c0,5.543,5.76,5.291,8.1,4.031l-0.72-5.363l8.242-0.36L250.744,27.08z"/>
		<path style="fill:#FF6600;" d="M253.984,0.839l10.259,0.36l-2.556,18.682l-7.163,0.36L253.984,0.839z M258.088,27.8
			c-2.376-0.216-3.24-1.08-3.023-2.808c0-1.548,0.863-3.239,3.239-3.239c1.512,0,2.411,1.476,2.592,3.239
			C261.111,26.936,259.815,27.8,258.088,27.8z"/>
	</g>
</g>
</svg>
