<?xml version="1.0" encoding="utf-8"?>
<!DOCTYPE svg PUBLIC "-//W3C//DTD SVG 1.1//EN" "http://www.w3.org/Graphics/SVG/1.1/DTD/svg11.dtd">
<svg xmlns="http://www.w3.org/2000/svg" xmlns:xlink="http://www.w3.org/1999/xlink" version="1.1" id="Layer_1" x="0px" y="0px" width="232.46px" height="109.636px" viewBox="0 0 232.46 109.636" enable-background="new 0 0 232.46 109.636" xml:space="preserve">
<g id="wrong_x5F_en">
	<path fill="#FF0000" d="M22.998,10.715c-2.621-1.103-4.673-1.481-6.155-1.481c-2.089,0-3.115,0.721-3.115,1.329    c0,3.647,10.373,3.495,10.373,11.284c0,7.105-6.878,7.713-13.299,7.713c-4.445,0-7.333-0.646-9.422-1.367v-9.879    c1.785,0.57,5.281,1.482,7.599,1.482c1.33,0,2.241-0.305,2.241-1.103C11.22,15.92,1,15.843,1,7.333    c0-5.319,5.318-7.105,11.436-7.105c3.952,0,7.903,0.761,11.322,1.786L22.998,10.715z"/>
	<path fill="#FF0000" d="M41.042,29.75c-12.311-0.456-16.489-8.245-16.262-15.578C25.237,7.104,29.644,0,41.498,0    c8.396,0,12.804,6.611,13.754,13.716C56.392,22.455,49.439,30.016,41.042,29.75z M45.45,14.172c0-1.899-1.596-3.533-3.951-3.533    c-2.09-0.228-3.952,1.405-4.18,3.306c0,1.899,1.634,3.533,3.951,3.762C43.36,17.706,45.222,16.3,45.45,14.172z"/>
	<path fill="#FF0000" d="M75.218,18.2l6.726,10.447l-9.917,1.064l-4.636-9.043l0.608,8.587L56.981,29.18l0.456-27.888l3.647-0.912    c15.273-1.823,17.098,5.699,17.098,11.398C78.182,14.399,76.7,16.756,75.218,18.2z M69.975,10.866    c0-4.104-4.331-3.646-4.331-3.646v7.295C65.644,14.515,69.975,15.198,69.975,10.866z"/>
	<path fill="#FF0000" d="M100.781,18.2l6.726,10.447l-9.917,1.064l-4.636-9.043l0.608,8.587L82.543,29.18l0.456-27.888l3.647-0.912    c15.273-1.823,17.098,5.699,17.098,11.398C103.745,14.399,102.262,16.756,100.781,18.2z M95.538,10.866    c0-4.104-4.331-3.646-4.331-3.646v7.295C91.206,14.515,95.538,15.198,95.538,10.866z"/>
	<path fill="#FF0000" d="M117.685,1.254l2.432,11.095l3.493-11.095l10.943,0.228l-8.892,17.554l0.229,10.335l-12.994-0.076    l0.455-8.891L104.69,1.255L117.685,1.254L117.685,1.254z"/>
	<path fill="#FF0000" d="M168.83,20.632c0.685,12.993-22.112,7.521-22.112,7.521V12.196l0.455-11.17    c2.053,0.228,20.745-4.332,21.201,7.522c0.229,2.735-0.912,4.788-2.964,6.155C167.235,16.071,168.83,17.896,168.83,20.632z     M155.835,12.196c0,0,3.419,0.229,2.964-2.963c-0.229-2.28-3.191-1.824-3.191-1.824L155.835,12.196z M160.395,19.947    c-0.229-3.419-4.332-2.052-4.332-2.052l0.229,3.875C156.291,21.771,160.395,22.228,160.395,19.947z"/>
	<path fill="#FF0000" d="M189.543,29.788l-0.342-2.166c-1.786,1.443-3.572,2.546-6.803,2.546    c-17.286,0-11.473-28.838-11.473-28.838l9.079-0.38c-0.038,4.18-2.317,18.579,3.876,18.579c6.004,0,3.42-13.563,3.191-17.857    l9.423-0.722l1.063,28.457L189.543,29.788z"/>
	<path fill="#FF0000" d="M219.35,0.95v7.523L212.967,8.7l0.455,20.518l-10.941,0.229l1.367-20.897l-5.472,0.076l-0.228-7.751    L219.35,0.95z"/>
	<path fill="#FF0000" d="M12.994,41.254l2.432,11.095l3.495-11.095l10.942,0.228l-8.891,17.555l0.229,10.334L8.207,69.294    l0.456-8.892L0,41.254H12.994z"/>
	<path fill="#FF0000" d="M44.32,69.75c-12.311-0.455-16.489-8.244-16.262-15.578C28.515,47.104,32.922,40,44.776,40    c8.396,0,12.804,6.611,13.754,13.716C59.67,62.455,52.717,70.016,44.32,69.75z M48.728,54.172c0-1.899-1.596-3.533-3.951-3.533    c-2.09-0.228-3.952,1.405-4.18,3.306c0,1.898,1.634,3.533,3.951,3.762C46.638,57.707,48.5,56.3,48.728,54.172z"/>
	<path fill="#FF0000" d="M79.188,69.789l-0.342-2.166c-1.786,1.442-3.572,2.545-6.802,2.545c-17.287,0-11.474-28.837-11.474-28.837    l9.08-0.38c-0.038,4.18-2.317,18.579,3.876,18.579c6.003,0,3.419-13.563,3.191-17.857l9.423-0.722l1.063,28.458L79.188,69.789z"/>
	<path fill="#FF0000" d="M100.889,68.953l-0.76-27.927c13.45-1.52,26.748,1.899,26.748,13.943    C126.876,66.597,118.291,70.852,100.889,68.953z M115.593,54.59c0-2.697-2.735-4.636-5.054-4.255v9.688    C114.757,59.985,115.973,57.289,115.593,54.59z"/>
	<path fill="#FF0000" d="M128.994,41.292l9.573-0.684l0.912,28.496l-10.942,0.228L128.994,41.292z"/>
	<path fill="#FF0000" d="M142.589,68.953l-0.76-27.927c13.449-1.52,26.748,1.899,26.748,13.943    C168.578,66.597,159.99,70.852,142.589,68.953z M157.292,54.59c0-2.697-2.734-4.636-5.054-4.255v9.688    C156.457,59.985,157.673,57.289,157.292,54.59z"/>
	<path fill="#FF0000" d="M170.55,41.14l10.334,0.076l7.902,14.743l-0.685-14.515l8.435-0.076l-0.684,27.963l-11.475-0.076    l-5.623-12.537l0.912,12.537l-9.348,0.229L170.55,41.14z"/>
	<path fill="#FF0000" d="M204.884,39.378c1.56,0,5.017,0.987,5.017,5.166c0,4.979-3.001,9.689-6.269,13.603l-4.939-2.165    c0.305-0.076,2.583-4.143,3.229-7.22c-2.659-0.075-3.381-2.241-3.381-3.724C198.541,41.276,202.037,39.378,204.884,39.378z"/>
	<path fill="#FF0000" d="M232.46,40.95v7.523l-6.383,0.227l0.455,20.518l-10.943,0.229l1.369-20.897l-5.472,0.076l-0.229-7.751    L232.46,40.95z"/>
	<path fill="#FF0000" d="M13.266,109.408l-11.171-0.229l0.229-28.04l12.994-0.455l3.875,9.573l5.016-9.118h14.817l0.228,28.04    H25.575l0.229-11.17l-6.384,10.259l-6.61-10.259L13.266,109.408z"/>
	<path fill="#FF0000" d="M67.985,109.18h-9.803l-0.684-4.56l-5.928,0.229l-1.367,4.559l-10.259,0.229l8.207-27.585l10.942-0.684    L67.985,109.18z M56.587,99.378l-2.508-7.295l-1.823,7.521L56.587,99.378z"/>
	<path fill="#FF0000" d="M81.406,81.369l-1.368,9.346l4.787-9.498h11.171L87.56,95.501l9.347,13.679H85.054l-5.243-8.892    l2.279,8.892l-13.45,0.228V81.596L81.406,81.369z"/>
	<path fill="#FF0000" d="M120.258,81.063l-0.684,8.549l-7.751,0.229l-0.455,3.723l7.522-0.417l0.456,5.698l-8.435-0.229    l-0.229,3.762l8.663-0.455l-0.456,6.839l-21.657,0.418V81.292L120.258,81.063z"/>
	<path fill="#FF0000" d="M133.637,81.292l9.574-0.685l0.912,28.496l-10.942,0.228L133.637,81.292z"/>
	<path fill="#FF0000" d="M165.85,80.951v7.522l-6.383,0.228l0.455,20.518l-10.942,0.229l1.368-20.896l-5.471,0.076l-0.229-7.752    L165.85,80.951z"/>
	<path fill="#FF0000" d="M171.122,99.378c1.559,0,5.016,1.367,5.016,4.406c0,3.647-1.48,5.774-5.661,5.774    c-2.964,0-5.699-2.203-5.699-4.521C164.776,101.276,168.271,99.378,171.122,99.378z"/>
	<path fill="#FF0000" d="M184.424,99.378c1.56,0,5.017,1.367,5.017,4.406c0,3.647-1.481,5.774-5.661,5.774    c-2.964,0-5.699-2.203-5.699-4.521C178.081,101.276,181.577,99.378,184.424,99.378z"/>
	<path fill="#FF0000" d="M197.728,99.378c1.56,0,5.017,1.367,5.017,4.406c0,3.647-1.481,5.774-5.662,5.774    c-2.963,0-5.699-2.203-5.699-4.521C191.383,101.276,194.879,99.378,197.728,99.378z"/>
</g>
</svg>
