<?xml version="1.0" encoding="utf-8"?>
<!DOCTYPE svg PUBLIC "-//W3C//DTD SVG 1.1//EN" "http://www.w3.org/Graphics/SVG/1.1/DTD/svg11.dtd">
<svg xmlns="http://www.w3.org/2000/svg" xmlns:xlink="http://www.w3.org/1999/xlink" version="1.1" id="Layer_1" x="0px" y="0px" width="240.786px" height="110.618px" viewBox="0 0 240.786 110.618" enable-background="new 0 0 240.786 110.618" xml:space="preserve">
<g id="wrong_x5F_gr">	
	<polygon fill="#FF0000" points="228.674,78.463 240.786,78.879 237.706,101.351 229.28,101.599"/>
	<path fill="#FF0000" d="M236.459,107.749c-0.17-1.639-1.07-3.149-2.674-3.137c-2.334,0.021-3.209,1.631-3.277,3.277   c-0.07,1.646,0.77,2.656,3.186,2.727C235.297,110.661,236.67,109.78,236.459,107.749"/>
	<path fill="#FF0000" d="M124.924,90.917c0-7.576-4.813-9.935-10.293-9.58l-0.019-2.805l-7.833,0.395l0.007,2.816   c-8.11,0.098-11.094,3.932-11.094,9.612c0,6.319,3.751,12.485,10.423,11.226l-0.214,5.361h9.024l-0.062-5.867   C120.443,102.008,124.924,98.84,124.924,90.917z M106.313,95.737c-1.787-0.188-3.261-1.898-3.162-3.812   c0.097-1.848,1.875-3.625,3.44-3.491L106.313,95.737z M114.796,95.077L114.7,88.18c2.201-0.256,3.372,1.143,3.259,3.301   C117.854,93.413,117.401,94.54,114.796,95.077z"/>
	<polygon fill="#FF0000" points="0,81.584 0,108.184 12.922,108.068 10.739,99.434 16.73,107.977 28.069,108.068 18.082,94.836    25.139,81.525 15.396,81.491 10.904,90.2 12.216,81.29"/>
	<path fill="#FF0000" d="M45.339,81.18l-10.575,0.543l-7.694,26.57l9.659-0.178l1.416-4.367l5.618-0.234l0.64,4.253h9.543   L45.339,81.18z M38.853,98.526l1.761-7.127l2.409,6.967L38.853,98.526z"/>
	<polygon fill="#FF0000" points="126.61,80.845 126.665,108.629 147.516,108.104 147.956,101.329 139.57,101.909 139.717,98.047    147.956,98.374 147.516,92.568 140.319,93.088 140.704,89.396 148.101,89.038 148.696,80.452"/>
	<polygon fill="#FF0000" points="174.638,80.042 174.691,107.825 195.543,107.299 195.983,100.524 187.598,101.104 187.745,97.243    195.983,97.57 195.543,91.765 188.347,92.286 188.731,88.592 196.127,88.235 196.724,79.647"/>
	<path fill="#FF0000" d="M89.069,80.982l-10.574,0.544l-7.695,26.57l9.66-0.178l1.416-4.367l5.617-0.234l0.641,4.252h9.543   L89.069,80.982z M82.583,98.329l1.762-7.125l2.408,6.965L82.583,98.329z"/>
	<polygon fill="#FF0000" points="51.946,80.913 52.106,88.431 58.362,87.963 56.974,108.792 66.581,108.606 66.181,87.815    72.37,87.661 72.212,80.29"/>
	<polygon fill="#FF0000" points="222.075,88.252 222.075,78.909 199.752,79.188 199.497,86.428 206.508,94.368 199.297,100.195    199.618,107.903 222.075,108.564 222.075,99.221 209.145,99.368 214.396,93.592 210.426,87.456"/>
	<path fill="#FF0000" d="M172.083,90.522c-0.158-5.422-1.832-12.579-16.582-10.898l-3.338,0.86l-0.476,27.097l12.103,0.519   l-0.75-8.17C163.04,99.929,172.297,97.935,172.083,90.522z M160,93.262v0.005v-7c0,0,4.25-0.5,4.25,3.5S160,93.262,160,93.262z"/>
	<path fill="#FF0000" d="M127.577,40.485l-10.576,0.545l-7.694,26.568l9.66-0.178l1.416-4.367L126,62.819l0.641,4.252h9.543   L127.577,40.485z M121.09,57.833l1.762-7.126l2.408,6.966L121.09,57.833z"/>
	<polygon fill="#FF0000" points="90.453,40.416 90.614,47.934 96.87,47.467 95.481,68.293 105.088,68.108 104.688,47.318    110.876,47.164 110.719,39.792"/>
	<path fill="#FF0000" d="M20.222,41.729L9.058,42.605L1.466,68.897l27.676,0.43L20.222,41.729z M12.494,61.898l2.514-9.09   l3.027,8.78L12.494,61.898z"/>
	<polygon fill="#FF0000" points="56.253,68.15 63.113,67.907 62.444,57.388 67.745,67.029 76.861,67.396 76.551,41.964    70.238,42.36 70.807,54.37 62.473,42.218 55.333,41.935"/>
	<polygon fill="#FF0000" points="30.091,41.348 30.145,69.131 50.996,68.606 51.437,61.831 43.051,62.411 43.199,58.551    51.437,58.877 50.996,53.072 43.8,53.593 44.185,49.9 51.581,49.543 52.177,40.955"/>
	<polygon fill="#FF0000" points="24.677,2.097 33.032,20.614 32.503,29.227 45.015,29.557 44.753,19.304 53.363,2.396    42.821,2.266 39.07,12.424 37.222,2.097"/>
	<polygon fill="#FF0000" points="102.202,2.097 110.557,20.614 110.027,29.227 122.54,29.557 122.278,19.304 130.887,2.396    120.346,2.266 116.594,12.424 114.747,2.097"/>
	<polygon fill="#FF0000" points="77.14,10.344 77.14,1 54.818,1.28 54.564,8.52 61.574,16.459 54.363,22.286 54.683,29.994    77.14,30.655 77.14,21.312 64.21,21.458 69.462,15.685 65.492,9.548"/>
	<polygon fill="#FF0000" points="216.655,9.344 216.655,0 194.333,0.28 194.079,7.52 201.088,15.459 193.877,21.287    194.198,28.994 216.655,29.655 216.655,20.312 203.725,20.459 208.977,14.685 205.006,8.548"/>
	<path fill="#FF0000" d="M19.756,2.028L8.592,2.904L1,29.196l27.677,0.429L19.756,2.028z M12.028,22.197l2.514-9.09l3.027,8.78   L12.028,22.197z"/>
	<polygon fill="#FF0000" points="163.924,29.004 153.864,16.165 162.493,2.699 149.737,2.735 145.038,9.625 141.864,2.258    129.319,2.972 138.725,15.712 130.274,29.004 144.143,29.396 146.952,22.566 151.081,29.359"/>
	<polygon fill="#FF0000" points="81.092,2.537 81.092,10.931 86.202,10.717 84.829,29.299 95.37,29.299 94.336,10.717    100.071,10.717 100.071,2.355"/>
	<path fill="#FF0000" d="M190.936,21.116l-6.898-0.101c2.473-1.666,3.965-4.574,3.518-8.895c-0.627-6.07-3.963-11.663-9.9-11.612   c-8.639,0.076-11.877,6.037-12.133,12.132c-0.156,3.647,0.908,6.441,3.691,8.16l-5.414-0.079l0.248,8.425l27.471-0.92   L190.936,21.116z M177.676,8.932c1.906,0.086,3.391,1.738,3.305,3.707c-0.08,1.955-1.693,3.474-3.602,3.389   c-1.904-0.082-3.379-1.74-3.301-3.703C174.165,10.367,175.776,8.848,177.676,8.932z"/>
</g>
</svg>
