<?xml version="1.0" encoding="iso-8859-1"?>
<!DOCTYPE svg PUBLIC "-//W3C//DTD SVG 1.1//EN" "http://www.w3.org/Graphics/SVG/1.1/DTD/svg11.dtd">
<svg version="1.1" xmlns="http://www.w3.org/2000/svg" xmlns:xlink="http://www.w3.org/1999/xlink" x="0px" y="0px" width="232.46px" height="109.636px" viewBox="0 0 232.46 109.636" style="enable-background:new 0 0 232.46 109.636;" xml:space="preserve">
<g id="wrong_x5F_en">
	<g>
		<path style="fill:#FF0000;" d="M29.147,10.715c-2.621-1.103-4.673-1.481-6.155-1.481c-2.089,0-3.115,0.721-3.115,1.329
			c0,3.647,10.373,3.495,10.373,11.284c0,7.105-6.878,7.713-13.299,7.713c-4.445,0-7.333-0.646-9.422-1.367v-9.879
			c1.785,0.57,5.281,1.482,7.599,1.482c1.33,0,2.241-0.305,2.241-1.103c0-2.773-10.22-2.85-10.22-11.36
			c0-5.319,5.318-7.105,11.436-7.105c3.952,0,7.903,0.761,11.322,1.786L29.147,10.715z"/>
		<path style="fill:#FF0000;" d="M47.191,29.75c-12.311-0.456-16.489-8.245-16.262-15.578C31.386,7.104,35.793,0,47.647,0
			c8.396,0,12.804,6.611,13.754,13.716C62.541,22.455,55.588,30.016,47.191,29.75z M51.599,14.172c0-1.899-1.596-3.533-3.951-3.533
			c-2.09-0.228-3.952,1.405-4.18,3.306c0,1.899,1.634,3.533,3.951,3.762C49.509,17.706,51.371,16.3,51.599,14.172z"/>
		<path style="fill:#FF0000;" d="M81.367,18.2l6.726,10.447l-9.917,1.064l-4.636-9.043l0.608,8.587L63.13,29.18l0.456-27.888
			l3.647-0.912c15.273-1.823,17.098,5.699,17.098,11.398C84.331,14.399,82.849,16.756,81.367,18.2z M76.124,10.866
			c0-4.104-4.331-3.646-4.331-3.646v7.295C71.793,14.515,76.124,15.198,76.124,10.866z"/>
		<path style="fill:#FF0000;" d="M106.93,18.2l6.726,10.447l-9.917,1.064l-4.636-9.043l0.608,8.587L88.692,29.18l0.456-27.888
			l3.647-0.912c15.273-1.823,17.098,5.699,17.098,11.398C109.894,14.399,108.411,16.756,106.93,18.2z M101.687,10.866
			c0-4.104-4.331-3.646-4.331-3.646v7.295C97.355,14.515,101.687,15.198,101.687,10.866z"/>
		<path style="fill:#FF0000;" d="M123.833,1.254l2.432,11.095l3.495-11.095l10.942,0.228l-8.891,17.554l0.229,10.335l-12.994-0.076
			l0.456-8.891l-8.663-19.149H123.833z"/>
		<path style="fill:#FF0000;" d="M174.979,20.632c0.684,12.993-22.113,7.521-22.113,7.521V12.196l0.456-11.17
			c2.052,0.228,20.745-4.332,21.201,7.522c0.228,2.735-0.912,4.788-2.964,6.155C173.384,16.071,174.979,17.896,174.979,20.632z
			 M161.985,12.196c0,0,3.419,0.229,2.963-2.963c-0.228-2.28-3.191-1.824-3.191-1.824L161.985,12.196z M166.544,19.947
			c-0.228-3.419-4.331-2.052-4.331-2.052l0.228,3.875C162.44,21.771,166.544,22.228,166.544,19.947z"/>
		<path style="fill:#FF0000;" d="M195.693,29.788l-0.342-2.166c-1.786,1.443-3.572,2.546-6.802,2.546
			c-17.287,0-11.474-28.838-11.474-28.838l9.08-0.38c-0.038,4.18-2.317,18.579,3.876,18.579c6.003,0,3.419-13.563,3.191-17.857
			l9.423-0.722l1.063,28.457L195.693,29.788z"/>
		<path style="fill:#FF0000;" d="M225.5,0.95v7.523L219.116,8.7l0.456,20.518l-10.942,0.229l1.368-20.897l-5.472,0.076l-0.228-7.751
			L225.5,0.95z"/>
		<path style="fill:#FF0000;" d="M12.994,41.254l2.432,11.095l3.495-11.095l10.942,0.228l-8.891,17.554l0.229,10.335L8.207,69.294
			l0.456-8.891L0,41.254H12.994z"/>
		<path style="fill:#FF0000;" d="M44.32,69.75c-12.311-0.456-16.489-8.245-16.262-15.578C28.515,47.104,32.922,40,44.776,40
			c8.396,0,12.804,6.611,13.754,13.716C59.67,62.455,52.717,70.016,44.32,69.75z M48.728,54.172c0-1.899-1.596-3.533-3.951-3.533
			c-2.09-0.228-3.952,1.405-4.18,3.306c0,1.899,1.634,3.533,3.951,3.762C46.638,57.706,48.5,56.3,48.728,54.172z"/>
		<path style="fill:#FF0000;" d="M79.188,69.788l-0.342-2.166c-1.786,1.443-3.572,2.546-6.802,2.546
			c-17.287,0-11.474-28.838-11.474-28.838l9.08-0.38c-0.038,4.18-2.317,18.579,3.876,18.579c6.003,0,3.419-13.563,3.191-17.857
			l9.423-0.722l1.063,28.457L79.188,69.788z"/>
		<path style="fill:#FF0000;" d="M100.889,68.952l-0.76-27.926c13.45-1.52,26.748,1.899,26.748,13.943
			C126.877,66.597,118.29,70.852,100.889,68.952z M115.593,54.59c0-2.697-2.735-4.636-5.054-4.255v9.688
			C114.757,59.985,115.973,57.288,115.593,54.59z"/>
		<path style="fill:#FF0000;" d="M128.993,41.292l9.574-0.684l0.912,28.496l-10.942,0.228L128.993,41.292z"/>
		<path style="fill:#FF0000;" d="M142.589,68.952l-0.76-27.926c13.45-1.52,26.748,1.899,26.748,13.943
			C168.577,66.597,159.99,70.852,142.589,68.952z M157.293,54.59c0-2.697-2.735-4.636-5.054-4.255v9.688
			C156.457,59.985,157.673,57.288,157.293,54.59z"/>
		<path style="fill:#FF0000;" d="M170.55,41.14l10.334,0.076l7.903,14.742l-0.685-14.514l8.435-0.076l-0.684,27.964l-11.475-0.076
			l-5.623-12.538l0.912,12.538l-9.347,0.228L170.55,41.14z"/>
		<path style="fill:#FF0000;" d="M204.885,39.378c1.559,0,5.016,0.987,5.016,5.166c0,4.979-3.001,9.689-6.269,13.603l-4.939-2.165
			c0.304-0.076,2.583-4.143,3.229-7.22c-2.66-0.075-3.382-2.241-3.382-3.724C198.54,41.276,202.036,39.378,204.885,39.378z"/>
		<path style="fill:#FF0000;" d="M232.46,40.95v7.523l-6.383,0.227l0.455,20.518l-10.942,0.229l1.368-20.897l-5.471,0.076
			l-0.229-7.751L232.46,40.95z"/>
		<path style="fill:#FF0000;" d="M27.266,109.407l-11.171-0.228l0.229-28.04l12.994-0.455l3.875,9.574l5.016-9.119h14.817
			l0.228,28.04H39.575l0.229-11.17l-6.384,10.259L26.81,98.01L27.266,109.407z"/>
		<path style="fill:#FF0000;" d="M81.986,109.18h-9.803l-0.684-4.56l-5.928,0.229l-1.367,4.559l-10.259,0.229l8.207-27.584
			l10.942-0.684L81.986,109.18z M70.588,99.378l-2.508-7.295l-1.823,7.522L70.588,99.378z"/>
		<path style="fill:#FF0000;" d="M95.406,81.368l-1.368,9.347l4.787-9.499h11.171l-8.436,14.286l9.347,13.678H99.054l-5.243-8.891
			l2.279,8.891l-13.45,0.228V81.596L95.406,81.368z"/>
		<path style="fill:#FF0000;" d="M134.259,81.063l-0.684,8.549l-7.751,0.229l-0.456,3.723l7.523-0.417l0.456,5.698l-8.436-0.228
			l-0.228,3.762l8.663-0.456l-0.456,6.839l-21.657,0.418V81.292L134.259,81.063z"/>
		<path style="fill:#FF0000;" d="M147.638,81.292l9.574-0.684l0.912,28.496l-10.942,0.228L147.638,81.292z"/>
		<path style="fill:#FF0000;" d="M179.851,80.95v7.523l-6.383,0.227l0.455,20.518l-10.942,0.229l1.368-20.897l-5.471,0.076
			l-0.229-7.751L179.851,80.95z"/>
		<path style="fill:#FF0000;" d="M185.122,99.378c1.559,0,5.016,1.367,5.016,4.406c0,3.648-1.481,5.775-5.661,5.775
			c-2.964,0-5.699-2.203-5.699-4.521C178.777,101.276,182.272,99.378,185.122,99.378z"/>
		<path style="fill:#FF0000;" d="M198.426,99.378c1.559,0,5.016,1.367,5.016,4.406c0,3.648-1.481,5.775-5.661,5.775
			c-2.964,0-5.699-2.203-5.699-4.521C192.081,101.276,195.577,99.378,198.426,99.378z"/>
		<path style="fill:#FF0000;" d="M211.729,99.378c1.559,0,5.016,1.367,5.016,4.406c0,3.648-1.481,5.775-5.661,5.775
			c-2.964,0-5.699-2.203-5.699-4.521C205.385,101.276,208.88,99.378,211.729,99.378z"/>
	</g>
</g>
</svg>
