<?xml version="1.0" encoding="iso-8859-1"?>
<!DOCTYPE svg PUBLIC "-//W3C//DTD SVG 1.1//EN" "http://www.w3.org/Graphics/SVG/1.1/DTD/svg11.dtd">
<svg version="1.1" id="Layer_1" xmlns="http://www.w3.org/2000/svg" xmlns:xlink="http://www.w3.org/1999/xlink" x="0px" y="0px" width="100px" height="100px" viewBox="0 0 100 100" style="enable-background:new 0 0 100 100;" xml:space="preserve">
<g>
	<linearGradient id="SVGID_1_" gradientUnits="userSpaceOnUse" x1="43.6133" y1="78.9404" x2="33.6771" y2="67.5137" gradientTransform="matrix(-4.371139e-08 -1 1 -4.371139e-08 -2.0073 100.2788)">
		<stop  offset="0" style="stop-color:#bbb"/>
		<stop  offset="0.1088" style="stop-color:#ccc"/>
		<stop  offset="0.735" style="stop-color:#ddd"/>
		<stop  offset="1" style="stop-color:#eee"/>
	</linearGradient>
	<path style="fill:url(#SVGID_1_);" d="M58.841,92.884L50.636,78.02l13.49,11.205l9.976-8.006l-4.605-8.836l8.12,5.622l5.666-5.728 L69.274,58.608c0,0,16.266,11.168,16.737,10.626c8.252-9.563,11.488-16.53,11.488-16.53c-13.031-3.798-26.952-12.577-26.952-12.577 L38.441,72.235l16.376,23.151L58.841,92.884z"/>
	<path style="fill:#8C6239;" d="M69.595,36.418c0,0.453-0.174,0.905-0.519,1.251L36.536,70.211 c-0.332,0.332-0.782,0.519-1.251,0.519c-0.47,0-0.92-0.187-1.251-0.519l-9.012-9.012c-0.665-0.664-0.665-1.839,0-2.503 l32.542-32.542c0.332-0.332,0.781-0.518,1.25-0.518c0.471,0,0.92,0.187,1.252,0.518l9.012,9.012 C69.421,35.511,69.595,35.965,69.595,36.418z"/>
	<path style="fill:#8C6239;" d="M69.595,36.418c0,0.453-0.174,0.905-0.519,1.251L36.536,70.211 c-0.332,0.332-0.782,0.519-1.251,0.519c-0.47,0,22.278-44.575,22.278-44.575c0.332-0.332,0.781-0.518,1.25-0.518 c0.471,0,0.92,0.187,1.252,0.518l9.012,9.012C69.421,35.511,69.595,35.965,69.595,36.418z"/>
	<path style="fill:#8C6239;" d="M5.415,7.623C1.269,11.77,1.672,17.844,5.82,21.992C6.208,22.379,34.712,44.93,34.712,44.93 l8.01-8.01c0,0-22.55-28.505-22.938-28.893C15.637,3.88,9.562,3.476,5.415,7.623z"/>
	<path style="fill:#8C6239;" d="M5.292,7.5c-4.147,4.147,33.015,33.835,33.015,33.835l4.415-4.415c0,0-22.611-28.567-23-28.954 C15.576,3.818,9.439,3.353,5.292,7.5z"/>
</g>
</svg>
