<?xml version="1.0" encoding="utf-8"?>
<!DOCTYPE svg PUBLIC "-//W3C//DTD SVG 1.1//EN" "http://www.w3.org/Graphics/SVG/1.1/DTD/svg11.dtd">
<svg xmlns="http://www.w3.org/2000/svg" xmlns:xlink="http://www.w3.org/1999/xlink" version="1.1" id="Layer_1" x="0px" y="0px" width="100px" height="100px" viewBox="0 0 100 100" enable-background="new 0 0 100 100" xml:space="preserve">
<g>	
	<linearGradient id="SVGID_1_" gradientUnits="userSpaceOnUse" x1="42.6006" y1="79.1426" x2="34.6269" y2="69.9729" gradientTransform="matrix(-1 0 0 1 101.7734 -2.7451)">
		<stop offset="0" style="stop-color:#BBBBBB"/>
		<stop offset="0.2868" style="stop-color:#CACACA"/>
		<stop offset="0.6675" style="stop-color:#D8D8D8"/>
		<stop offset="1" style="stop-color:#DDDDDD"/>
	</linearGradient>
	<path fill="url(#SVGID_1_)" d="M89.664,62.987l-13.801-7.619l10.405,12.525l-7.435,9.263l-8.204-4.274l5.22,7.538l-5.318,5.263   L57.838,72.674c0,0,10.371,15.104,9.867,15.541c-8.879,7.664-10.454,5.775-10.454,5.775c-4.874-10.964-13.638-23.067-13.638-23.067   l25.899-25.897L91.501,59.74L89.664,62.987z"/>
	<path fill="#8C6239" d="M39.579,69.36l-6.408-6.411c-0.309-0.307-0.572-0.461-0.572-0.9c0-0.435,0.083-0.59,0.391-0.899   l0.428-0.427l-0.006,0.006c0,0,0.01-0.011,0.024-0.024l0.341-0.339c1.605-1.607,7.183-8.817-1.056-17.058   c0,0-22.344-18.978-22.61-19.242c-4.161-4.162-5.064-9.777-0.904-13.938c4.16-4.162,9.76-3.274,13.92,0.888   c0.266,0.264,19.27,22.616,19.27,22.616c8.204,8.204,15.391,2.721,17.034,1.079l0.386-0.387c0.619-0.617,1.607-0.858,2.223-0.243   l6.411,6.412c0.309,0.308,0.533,0.919,0.533,1.355c0,0.436-0.122,1.047-0.429,1.355L41.762,69.993   c-0.322,0.32-0.671,0.166-1.091,0.166C40.25,70.159,39.9,69.682,39.579,69.36z"/>
	<path fill="#8C6239" d="M39.579,69.36l-6.408-6.411c-0.309-0.307-0.572-0.461-0.572-0.9c0-0.435,0.083-0.59,0.391-0.899   l0.428-0.427l-0.006,0.006c0,0,0.01-0.011,0.024-0.024l0.341-0.339c1.605-1.607,7.183-8.817-1.056-17.058   c0,0-22.344-18.978-22.61-19.242c-7.326-7.66-0.904-13.938-0.904-13.938l46.026,46.396l-13.47,13.47   c-0.322,0.32-0.671,0.166-1.091,0.166C40.25,70.159,39.9,69.682,39.579,69.36z"/>
	<circle fill="#E9E0D6" cx="15.734" cy="16.157" r="3.46"/>
</g>
</svg>
