<?xml version="1.0" encoding="iso-8859-1"?>
<!DOCTYPE svg PUBLIC "-//W3C//DTD SVG 1.1//EN" "http://www.w3.org/Graphics/SVG/1.1/DTD/svg11.dtd">
<svg version="1.1" xmlns="http://www.w3.org/2000/svg" xmlns:xlink="http://www.w3.org/1999/xlink" x="0px" y="0px" width="274.523px" height="140.721px" viewBox="0 0 274.523 140.721" style="enable-background:new 0 0 274.523 140.721;" xml:space="preserve">
<g id="game_x5F_1_x5F_title_x5F_en">
	<g>
		<polygon style="fill:#FF6600;" points="241,140.721 33,140.721 33,134.904 241,136.447 		"/>
		<polygon style="fill:#FF6600;" points="242,5.721 32,5.721 32,0.279 64.008,2.044 242,0.736 		"/>
		<path style="fill:#FF6600;" d="M101.734,22.97l-7.812,26.313h-10.69l-4.283-10.655l-4.644,10.655h-9.971L57.604,22.97l11.734-0.36
			l1.764,13.175l4.644-13.175h7.127l5.327,13.175l1.765-13.175L101.734,22.97z"/>
		<path style="fill:#FF6600;" d="M116.102,49.354l0.217-10.114l-5.832,0.396l0.216,9.503l-8.639,0.216l0.433-26.421l7.343-0.611
			l0.216,9.467l6.264,0.216l0.216-9.071l7.127-0.611l1.08,26.816L116.102,49.354z"/>
		<path style="fill:#FF6600;" d="M151.679,49.283h-9.286l-0.648-4.32l-5.615,0.217l-1.296,4.318l-9.719,0.217l7.775-26.133
			l10.366-0.648L151.679,49.283z M140.88,39.996l-2.375-6.912l-1.729,7.127L140.88,39.996z"/>
		<path style="fill:#FF6600;" d="M170.273,22.538v7.127l-6.047,0.216l0.432,19.438l-10.366,0.217l1.296-19.799l-5.184,0.072
			l-0.216-7.343L170.273,22.538z"/>
		<path style="fill:#FF6600;" d="M182.586,22.861l9.071-0.647l0.864,26.997l-10.367,0.215L182.586,22.861z"/>
		<path style="fill:#FF6600;" d="M215.157,31.789c-2.483-1.045-4.428-1.404-5.831-1.404c-1.98,0-2.952,0.684-2.952,1.26
			c0,3.455,9.827,3.312,9.827,10.691c0,6.73-6.516,7.307-12.599,7.307c-4.212,0-6.947-0.611-8.927-1.296v-9.358
			c1.691,0.539,5.003,1.403,7.199,1.403c1.26,0,2.123-0.288,2.123-1.044c0-2.627-9.683-2.699-9.683-10.763
			c0-5.039,5.04-6.731,10.835-6.731c3.743,0,7.487,0.721,10.727,1.692L215.157,31.789z"/>
		<path style="fill:#FF6600;" d="M14.038,85.354l0.216-10.114l-5.831,0.396l0.216,9.503L0,85.354l0.432-26.421l7.344-0.611
			l0.216,9.467l6.263,0.216l0.217-9.071l7.127-0.611l1.08,26.816L14.038,85.354z"/>
		<path style="fill:#FF6600;" d="M25.475,58.861l9.07-0.647l0.864,26.997l-10.367,0.215L25.475,58.861z"/>
		<path style="fill:#FF6600;" d="M38.354,85.066l-0.72-26.457C50.376,57.17,62.975,60.41,62.975,71.82
			C62.975,82.835,54.84,86.866,38.354,85.066z M52.284,71.461c0-2.557-2.592-4.393-4.787-4.032v9.179
			C51.492,76.572,52.645,74.016,52.284,71.461z"/>
		<path style="fill:#FF6600;" d="M64.979,58.861l9.071-0.647l0.864,26.997l-10.367,0.215L64.979,58.861z"/>
		<path style="fill:#FF6600;" d="M77.535,58.718l9.791,0.072l7.487,13.966l-0.648-13.75l7.991-0.072l-0.647,26.492l-10.871-0.071
			l-5.327-11.878l0.864,11.878l-8.855,0.216L77.535,58.718z"/>
		<path style="fill:#FF6600;" d="M131.697,84.814c-13.21,1.26-27.86,2.052-27.86-12.454c0-10.835,10.942-15.046,22.138-14.074
			l-0.721,8.603c-5.723-1.08-8.459,2.016-8.459,4.932c0,5.543,5.76,5.291,8.1,4.031l-0.72-5.363l8.242-0.359L131.697,84.814z"/>
		<path style="fill:#FF6600;" d="M162.766,85.858l-0.324-2.052c-1.691,1.367-3.383,2.412-6.442,2.412
			c-16.378,0-10.871-27.32-10.871-27.32l8.603-0.36c-0.035,3.96-2.195,17.602,3.672,17.602c5.688,0,3.239-12.851,3.023-16.918
			l8.927-0.684l1.009,26.96L162.766,85.858z"/>
		<path style="fill:#FF6600;" d="M173.003,58.718l9.791,0.072l7.487,13.966l-0.648-13.75l7.991-0.072l-0.647,26.492l-10.871-0.071
			l-5.327-11.878l0.864,11.878l-8.855,0.216L173.003,58.718z"/>
		<path style="fill:#FF6600;" d="M200.68,85.066l-0.72-26.457c12.742-1.439,25.341,1.801,25.341,13.211
			C225.301,82.835,217.166,86.866,200.68,85.066z M214.61,71.461c0-2.557-2.592-4.393-4.787-4.032v9.179
			C213.818,76.572,214.971,74.016,214.61,71.461z"/>
		<path style="fill:#FF6600;" d="M248.845,58.646l-0.647,8.098l-7.344,0.217l-0.432,3.527l7.127-0.396l0.432,5.4l-7.99-0.217
			l-0.217,3.564l8.207-0.433l-0.432,6.479l-20.518,0.396V58.861L248.845,58.646z"/>
		<path style="fill:#FF6600;" d="M268.152,74.88l6.371,9.898l-9.395,1.009l-4.392-8.567l0.575,8.135l-10.438-0.071l0.433-26.422
			l3.455-0.863c14.47-1.729,16.198,5.399,16.198,10.799C270.96,71.28,269.556,73.512,268.152,74.88z M263.185,67.933
			c0-3.888-4.104-3.456-4.104-3.456v6.912C259.081,71.389,263.185,72.036,263.185,67.933z"/>
		<path style="fill:#FF6600;" d="M76.448,94.538v7.127l-6.047,0.216l0.432,19.438l-10.366,0.217l1.295-19.799l-5.183,0.072
			l-0.216-7.343L76.448,94.538z"/>
		<path style="fill:#FF6600;" d="M91.147,121.354l0.216-10.114l-5.831,0.396l0.216,9.503l-8.639,0.216l0.432-26.421l7.344-0.611
			l0.216,9.467l6.263,0.216l0.217-9.071l7.127-0.611l1.08,26.816L91.147,121.354z"/>
		<path style="fill:#FF6600;" d="M124.047,94.646l-0.648,8.098l-7.343,0.217l-0.432,3.527l7.127-0.396l0.432,5.4l-7.99-0.217
			l-0.217,3.564l8.207-0.433l-0.432,6.479l-20.518,0.396V94.861L124.047,94.646z"/>
		<path style="fill:#FF6600;" d="M156.015,112.068l0.396,9.502c-6.3,0.721-20.842,1.044-20.446-13.715
			c0.396-14.793,19.654-13.75,19.654-13.75v9.143C146.368,102.889,146.476,113.832,156.015,112.068z"/>
		<path style="fill:#FF6600;" d="M159.109,94.861l9.07-0.647l0.864,26.997l-10.367,0.215L159.109,94.861z"/>
		<path style="fill:#FF6600;" d="M189.864,94.538v7.127l-6.047,0.216l0.432,19.438l-10.366,0.217l1.295-19.799l-5.183,0.072
			l-0.216-7.343L189.864,94.538z"/>
		<path style="fill:#FF6600;" d="M201.997,94.826l2.304,10.51l3.312-10.51l10.366,0.216l-8.423,16.63l0.217,9.791l-12.311-0.072
			l0.432-8.423l-8.207-18.142H201.997z"/>
	</g>
</g>
</svg>
