<?xml version="1.0" encoding="utf-8"?>
<!DOCTYPE svg PUBLIC "-//W3C//DTD SVG 1.1//EN" "http://www.w3.org/Graphics/SVG/1.1/DTD/svg11.dtd">
<svg xmlns="http://www.w3.org/2000/svg" xmlns:xlink="http://www.w3.org/1999/xlink" version="1.1" id="Layer_1" x="0px" y="0px" width="236.357px" height="140.721px" viewBox="0 0 236.357 140.721" enable-background="new 0 0 236.357 140.721" xml:space="preserve">
<g id="game_x5F_1_x5F_title_x5F_gr">
	<g>
		<polygon fill="#FF6600" points="50.002,21.755 50.002,48.354 62.924,48.24 60.741,39.604 65.732,48.147 77.071,48.24     68.084,35.007 75.141,21.696 65.398,21.662 60.906,30.37 62.218,21.459   "/>
		<polygon fill="#FF6600" points="19.883,58.531 19.883,85.129 32.805,85.014 30.623,76.379 36.614,84.922 47.953,85.014     37.965,71.781 45.022,58.471 35.28,58.437 30.788,67.145 32.099,58.234   "/>
		<polygon fill="#FF6600" points="184.036,56.608 164.62,56.753 162.724,85.094 171.661,85.102 172.353,68.01 177.321,68.01     178.093,85.393 186.547,85.414   "/>
		<path fill="#FF6600" d="M216.028,20.107l-10.575,0.544l-7.694,26.571l9.659-0.178l1.416-4.367l5.617-0.235l0.641,4.252h9.544    L216.028,20.107z M209.542,37.455l1.762-7.126l2.407,6.966L209.542,37.455z"/>
		<path fill="#FF6600" d="M151.745,57.527l-10.575,0.544l-7.693,26.571l9.658-0.178l1.416-4.367l5.617-0.234l0.642,4.253h9.543    L151.745,57.527z M145.259,74.875l1.762-7.126l2.408,6.966L145.259,74.875z"/>
		<path fill="#FF6600" d="M65.222,58.124l-10.575,0.544L46.953,85.24l9.659-0.179l1.416-4.367l5.618-0.234l0.64,4.253h9.543    L65.222,58.124z M58.736,75.472l1.761-7.126l2.409,6.965L58.736,75.472z"/>
		<polygon fill="#FF6600" points="152.586,21.299 152.64,49.084 173.491,48.559 173.932,41.783 165.546,42.363 165.693,38.502     173.932,38.829 173.491,33.023 166.295,33.544 166.68,29.851 174.076,29.494 174.672,20.906   "/>
		<polygon fill="#FF6600" points="24.288,22.222 33.4,21.638 34.319,49.11 23.895,49.358   "/>
		<polygon fill="#FF6600" points="227.789,20.918 235.492,20.369 236.357,46.255 227.419,46.488   "/>
		<polygon fill="#FF6600" points="60.651,122.352 59.7,93.9 52.334,94.506 52.194,104.174 45.925,104.035 45.586,93.9     38.219,94.506 37.812,122.611 46.537,122.352 46.2,112.287 52.081,111.988 51.927,122.611   "/>
		<polygon fill="#FF6600" points="212.053,122.352 211.102,93.9 203.735,94.506 203.596,104.174 197.326,104.035 196.987,93.9     189.62,94.506 189.213,122.611 197.938,122.352 197.602,112.287 203.482,111.988 203.328,122.611   "/>
		<polygon fill="#FF6600" points="0,22.023 0.16,29.542 5.417,29.074 4.028,49.902 14.635,49.717 14.235,28.927 20.424,28.772     20.266,21.399   "/>
		<polygon fill="#FF6600" points="72.479,58.054 72.639,65.573 77.896,65.105 76.507,85.933 87.114,85.748 86.714,64.958     92.903,64.803 92.745,57.43   "/>
		<polygon fill="#FF6600" points="14.636,94.525 14.796,102.043 21.053,101.576 19.664,122.404 29.271,122.219 28.871,101.428     35.06,101.273 34.901,93.9   "/>
		<polygon fill="#FF6600" points="178.935,21.18 178.935,29.574 184.044,29.36 182.671,47.943 193.212,47.943 192.179,29.36     197.913,29.36 197.913,20.999   "/>
		<polygon fill="#FF6600" points="97.651,20.906 106.006,39.424 105.478,48.037 117.989,48.367 117.728,38.113 126.337,21.205     115.795,21.075 112.044,31.233 110.196,20.906   "/>
		<path fill="#FF6600" d="M119.726,77.676l-6.898-0.101c2.473-1.666,3.966-4.575,3.52-8.896c-0.627-6.07-3.965-11.664-9.9-11.613    c-8.639,0.076-11.878,6.038-12.134,12.133c-0.155,3.647,0.909,6.441,3.691,8.16l-5.415-0.078l0.248,8.426l27.473-0.92    L119.726,77.676z M106.467,65.492c1.907,0.085,3.392,1.737,3.306,3.706c-0.08,1.957-1.694,3.474-3.603,3.388    c-1.904-0.082-3.378-1.739-3.3-3.703C102.955,66.927,104.567,65.407,106.467,65.492z"/>
		<polygon fill="#FF6600" points="64.761,122.848 72.523,122.573 71.767,110.666 77.767,121.58 88.084,121.994 87.731,93.211     80.588,93.66 81.23,107.252 71.8,93.498 63.72,93.178   "/>
		<path fill="#FF6600" d="M217.263,70.917c-0.814-6.625-5.146-12.729-12.854-12.672c-11.215,0.082-15.423,6.588-15.757,13.237    c-0.333,6.656,3.7,14.009,15.312,14.289C211.676,85.959,218.275,79.123,217.263,70.917 M204.082,74.58    c-2.084-0.078-3.709-1.607-3.617-3.414c0.092-1.806,1.861-3.205,3.946-3.126c2.09,0.075,3.715,1.604,3.621,3.414    C207.94,73.258,206.173,74.654,204.082,74.58"/>
		<polygon fill="#FF6600" points="125.713,93.568 106.296,93.713 104.4,122.055 113.337,122.062 114.029,104.971 118.998,104.971     119.77,122.354 128.223,122.375   "/>
		<path fill="#FF6600" d="M157.939,107.877c-0.814-6.625-5.146-12.729-12.855-12.673c-11.215,0.082-15.422,6.588-15.756,13.238    c-0.334,6.656,3.699,14.009,15.312,14.289C152.352,122.92,158.951,116.084,157.939,107.877 M144.758,111.539    c-2.084-0.078-3.709-1.605-3.616-3.414c0.092-1.806,1.86-3.203,3.946-3.125c2.091,0.074,3.716,1.604,3.621,3.414    C148.617,110.219,146.85,111.613,144.758,111.539"/>
		<polygon fill="#FF6600" points="166.944,121.852 170.511,112.539 170.511,112.539 171.547,109.604 172.881,113.693     175.89,121.936 186.475,122.021 175.392,95.402 167.861,95.543 156.396,121.781   "/>
		<path fill="#FF6600" d="M98.385,31.255c-0.156-5.421-1.831-12.579-16.581-10.9l-3.338,0.861L77.99,48.314l12.102,0.519    l-0.749-8.17C89.343,40.662,98.6,38.667,98.385,31.255z M86,33.995V34v-7c0,0,4.25-0.5,4.25,3.5S86,33.995,86,33.995z"/>
		<path fill="#FF6600" d="M146.553,34.734c1.895-1.337,2.938-3.201,2.821-5.861c-0.483-11.333-18.44-7.025-20.342-7.213    l-0.542,10.795l0.142,15.387c0,0,21.823,5.164,21.252-7.438C149.77,37.855,148.316,36.049,146.553,34.734z M137.1,27.756    c0,0,2.746-0.395,3.116,1.885c0.474,2.901-2.912,2.727-2.912,2.727L137.1,27.756z M137.715,41.682l-0.166-3.781    c0,0,4.031-1.313,4.146,1.842C141.774,42.012,137.715,41.682,137.715,41.682z"/>
		<polygon fill="#FF6600" points="228,140.721 12,140.721 12,134.904 228,136.448   "/>
		<polygon fill="#FF6600" points="224,5.721 14,5.721 14,0.279 46.007,2.044 224,0.736   "/>
	</g>
</g>
<g>
	<path fill="#FF6600" d="M222.409,99.833c1.476,0,4.751,1.296,4.751,4.176c0,3.455-1.403,5.471-5.363,5.471   c-2.808,0-5.399-2.087-5.399-4.283C216.397,101.633,219.709,99.833,222.409,99.833z M222.409,112.504   c1.476,0,4.751,0.936,4.751,4.895c0,4.716-2.844,9.18-5.939,12.887l-4.679-2.052c0.288-0.072,2.447-3.924,3.06-6.839   c-2.52-0.072-3.204-2.124-3.204-3.527C216.397,114.304,219.709,112.504,222.409,112.504z"/>
</g>
</svg>
