<?xml version="1.0" encoding="utf-8"?>
<!DOCTYPE svg PUBLIC "-//W3C//DTD SVG 1.1//EN" "http://www.w3.org/Graphics/SVG/1.1/DTD/svg11.dtd">
<svg xmlns="http://www.w3.org/2000/svg" xmlns:xlink="http://www.w3.org/1999/xlink" version="1.1" id="Layer_1" x="0px" y="0px" width="274.523px" height="140.721px" viewBox="0 0 274.523 140.721" enable-background="new 0 0 274.523 140.721" xml:space="preserve">
<g id="game_x5F_1_x5F_title_x5F_en">
	<g>
		<polygon fill="#FF6600" points="241,140.721 33,140.721 33,134.904 241,136.448   "/>
		<polygon fill="#FF6600" points="242,5.721 32,5.721 32,0.279 64.008,2.044 242,0.736   "/>
		<path fill="#FF6600" d="M101.734,22.97l-7.812,26.313H83.232l-4.283-10.655l-4.644,10.655h-9.972L57.604,22.97l11.733-0.36    l1.765,13.176l4.644-13.176h7.127L88.2,35.785l1.765-13.176L101.734,22.97z"/>
		<path fill="#FF6600" d="M116.102,49.354l0.217-10.113l-5.832,0.396l0.216,9.503l-8.639,0.216l0.433-26.421l7.343-0.61l0.217,9.467    l6.264,0.216l0.216-9.071l7.127-0.61l1.08,26.815L116.102,49.354z"/>
		<path fill="#FF6600" d="M151.679,49.283h-9.286l-0.648-4.32l-5.615,0.217l-1.296,4.318l-9.719,0.217l7.775-26.133l10.365-0.648    L151.679,49.283z M140.88,39.996l-2.375-6.912l-1.729,7.127L140.88,39.996z"/>
		<path fill="#FF6600" d="M170.273,22.538v7.127l-6.047,0.216l0.432,19.438l-10.366,0.218l1.296-19.8l-5.184,0.072l-0.216-7.343    L170.273,22.538z"/>
		<path fill="#FF6600" d="M182.586,22.861l9.071-0.646l0.864,26.997l-10.367,0.215L182.586,22.861z"/>
		<path fill="#FF6600" d="M215.157,31.789c-2.483-1.045-4.428-1.404-5.831-1.404c-1.979,0-2.952,0.684-2.952,1.26    c0,3.455,9.827,3.312,9.827,10.691c0,6.729-6.516,7.307-12.599,7.307c-4.212,0-6.947-0.61-8.928-1.296V38.99    c1.691,0.538,5.004,1.402,7.199,1.402c1.26,0,2.123-0.288,2.123-1.044c0-2.627-9.683-2.699-9.683-10.763    c0-5.039,5.04-6.731,10.835-6.731c3.743,0,7.487,0.722,10.727,1.692L215.157,31.789z"/>
		<path fill="#FF6600" d="M14.038,85.354l0.216-10.113l-5.831,0.396l0.217,9.503L0,85.354l0.433-26.421l7.344-0.61l0.216,9.467    l6.263,0.216l0.218-9.071l7.127-0.61l1.08,26.815L14.038,85.354z"/>
		<path fill="#FF6600" d="M25.475,58.861l9.069-0.646l0.864,26.997l-10.367,0.215L25.475,58.861z"/>
		<path fill="#FF6600" d="M38.354,85.066l-0.721-26.457C50.376,57.17,62.975,60.41,62.975,71.82    C62.975,82.835,54.84,86.866,38.354,85.066z M52.284,71.461c0-2.558-2.592-4.394-4.787-4.032v9.179    C51.492,76.573,52.645,74.016,52.284,71.461z"/>
		<path fill="#FF6600" d="M64.979,58.861l9.07-0.646l0.864,26.997l-10.367,0.215L64.979,58.861z"/>
		<path fill="#FF6600" d="M77.535,58.718l9.791,0.072l7.487,13.966l-0.648-13.75l7.991-0.072l-0.647,26.492l-10.87-0.071    l-5.327-11.878l0.863,11.878l-8.854,0.216L77.535,58.718z"/>
		<path fill="#FF6600" d="M131.697,84.814c-13.21,1.261-27.86,2.053-27.86-12.454c0-10.835,10.942-15.046,22.139-14.073    l-0.722,8.603c-5.723-1.08-8.459,2.017-8.459,4.932c0,5.544,5.761,5.291,8.101,4.031l-0.721-5.362l8.242-0.359L131.697,84.814z"/>
		<path fill="#FF6600" d="M162.766,85.858l-0.324-2.052c-1.691,1.367-3.383,2.412-6.442,2.412c-16.378,0-10.871-27.32-10.871-27.32    l8.604-0.359c-0.035,3.96-2.195,17.602,3.672,17.602c5.688,0,3.239-12.851,3.022-16.918l8.928-0.684l1.009,26.96L162.766,85.858z"/>
		<path fill="#FF6600" d="M173.003,58.718l9.791,0.072l7.487,13.966l-0.648-13.75l7.991-0.072l-0.646,26.492l-10.871-0.071    l-5.327-11.878l0.864,11.878l-8.855,0.216L173.003,58.718z"/>
		<path fill="#FF6600" d="M200.68,85.066l-0.721-26.457c12.742-1.438,25.341,1.802,25.341,13.211    C225.301,82.835,217.166,86.866,200.68,85.066z M214.61,71.461c0-2.558-2.592-4.394-4.787-4.032v9.179    C213.818,76.573,214.971,74.016,214.61,71.461z"/>
		<path fill="#FF6600" d="M248.845,58.646l-0.647,8.099l-7.344,0.217l-0.433,3.527l7.127-0.396l0.433,5.4l-7.99-0.218l-0.217,3.564    l8.207-0.433l-0.433,6.479l-20.518,0.396V58.861L248.845,58.646z"/>
		<path fill="#FF6600" d="M268.152,74.88l6.371,9.897l-9.396,1.01l-4.392-8.567l0.575,8.135l-10.438-0.07l0.434-26.423l3.455-0.862    c14.47-1.729,16.197,5.398,16.197,10.799C270.96,71.281,269.556,73.512,268.152,74.88z M263.185,67.933    c0-3.888-4.104-3.456-4.104-3.456v6.912C259.081,71.389,263.185,72.036,263.185,67.933z"/>
		<path fill="#FF6600" d="M71.448,94.538v7.127l-6.047,0.216l0.432,19.438l-10.366,0.218l1.296-19.8l-5.184,0.072l-0.216-7.343    L71.448,94.538z"/>
		<path fill="#FF6600" d="M86.147,121.354l0.216-10.113l-5.831,0.396l0.216,9.503l-8.639,0.216l0.432-26.421l7.345-0.61l0.216,9.467    l6.263,0.216l0.217-9.071l7.127-0.61l1.08,26.815L86.147,121.354z"/>
		<path fill="#FF6600" d="M119.047,94.646l-0.647,8.099l-7.343,0.217l-0.433,3.527l7.127-0.396l0.433,5.4l-7.99-0.218l-0.217,3.564    l8.207-0.433l-0.433,6.479l-20.518,0.396V94.861L119.047,94.646z"/>
		<path fill="#FF6600" d="M151.015,112.068l0.396,9.502c-6.3,0.722-20.842,1.045-20.446-13.715    c0.396-14.793,19.654-13.75,19.654-13.75v9.144C141.368,102.889,141.476,113.832,151.015,112.068z"/>
		<path fill="#FF6600" d="M154.109,94.861l9.07-0.646l0.863,26.997l-10.367,0.215L154.109,94.861z"/>
		<path fill="#FF6600" d="M184.864,94.538v7.127l-6.047,0.216l0.432,19.438l-10.366,0.218l1.296-19.8l-5.184,0.072l-0.216-7.343    L184.864,94.538z"/>
		<path fill="#FF6600" d="M196.997,94.826l2.304,10.51l3.312-10.51l10.366,0.216l-8.423,16.63l0.217,9.791l-12.312-0.072    l0.433-8.423l-8.207-18.142H196.997z"/>
	</g>
</g>
<g>
	<path fill="#FF6600" d="M214.479,94.973c10.079-1.62,13.03,2.052,13.03,6.551c0,3.636-5.471,8.747-5.327,12.599l-5.363,0.36   c-0.108-3.852,0.756-5.724,2.231-9.323c1.404-3.384-2.411-4.031-4.931-2.88L214.479,94.973z M219.663,122.041   c-2.376-0.216-3.239-1.079-3.023-2.808c0-1.548,0.863-3.239,3.239-3.239c1.512,0,2.412,1.476,2.592,3.239   C222.686,121.178,221.39,122.041,219.663,122.041z"/>
</g>
</svg>
