<?xml version="1.0" encoding="iso-8859-1"?>
<!DOCTYPE svg PUBLIC "-//W3C//DTD SVG 1.1//EN" "http://www.w3.org/Graphics/SVG/1.1/DTD/svg11.dtd">
<svg version="1.1" id="Layer_1" xmlns="http://www.w3.org/2000/svg" xmlns:xlink="http://www.w3.org/1999/xlink" x="0px" y="0px" width="100px" height="100px" viewBox="0 0 100 100" style="enable-background:new 0 0 100 100;" xml:space="preserve">
<g>
	<path style="fill:#eeeeee;" d="M81.604,5.011c-2.592-5.017-13.742-2.566-17.811-1.593c-6.267,1.5-12.837,3.579-18.459,6.698 c-4.92,2.73-8.945,6.41-12.075,11.087c0,0-1.83,4.217-4.562,6.949c-2.732,2.732-6.949,4.562-6.949,4.562 c-4.678,3.13-8.357,7.155-11.087,12.075C7.54,50.413,5.461,56.983,3.961,63.249c-0.975,4.069-3.424,15.219,1.592,17.812 c2.524,1.306,3.431-1.409,4.474-3.248c5.7-10.051,11.938-20.539,21.303-27.656c2.355-1.789,3.017-1.444,5.631-0.41 c0,0,1.624,0.634,2.506-0.247c0.881-0.881,5.287-5.288,5.287-5.288s4.406-4.406,5.288-5.288c0.882-0.881,0.248-2.505,0.248-2.505 c-1.036-2.615-1.38-3.276,0.408-5.631c7.119-9.365,17.607-15.604,27.656-21.304C80.193,8.441,82.909,7.535,81.604,5.011z"/>
	<path style="fill:#E6E6E6;" d="M81.604,5.011c-2.592-5.017-13.742-2.566-17.811-1.593c-6.267,1.5-12.837,3.579-18.459,6.698 c-4.92,2.73-8.945,6.41-12.075,11.087c0,0-24.274,58.448-23.23,56.609c5.7-10.051,11.938-20.539,21.303-27.656 c2.355-1.789,3.017-1.444,5.631-0.41c0,0,1.624,0.634,2.506-0.247c0.881-0.881,5.287-5.288,5.287-5.288s4.406-4.406,5.288-5.288 c0.882-0.881,0.248-2.505,0.248-2.505c-1.036-2.615-1.38-3.276,0.408-5.631c7.119-9.365,17.607-15.604,27.656-21.304 C80.193,8.441,82.909,7.535,81.604,5.011z"/>
	<path style="fill:#B3B3B3;" d="M81.604,5.011c-2.592-5.017-13.797-2.774-17.811-1.593c-23.794,7.007-14.632,36.388-13.75,35.506 c0.882-0.881-1.132-5.782,0.656-8.136c7.119-9.365,17.607-15.604,27.656-21.304C80.193,8.441,82.909,7.535,81.604,5.011z"/>
	<path style="fill:#8C6239;" d="M28.325,18.723L19.876,10.2l-0.096,0.133c-2.908-1.954-6.879-1.632-9.449,0.938 c-2.569,2.569-2.873,6.551-0.92,9.458L9.31,20.834l8.45,8.463L28.325,18.723z"/>
	<path style="fill:#8C6239;" d="M9.411,20.729L9.31,20.834l8.45,8.463l5.191-5.195C22.951,24.103,7.458,17.822,9.411,20.729z"/>
	<path style="fill:#8C6239;" d="M94.43,79.541l0.011-0.011l-0.098-0.085C94.3,79.4,52.669,43.046,52.669,43.046L42.093,53.621 c0,0,35.875,41.161,36.264,41.552c0.044,0.042,0.09,0.078,0.133,0.119l0.088,0.101l0.011-0.012 c4.395,4.16,11.325,4.099,15.631-0.208C98.526,90.866,98.589,83.936,94.43,79.541z"/>
	<path style="fill:#8C6239;" d="M47.463,48.251l-5.37,5.37c0,0,35.875,41.161,36.264,41.552c0.044,0.042,0.09,0.078,0.133,0.119 l0.088,0.101l0.011-0.012c4.395,4.16,11.325,4.099,15.631-0.208C98.526,90.866,47.463,48.251,47.463,48.251z"/>
</g>
</svg>
