<?xml version="1.0" encoding="iso-8859-1"?>
<!DOCTYPE svg PUBLIC "-//W3C//DTD SVG 1.1//EN" "http://www.w3.org/Graphics/SVG/1.1/DTD/svg11.dtd">
<svg version="1.1" id="Layer_1" xmlns="http://www.w3.org/2000/svg" xmlns:xlink="http://www.w3.org/1999/xlink" x="0px" y="0px" width="40px" height="40px" viewBox="0 0 40 40" style="enable-background:new 0 0 40 40;" xml:space="preserve">
	<path style="fill:#00CC66;" d="M5.5,15v10H14l8.5,7V8L14,15H5.5z M25.877,18.156c-1.019,0-1.844,0.825-1.844,1.844	s0.825,1.844,1.844,1.844s1.844-0.825,1.844-1.844S26.896,18.156,25.877,18.156z M29.462,15.414l-1.414,1.414 c0.841,0.841,1.305,1.959,1.305,3.148s-0.464,2.308-1.305,3.148l1.414,1.414c1.219-1.219,1.891-2.839,1.891-4.562 S30.681,16.633,29.462,15.414z M32.093,12.507l-1.414,1.415c1.597,1.597,2.477,3.719,2.477,5.978c0,2.258-0.88,4.38-2.477,5.977 l1.414,1.414c1.975-1.974,3.062-4.599,3.062-7.391C35.155,17.106,34.067,14.481,32.093,12.507z"/>
</svg>
