<?xml version="1.0" encoding="iso-8859-1"?>
<!DOCTYPE svg PUBLIC "-//W3C//DTD SVG 1.1//EN" "http://www.w3.org/Graphics/SVG/1.1/DTD/svg11.dtd">
<svg version="1.1" xmlns="http://www.w3.org/2000/svg" xmlns:xlink="http://www.w3.org/1999/xlink" x="0px" y="0px" width="300.722px" height="68.138px" viewBox="0 0 300.722 68.138" style="enable-background:new 0 0 300.722 68.138;" xml:space="preserve">
<g id="correct_x5F_gr">
	<g>
		<polygon style="fill:#00CC66;" points="288.609,35.981 300.722,36.398 297.641,58.87 289.216,59.118 		"/>
		<path style="fill:#00CC66;" d="M296.396,65.269c-0.17-1.639-1.071-3.149-2.675-3.136c-2.333,0.021-3.208,1.631-3.277,3.276
			c-0.07,1.647,0.77,2.656,3.186,2.727C295.232,68.182,296.605,67.3,296.396,65.269"/>
		<path style="fill:#00CC66;" d="M184.86,48.437c0-7.575-4.814-9.935-10.294-9.581l-0.019-2.806l-7.833,0.396l0.007,2.818
			c-8.11,0.098-11.094,3.932-11.094,9.612c0,6.319,3.751,12.485,10.423,11.225l-0.214,5.362h9.024l-0.062-5.867
			C180.379,59.528,184.86,56.361,184.86,48.437z M166.249,53.258c-1.787-0.188-3.261-1.899-3.162-3.812
			c0.097-1.848,1.875-3.625,3.44-3.493L166.249,53.258z M174.731,52.597l-0.096-6.896c2.201-0.256,3.372,1.143,3.259,3.301
			C177.79,50.933,177.337,52.06,174.731,52.597z"/>
		<polygon style="fill:#00CC66;" points="59.936,39.104 59.936,65.704 72.857,65.589 70.675,56.954 76.666,65.497 88.005,65.589 
			78.018,52.356 85.074,39.046 75.332,39.012 70.84,47.72 72.151,38.809 		"/>
		<path style="fill:#00CC66;" d="M105.274,38.698l-10.575,0.545l-7.694,26.57l9.659-0.178l1.416-4.367l5.618-0.234l0.64,4.252h9.543
			L105.274,38.698z M98.788,56.046l1.761-7.126l2.409,6.966L98.788,56.046z"/>
		<path style="fill:#00CC66;" d="M37.124,38.698l-10.575,0.545l-7.694,26.57l9.659-0.178l1.416-4.367l5.618-0.234l0.64,4.252h9.543
			L37.124,38.698z M30.638,56.046l1.761-7.126l2.409,6.966L30.638,56.046z"/>
		<polygon style="fill:#00CC66;" points="186.546,38.364 186.6,66.149 207.451,65.624 207.892,58.849 199.506,59.429 
			199.653,55.567 207.892,55.895 207.451,50.089 200.255,50.609 200.64,46.916 208.036,46.559 208.632,37.971 		"/>
		<polygon style="fill:#00CC66;" points="234.573,37.561 234.627,65.346 255.479,64.82 255.919,58.045 247.533,58.625 
			247.681,54.764 255.919,55.091 255.479,49.285 248.282,49.806 248.667,46.112 256.063,45.755 256.659,37.167 		"/>
		<polygon style="fill:#00CC66;" points="0,38.629 0.16,46.147 6.417,45.681 5.028,66.508 14.635,66.323 14.235,45.532 
			20.424,45.378 20.266,38.005 		"/>
		<path style="fill:#00CC66;" d="M149.005,38.502l-10.574,0.545l-7.695,26.57l9.66-0.178l1.416-4.367l5.617-0.234l0.641,4.252h9.543
			L149.005,38.502z M142.519,55.85l1.762-7.126l2.408,6.966L142.519,55.85z"/>
		<polygon style="fill:#00CC66;" points="111.882,38.433 112.042,45.951 118.298,45.484 116.909,66.312 126.517,66.127 
			126.116,45.336 132.306,45.182 132.147,37.809 		"/>
		<polygon style="fill:#00CC66;" points="282.01,45.772 282.01,36.428 259.688,36.708 259.433,43.948 266.443,51.888 
			259.232,57.716 259.553,65.424 282.01,66.085 282.01,56.741 269.08,56.888 274.332,51.113 270.361,44.977 		"/>
		<path style="fill:#00CC66;" d="M232.351,48.042c-0.157-5.421-1.832-12.579-16.582-10.899l-3.337,0.861l-0.476,27.098l12.102,0.518
			l-0.749-8.17C223.309,57.449,232.565,55.454,232.351,48.042z M220,50.782v0.005v-7c0,0,4.25-0.5,4.25,3.5S220,50.782,220,50.782z"
			/>
		<path style="fill:#00CC66;" d="M170.81,0.846L160.234,1.39l-7.694,26.571l9.659-0.178l1.416-4.367l5.618-0.235l0.64,4.253h9.543
			L170.81,0.846z M164.323,18.193l1.761-7.127l2.409,6.966L164.323,18.193z"/>
		<path style="fill:#00CC66;" d="M235.683,13.31c-0.814-6.624-5.145-12.729-12.854-12.672c-11.215,0.082-15.424,6.588-15.758,13.238
			c-0.332,6.656,3.701,14.008,15.312,14.289C230.097,28.353,236.696,21.517,235.683,13.31 M222.503,16.973
			c-2.084-0.078-3.709-1.606-3.617-3.414c0.09-1.805,1.861-3.204,3.945-3.126c2.09,0.075,3.715,1.604,3.621,3.414
			C226.36,15.651,224.593,17.047,222.503,16.973"/>
		<polygon style="fill:#00CC66;" points="126.631,0 107.214,0.145 105.317,28.485 114.255,28.493 114.946,11.401 119.916,11.401 
			120.688,28.784 129.142,28.806 		"/>
		<path style="fill:#00CC66;" d="M199.7,14.188c1.894-1.337,2.936-3.202,2.822-5.862c-0.486-11.332-18.441-7.025-20.342-7.213
			l-0.543,10.795l0.143,15.387c0,0,21.822,5.164,21.25-7.437C202.915,17.309,201.464,15.503,199.7,14.188z M190.247,7.21
			c0,0,2.745-0.395,3.117,1.885c0.473,2.9-2.914,2.726-2.914,2.726L190.247,7.21z M190.862,21.136l-0.168-3.781
			c0,0,4.031-1.314,4.145,1.841C194.921,21.466,190.862,21.136,190.862,21.136z"/>
		<path style="fill:#00CC66;" d="M152.536,11.189c-0.156-5.422-1.832-12.579-16.582-10.9l-3.337,0.861l-0.476,27.099l12.102,0.518
			l-0.748-8.17C143.495,20.597,152.751,18.602,152.536,11.189z M141,13.929v0.006v-7c0,0,4.25-0.5,4.25,3.5S141,13.929,141,13.929z"
			/>
		<polygon style="fill:#00CC66;" points="75.211,17.268 81.698,27.056 87.71,17.268 87.486,28.055 100.595,27.971 100.423,1.139 
			86.205,1.054 81.395,9.82 77.653,0.611 65.097,1 64.935,28.063 75.599,28.195 		"/>
	</g>
</g>
</svg>
