<?xml version="1.0" encoding="utf-8"?>
<!-- Generator: Adobe Illustrator 16.0.0, SVG Export Plug-In . SVG Version: 6.00 Build 0)  -->
<!DOCTYPE svg PUBLIC "-//W3C//DTD SVG 1.1//EN" "http://www.w3.org/Graphics/SVG/1.1/DTD/svg11.dtd">
<svg version="1.1" id="Layer_1" xmlns="http://www.w3.org/2000/svg" xmlns:xlink="http://www.w3.org/1999/xlink" x="0px" y="0px"
	 width="329.317px" height="142px" viewBox="0 0 329.317 142" enable-background="new 0 0 329.317 142" xml:space="preserve">
<path fill="#FF6600" d="M141.212,74.578l6.299,0.145l-0.432-5.398l-5.903,0.323l-0.072-5.543l8.206,0.432v-8.64l-8.423,0.216h-4.535
	l-2.592,0.217h-1.296L131.6,83.107h9.719L141.212,74.578z M105.674,28.537l0.648-8.099l-21.814,0.215v26.42l20.518-0.396
	l0.432-6.479l-8.207,0.432l0.217-3.563l7.99,0.216l-0.432-5.399l-7.127,0.396l0.432-3.527L105.674,28.537z M130.065,68.423
	c-0.9-6.73-5.076-12.994-13.03-12.994c-11.232,0-15.406,6.731-15.839,13.426c-0.216,6.947,3.744,14.327,15.406,14.758
	C124.557,83.865,131.144,76.703,130.065,68.423z M116.817,72.202c-2.195-0.216-3.743-1.763-3.743-3.563
	c0.216-1.8,1.98-3.347,3.96-3.132c2.231,0,3.743,1.549,3.743,3.348C120.562,70.871,118.798,72.203,116.817,72.202z M82.063,46.93
	l-1.08-26.816l-7.127,0.611l-0.216,9.072l-6.264-0.217l-0.216-9.467l-7.343,0.611l-0.433,26.422l8.639-0.217l-0.216-9.502
	l5.832-0.396l-0.217,10.115L82.063,46.93z M94.846,114.971l5.615-0.217l0.647,4.32h9.287l-8.423-26.35l-10.366,0.648l-7.775,26.133
	l9.719-0.216L94.846,114.971z M97.221,102.876l2.375,6.911l-4.104,0.216L97.221,102.876z M180.558,56.33l-20.085-0.072l0.216,7.343
	l5.183-0.072l-1.294,19.798l10.366-0.218l-0.432-19.438l6.047-0.215V56.33z M252.904,92.617l-3.312,10.511l-2.305-10.511h-12.31
	l8.207,18.143l-0.433,8.422l12.312,0.072l-0.217-9.791l8.423-16.629L252.904,92.617z M234.334,119.218l0.646-26.493l-7.99,0.072
	l0.647,13.75l-7.487-13.965l-9.791-0.072l-0.215,26.852l8.855-0.215l-0.864-11.879l5.327,11.879L234.334,119.218z M166.211,105.611
	c0-11.41-12.6-14.65-25.341-13.211l0.72,26.457C158.076,120.658,166.211,116.627,166.211,105.611z M150.734,101.221
	c2.195-0.361,4.787,1.475,4.787,4.031c0.36,2.557-0.792,5.111-4.787,5.146V101.221z M128.989,92.33l-20.085-0.072l0.216,7.344
	l5.183-0.072l-1.295,19.798l10.366-0.218l-0.432-19.438l6.047-0.215V92.33z M83.188,100.537l0.647-8.1l-21.814,0.215v26.421
	l20.518-0.396l0.432-6.479l-8.207,0.432l0.217-3.563l7.99,0.217l-0.432-5.399l-7.127,0.396l0.432-3.526L83.188,100.537z
	 M167.784,119.218l10.367-0.216l-0.863-26.996l-9.07,0.646L167.784,119.218z M28.292,109.643c-2.34,1.26-8.1,1.512-8.1-4.031
	c0-2.914,2.736-6.01,8.459-4.932l0.721-8.602c-11.196-0.973-22.138,3.238-22.138,14.074c0,14.506,14.65,13.713,27.86,12.453
	l0.72-14.685l-8.242,0.358L28.292,109.643z M59,136.279V142h210v-5.264l-177.993,1.308L59,136.279z M61.331,118.57l-6.371-9.898
	c1.403-1.367,2.808-3.6,2.807-6.083c0-5.399-1.728-12.526-16.198-10.799l-3.456,0.864l-0.432,26.421l10.438,0.071l-0.575-8.135
	l4.391,8.566L61.331,118.57z M45.888,105.18v-6.91c0,0,4.104-0.434,4.104,3.455C49.992,105.828,45.889,105.18,45.888,105.18z
	 M44.401,27.528l-1.295,19.798l10.366-0.216L53.04,27.672l6.047-0.215V20.33l-20.085-0.072l0.216,7.342L44.401,27.528z
	 M286.252,92.652l-0.434,26.565l10.367-0.216l-0.863-26.996L286.252,92.652z M274.223,101.436c0-0.574,0.972-1.26,2.951-1.26
	c1.404,0,3.349,0.36,5.832,1.404l0.719-8.242c-3.24-0.972-6.984-1.691-10.727-1.691c-5.795,0-10.836,1.691-10.836,6.73
	c0,8.062,9.684,8.135,9.684,10.762c0,0.756-0.863,1.045-2.123,1.045c-2.196,0-5.508-0.863-7.199-1.404v9.359
	c1.98,0.685,4.715,1.295,8.928,1.295c6.082,0,12.598-0.576,12.598-7.307C284.049,104.748,274.223,104.893,274.223,101.436z
	 M314.776,92.725l-10.367,0.648l-7.775,26.133l9.719-0.216l1.297-4.319l5.615-0.217l0.648,4.32h9.285L314.776,92.725z
	 M308.295,110.003l1.729-7.127l2.375,6.911L308.295,110.003z M269,6V0H59v5.543l177.993-1.308L269,6z M181.219,83.146l8.639-0.217
	l-0.216-9.503l5.831-0.396l-0.217,10.115l8.642-0.217l-1.08-26.815l-7.127,0.611l-0.217,9.072l-6.263-0.217l-0.217-9.467
	l-7.344,0.611L181.219,83.146z M227.292,76.198l-8.207,0.432l0.217-3.563l7.99,0.217l-0.432-5.399l-7.127,0.396l0.432-3.527
	l7.344-0.216l0.648-8.099l-21.814,0.215v26.42l20.518-0.396L227.292,76.198z M194.937,119.613c7.955,0.252,14.542-6.91,13.463-15.19
	c-0.899-6.729-5.075-12.993-13.03-12.993c-11.231,0-15.406,6.73-15.839,13.426C179.315,111.802,183.275,119.182,194.937,119.613z
	 M195.37,101.507c2.23,0,3.742,1.55,3.742,3.349c-0.216,2.016-1.979,3.348-3.96,3.347c-2.194-0.216-3.743-1.763-3.743-3.563
	C191.625,102.839,193.389,101.292,195.37,101.507z M178.468,28.532c1.403,0,3.348,0.36,5.832,1.404l0.72-8.243
	c-3.24-0.972-6.984-1.692-10.728-1.692c-5.795,0-10.835,1.692-10.835,6.731c0,8.063,9.683,8.135,9.683,10.763
	c0,0.756-0.863,1.044-2.123,1.044c-2.196,0-5.508-0.864-7.199-1.404v9.359c1.979,0.684,4.715,1.296,8.927,1.296
	c6.083,0,12.6-0.576,12.6-7.307c0-7.379-9.828-7.235-9.828-10.691C175.516,29.216,176.488,28.532,178.468,28.532z M208.926,21.009
	l-0.433,26.564l10.367-0.216l-0.864-26.997L208.926,21.009z M206.692,20.685l-20.085-0.072l0.216,7.343l5.184-0.072l-1.296,19.798
	l10.366-0.216l-0.432-19.438l6.047-0.216V20.685z M292.875,40.914l-7.847,0.072l0.792-20.193l-12.455,0.216V47.43l19.078-0.036
	L292.875,40.914z M161.187,28.892l0.647-8.099l-21.813,0.216V47.43l20.518-0.396l0.432-6.479l-8.207,0.432l0.217-3.563l7.99,0.216
	l-0.432-5.399l-7.127,0.396l0.432-3.527L161.187,28.892z M240.891,47.43l8.998-26.133h-10.366l-3.96,14.83l-4.895-15.334h-10.367
	l9.431,26.997L240.891,47.43z M263.499,21.081l-10.366,0.648l-7.775,26.133l9.719-0.216l1.296-4.319l5.615-0.216l0.648,4.32h9.286
	L263.499,21.081z M257.019,38.358l1.729-7.127l2.375,6.911L257.019,38.358z M136.348,33.679l-5.903,0.324l-0.072-5.543l8.207,0.432
	v-8.639l-8.423,0.216h-4.535l-2.592,0.216h-1.296l-0.864,26.78h9.719l-0.107-8.531l6.299,0.144L136.348,33.679z"/>
</svg>
