<?xml version="1.0" encoding="iso-8859-1"?>
<!DOCTYPE svg PUBLIC "-//W3C//DTD SVG 1.1//EN" "http://www.w3.org/Graphics/SVG/1.1/DTD/svg11.dtd">
<svg version="1.1" xmlns="http://www.w3.org/2000/svg" xmlns:xlink="http://www.w3.org/1999/xlink" x="0px" y="0px" width="329.317px" height="142px" viewBox="0 0 329.317 142" style="enable-background:new 0 0 329.317 142;" xml:space="preserve">
<g id="game_x5F_2_x5F_title_x5F_en">
	<g>
		<polygon style="fill:#FF6600;" points="269,142 59,142 59,136.279 91.008,138.044 269,136.736 		"/>
		<polygon style="fill:#FF6600;" points="59,0 269,0 269,6 236.992,4.235 59,5.543 		"/>
		<path style="fill:#FF6600;" d="M20.085,20.33v7.127l-6.047,0.215l0.432,19.438L4.104,47.326l1.295-19.798l-5.183,0.072L0,20.258
			L20.085,20.33z"/>
		<path style="fill:#FF6600;" d="M34.42,47.146l0.217-10.115l-5.832,0.396l0.216,9.502l-8.639,0.217l0.433-26.422l7.343-0.611
			l0.216,9.467l6.264,0.217l0.216-9.072l7.127-0.611l1.08,26.816L34.42,47.146z"/>
		<path style="fill:#FF6600;" d="M67.32,20.438l-0.648,8.099l-7.343,0.216l-0.432,3.527l7.127-0.396l0.432,5.399l-7.99-0.216
			l-0.217,3.563l8.207-0.432l-0.432,6.479l-20.518,0.396V20.653L67.32,20.438z"/>
		<path style="fill:#FF6600;" d="M99.287,37.859l0.396,9.502c-6.3,0.721-20.842,1.045-20.446-13.714
			c0.396-14.794,19.654-13.75,19.654-13.75v9.143C89.641,28.68,89.748,39.623,99.287,37.859z"/>
		<path style="fill:#FF6600;" d="M123.825,20.438l-0.647,8.099l-7.344,0.216l-0.432,3.527l7.127-0.396l0.432,5.399l-7.99-0.216
			l-0.217,3.563l8.207-0.432l-0.432,6.479l-20.518,0.396V20.653L123.825,20.438z"/>
		<path style="fill:#FF6600;" d="M138.435,20.438l-0.792,20.193l7.847-0.072l-0.432,6.479l-19.078,0.036V20.653L138.435,20.438z"/>
		<path style="fill:#FF6600;" d="M168.173,20.438l-0.647,8.099l-7.344,0.216l-0.432,3.527l7.127-0.396l0.432,5.399l-7.99-0.216
			l-0.217,3.563l8.207-0.432l-0.432,6.479l-20.518,0.396V20.653L168.173,20.438z"/>
		<path style="fill:#FF6600;" d="M191.216,38.975c0.648,12.311-20.949,7.127-20.949,7.127V30.984l0.433-10.583
			c1.943,0.216,19.653-4.104,20.085,7.127c0.216,2.592-0.864,4.536-2.808,5.831C189.704,34.656,191.216,36.383,191.216,38.975z
			 M178.905,30.984c0,0,3.24,0.216,2.808-2.809c-0.216-2.159-3.023-1.727-3.023-1.727L178.905,30.984z M183.226,38.327
			c-0.217-3.239-4.104-1.944-4.104-1.944l0.216,3.672C179.338,40.055,183.226,40.486,183.226,38.327z"/>
		<path style="fill:#FF6600;" d="M210.229,36.672l6.371,9.898l-9.395,1.008l-4.392-8.566l0.575,8.135l-10.438-0.072l0.433-26.421
			l3.455-0.864c14.47-1.728,16.198,5.4,16.198,10.799C213.036,33.072,211.632,35.304,210.229,36.672z M205.261,29.725
			c0-3.889-4.104-3.456-4.104-3.456v6.911C201.157,33.18,205.261,33.828,205.261,29.725z"/>
		<path style="fill:#FF6600;" d="M242.864,47.074h-9.286l-0.648-4.32l-5.615,0.217l-1.296,4.319l-9.719,0.216l7.775-26.133
			l10.366-0.648L242.864,47.074z M232.065,37.787l-2.375-6.911l-1.729,7.127L232.065,37.787z"/>
		<path style="fill:#FF6600;" d="M261.459,20.33v7.127l-6.047,0.215l0.432,19.438l-10.366,0.217l1.296-19.798l-5.184,0.072
			l-0.216-7.343L261.459,20.33z"/>
		<path style="fill:#FF6600;" d="M262.551,20.653l9.071-0.647l0.864,26.996l-10.367,0.216L262.551,20.653z"/>
		<path style="fill:#FF6600;" d="M289.271,47.613c-11.662-0.432-15.622-7.811-15.406-14.758c0.433-6.695,4.607-13.426,15.839-13.426
			c7.954,0,12.13,6.264,13.03,12.994C303.813,40.703,297.227,47.865,289.271,47.613z M293.447,32.855
			c0-1.799-1.512-3.348-3.743-3.348c-1.98-0.215-3.744,1.332-3.96,3.132c0,1.8,1.548,3.348,3.743,3.563
			C291.468,36.203,293.231,34.871,293.447,32.855z"/>
		<path style="fill:#FF6600;" d="M304.696,20.51l9.791,0.072l7.487,13.965l-0.648-13.75l7.991-0.072l-0.647,26.493l-10.871-0.071
			l-5.327-11.879l0.864,11.879l-8.855,0.215L304.696,20.51z"/>
		<path style="fill:#FF6600;" d="M116.602,83.613c-11.662-0.432-15.622-7.811-15.406-14.758c0.433-6.695,4.607-13.426,15.839-13.426
			c7.954,0,12.13,6.264,13.03,12.994C131.144,76.703,124.557,83.865,116.602,83.613z M120.777,68.855
			c0-1.799-1.512-3.348-3.743-3.348c-1.98-0.215-3.744,1.332-3.96,3.132c0,1.8,1.548,3.348,3.743,3.563
			C118.798,72.203,120.562,70.871,120.777,68.855z"/>
		<path style="fill:#FF6600;" d="M149.311,64.536l-8.207-0.432l0.072,5.543l5.903-0.323l0.432,5.398l-6.299-0.144l0.107,8.53h-9.719
			l0.864-26.779h1.296l2.592-0.217h4.535l8.423-0.216V64.536z"/>
		<path style="fill:#FF6600;" d="M180.558,56.33v7.127l-6.047,0.215l0.432,19.438l-10.366,0.217l1.295-19.798l-5.183,0.072
			l-0.216-7.343L180.558,56.33z"/>
		<path style="fill:#FF6600;" d="M195.257,83.146l0.216-10.115l-5.831,0.396l0.216,9.502l-8.639,0.217l0.432-26.422l7.344-0.611
			l0.216,9.467l6.263,0.217l0.217-9.072l7.127-0.611l1.08,26.816L195.257,83.146z"/>
		<path style="fill:#FF6600;" d="M228.156,56.438l-0.648,8.099l-7.343,0.216l-0.432,3.527l7.127-0.396l0.432,5.399l-7.99-0.216
			l-0.217,3.563l8.207-0.432l-0.432,6.479l-20.518,0.396V56.653L228.156,56.438z"/>
		<path style="fill:#FF6600;" d="M35.094,118.605c-13.21,1.26-27.86,2.053-27.86-12.453c0-10.836,10.942-15.047,22.138-14.074
			l-0.721,8.602c-5.723-1.079-8.459,2.017-8.459,4.932c0,5.543,5.76,5.291,8.1,4.031l-0.72-5.363l8.242-0.359L35.094,118.605z"/>
		<path style="fill:#FF6600;" d="M54.96,108.672l6.371,9.898l-9.396,1.008l-4.391-8.566l0.575,8.135l-10.438-0.072l0.432-26.421
			l3.456-0.864c14.47-1.728,16.198,5.4,16.198,10.799C57.768,105.072,56.363,107.304,54.96,108.672z M49.992,101.725
			c0-3.889-4.104-3.456-4.104-3.456v6.911C45.889,105.18,49.992,105.828,49.992,101.725z"/>
		<path style="fill:#FF6600;" d="M83.835,92.438l-0.647,8.099l-7.344,0.216l-0.432,3.527l7.127-0.396l0.432,5.399l-7.99-0.216
			l-0.217,3.563l8.207-0.432l-0.432,6.479l-20.518,0.396V92.653L83.835,92.438z"/>
		<path style="fill:#FF6600;" d="M110.395,119.074h-9.287l-0.647-4.32l-5.615,0.217l-1.296,4.319l-9.719,0.216l7.775-26.133
			l10.366-0.648L110.395,119.074z M99.596,109.787l-2.375-6.911l-1.729,7.127L99.596,109.787z"/>
		<path style="fill:#FF6600;" d="M128.989,92.33v7.127l-6.047,0.215l0.432,19.438l-10.366,0.217l1.295-19.798l-5.183,0.072
			l-0.216-7.343L128.989,92.33z"/>
		<path style="fill:#FF6600;" d="M141.59,118.857l-0.72-26.456c12.742-1.44,25.341,1.8,25.341,13.21
			C166.211,116.627,158.076,120.658,141.59,118.857z M155.521,105.252c0-2.556-2.592-4.392-4.787-4.031v9.178
			C154.729,110.363,155.881,107.808,155.521,105.252z"/>
		<path style="fill:#FF6600;" d="M168.217,92.653l9.07-0.647l0.864,26.996l-10.367,0.216L168.217,92.653z"/>
		<path style="fill:#FF6600;" d="M194.937,119.613c-11.662-0.432-15.622-7.811-15.406-14.758
			c0.433-6.695,4.607-13.426,15.839-13.426c7.955,0,12.13,6.264,13.03,12.994C209.479,112.703,202.892,119.865,194.937,119.613z
			 M199.112,104.855c0-1.799-1.512-3.348-3.743-3.348c-1.98-0.215-3.744,1.332-3.96,3.132c0,1.8,1.548,3.348,3.743,3.563
			C197.133,108.203,198.896,106.871,199.112,104.855z"/>
		<path style="fill:#FF6600;" d="M210.36,92.51l9.791,0.072l7.487,13.965l-0.648-13.75l7.991-0.072l-0.647,26.493l-10.871-0.071
			l-5.327-11.879L219,119.146l-8.855,0.215L210.36,92.51z"/>
		<path style="fill:#FF6600;" d="M247.288,92.617l2.304,10.511l3.312-10.511l10.366,0.217l-8.423,16.629l0.217,9.791l-12.311-0.072
			l0.432-8.422l-8.207-18.143H247.288z"/>
		<path style="fill:#FF6600;" d="M283.006,101.58c-2.483-1.044-4.428-1.404-5.831-1.404c-1.98,0-2.952,0.685-2.952,1.26
			c0,3.456,9.827,3.312,9.827,10.691c0,6.73-6.516,7.307-12.599,7.307c-4.212,0-6.947-0.611-8.927-1.295v-9.359
			c1.691,0.54,5.003,1.404,7.199,1.404c1.26,0,2.123-0.289,2.123-1.045c0-2.627-9.683-2.699-9.683-10.762
			c0-5.039,5.04-6.731,10.835-6.731c3.743,0,7.487,0.72,10.727,1.692L283.006,101.58z"/>
		<path style="fill:#FF6600;" d="M286.252,92.653l9.07-0.647l0.864,26.996l-10.367,0.216L286.252,92.653z"/>
		<path style="fill:#FF6600;" d="M323.198,119.074h-9.286l-0.648-4.32l-5.615,0.217l-1.296,4.319l-9.719,0.216l7.775-26.133
			l10.366-0.648L323.198,119.074z M312.399,109.787l-2.375-6.911l-1.729,7.127L312.399,109.787z"/>
	</g>
</g>
</svg>
