<?xml version="1.0" encoding="iso-8859-1"?>
<!DOCTYPE svg PUBLIC "-//W3C//DTD SVG 1.1//EN" "http://www.w3.org/Graphics/SVG/1.1/DTD/svg11.dtd">
<svg version="1.1" xmlns="http://www.w3.org/2000/svg" xmlns:xlink="http://www.w3.org/1999/xlink" x="0px" y="0px" width="281.536px" height="142px" viewBox="0 0 281.536 142" style="enable-background:new 0 0 281.536 142;" xml:space="preserve">
<g id="game_x5F_2_x5F_title_x5F_gr">
	<g>
		<polygon style="fill:#FF6600;" points="57.408,93.582 66.521,92.998 67.439,120.47 57.016,120.718 		"/>
		<polygon style="fill:#FF6600;" points="186.381,94.191 195.494,93.607 196.412,121.079 185.988,121.327 		"/>
		<polygon style="fill:#FF6600;" points="181.238,101.232 181.238,91.888 158.916,92.168 158.661,99.408 165.672,107.348 
			158.461,113.176 158.781,120.884 181.238,121.545 181.238,112.201 168.309,112.348 173.561,106.573 169.59,100.437 		"/>
		<path style="fill-rule:evenodd;clip-rule:evenodd;fill:#FF6600;" d="M45.578,93.289l-11.163,0.876l-7.592,26.293l27.676,0.429
			L45.578,93.289z M37.849,113.459l2.514-9.091l3.027,8.781L37.849,113.459z"/>
		<polygon style="fill:#FF6600;" points="102.49,121.693 110.253,121.418 109.496,109.512 115.496,120.426 125.813,120.84 
			125.461,92.057 118.317,92.504 118.96,106.096 109.529,92.344 101.449,92.023 		"/>
		<polygon style="fill:#FF6600;" points="233.104,119.966 239.963,119.722 239.295,109.202 244.596,118.845 253.711,119.211 
			253.4,93.778 247.088,94.175 247.656,106.185 239.324,94.032 232.184,93.749 		"/>
		<polygon style="fill:#FF6600;" points="128.153,92.736 136.507,111.254 135.979,119.867 148.49,120.197 148.229,109.943 
			156.838,93.035 146.297,92.905 142.545,103.063 140.698,92.736 		"/>
		<path style="fill:#FF6600;" d="M227.168,113.146l-6.898-0.101c2.473-1.666,3.965-4.575,3.518-8.896
			c-0.627-6.069-3.963-11.663-9.9-11.612c-8.639,0.076-11.877,6.038-12.133,12.132c-0.156,3.648,0.908,6.442,3.691,8.161
			l-5.414-0.079l0.248,8.426l27.471-0.92L227.168,113.146z M213.909,100.963c1.907,0.084,3.391,1.738,3.305,3.705
			c-0.08,1.957-1.694,3.475-3.602,3.389c-1.905-0.082-3.378-1.738-3.3-3.703C210.396,102.398,212.009,100.877,213.909,100.963z"/>
		<path style="fill:#FF6600;" d="M98.294,105.373C97.48,98.749,93.15,92.645,85.44,92.701c-11.215,0.082-15.423,6.588-15.757,13.238
			c-0.333,6.656,3.7,14.008,15.312,14.289C92.708,120.416,99.307,113.58,98.294,105.373 M85.114,109.037
			c-2.084-0.078-3.709-1.607-3.617-3.414c0.091-1.805,1.861-3.205,3.946-3.127c2.09,0.076,3.715,1.604,3.621,3.414
			C88.972,107.715,87.205,109.111,85.114,109.037"/>
		<polygon style="fill:#FF6600;" points="246,142 36,142 36,136.279 68.008,138.044 246,136.736 		"/>
		<polygon style="fill:#FF6600;" points="36,0 246,0 246,6 213.993,4.235 36,5.543 		"/>
		<polygon style="fill:#FF6600;" points="231.218,46.037 230.267,17.586 222.9,18.19 222.761,27.859 216.491,27.721 216.152,17.586 
			208.785,18.19 208.378,46.296 217.104,46.037 216.767,35.973 222.647,35.674 222.493,46.296 		"/>
		<polygon style="fill:#FF6600;" points="74.156,46.051 73.205,17.6 65.838,18.205 65.699,27.874 59.429,27.735 59.09,17.6 
			51.723,18.205 51.316,46.31 60.042,46.051 59.705,35.987 65.585,35.688 65.431,46.31 		"/>
		<polygon style="fill:#FF6600;" points="114.366,20.01 123.479,19.426 124.397,46.898 113.973,47.146 		"/>
		<polygon style="fill:#FF6600;" points="184.369,18.65 184.369,27.044 189.479,26.83 188.105,45.413 198.646,45.413 197.613,26.83 
			203.348,26.83 203.348,18.469 		"/>
		<path style="fill:#FF6600;" d="M156.359,31.848c-0.814-6.625-5.145-12.729-12.854-12.672
			c-11.215,0.082-15.423,6.588-15.757,13.239c-0.333,6.656,3.7,14.008,15.312,14.289C150.772,46.891,157.372,40.055,156.359,31.848
			 M143.179,35.511c-2.084-0.078-3.709-1.606-3.617-3.414c0.091-1.805,1.861-3.204,3.946-3.126c2.09,0.075,3.715,1.604,3.621,3.414
			C147.037,34.189,145.27,35.585,143.179,35.511"/>
		<path style="fill:#FF6600;" d="M181.076,28.618c-0.156-5.421-1.832-12.579-16.582-10.9l-3.336,0.861l-0.477,27.098l12.102,0.518
			l-0.748-8.17C172.035,38.025,181.291,36.03,181.076,28.618z M169,31.357v0.005v-7c0,0,4.25-0.5,4.25,3.5S169,31.357,169,31.357z"
			/>
		<polygon style="fill:#FF6600;" points="110.668,18.8 102.182,18.962 102.18,18.8 97.487,19.054 94.892,19.103 94.894,19.192 
			93.636,19.204 92.718,46.391 102.484,46.391 102.27,27.067 110.668,27.564 		"/>
		<polygon style="fill:#FF6600;" points="102.426,72.864 108.914,82.652 114.925,72.864 114.702,83.651 127.81,83.567 
			127.638,56.735 113.42,56.65 108.61,65.417 104.869,56.208 92.312,56.597 92.15,83.66 102.814,83.792 		"/>
		<polygon style="fill:#FF6600;" points="52.248,84.159 59.107,83.915 58.438,73.396 63.739,83.038 72.855,83.405 72.544,57.972 
			66.232,58.369 66.8,70.379 58.467,58.226 51.328,57.943 		"/>
		<polygon style="fill:#FF6600;" points="260.929,81.16 267.788,80.916 267.119,70.396 272.42,80.039 281.536,80.405 
			281.226,54.973 274.913,55.369 275.481,67.379 267.148,55.227 260.009,54.943 		"/>
		<path style="fill:#FF6600;" d="M191.57,55.278l-10.574,0.544l-7.695,26.571l9.66-0.178l1.416-4.367l5.617-0.235l0.641,4.253h9.543
			L191.57,55.278z M185.084,72.626l1.762-7.127l2.408,6.966L185.084,72.626z"/>
		<polygon style="fill:#FF6600;" points="132.489,56.355 132.542,84.141 153.395,83.615 153.834,76.84 145.449,77.42 
			145.596,73.559 153.834,73.886 153.395,68.08 146.197,68.601 146.582,64.908 153.979,64.55 154.574,55.962 		"/>
		<polygon style="fill:#FF6600;" points="0,57.423 0.16,64.942 5.417,64.475 4.028,85.302 14.635,85.117 14.235,64.327 
			20.424,64.173 20.266,56.8 		"/>
		<path style="fill:#FF6600;" d="M48.479,76.341l-6.898-0.101c2.473-1.666,3.966-4.574,3.519-8.895
			c-0.627-6.07-3.964-11.664-9.9-11.613c-8.639,0.076-11.878,6.038-12.134,12.132c-0.155,3.648,0.909,6.442,3.692,8.161
			l-5.415-0.079l0.248,8.426l27.472-0.92L48.479,76.341z M35.221,64.157c1.907,0.085,3.391,1.738,3.305,3.706
			c-0.08,1.956-1.694,3.474-3.602,3.389c-1.905-0.082-3.378-1.74-3.3-3.704C31.708,65.592,33.321,64.072,35.221,64.157z"/>
		<path style="fill:#FF6600;" d="M257.597,74.341l-6.898-0.101c2.473-1.666,3.966-4.575,3.519-8.895
			c-0.627-6.07-3.964-11.664-9.9-11.613c-8.639,0.076-11.878,6.038-12.134,12.132c-0.155,3.648,0.909,6.442,3.692,8.161
			l-5.415-0.079l0.248,8.426l27.472-0.92L257.597,74.341z M244.338,62.157c1.908,0.085,3.391,1.738,3.305,3.706
			c-0.08,1.956-1.693,3.474-3.602,3.388c-1.904-0.082-3.377-1.739-3.299-3.703C240.826,63.592,242.438,62.072,244.338,62.157z"/>
		<polygon style="fill-rule:evenodd;clip-rule:evenodd;fill:#FF6600;" points="210.033,81.974 213.6,72.663 213.6,72.663 
			214.637,69.726 215.971,73.815 218.979,82.058 229.564,82.144 218.48,55.526 210.951,55.667 199.486,81.903 		"/>
		<polygon style="fill:#FF6600;" points="175.341,55.256 166.854,55.418 166.852,55.256 162.16,55.51 159.564,55.559 
			159.566,55.649 159.309,55.661 158.391,82.848 167.156,82.848 166.942,63.523 175.341,64.021 		"/>
	</g>
</g>
</svg>
