<?xml version="1.0" encoding="iso-8859-1"?>
<!DOCTYPE svg PUBLIC "-//W3C//DTD SVG 1.1//EN" "http://www.w3.org/Graphics/SVG/1.1/DTD/svg11.dtd">
<svg version="1.1" xmlns="http://www.w3.org/2000/svg" xmlns:xlink="http://www.w3.org/1999/xlink" x="0px" y="0px" width="240.786px" height="110.618px" viewBox="0 0 240.786 110.618" style="enable-background:new 0 0 240.786 110.618;" xml:space="preserve">
<g id="wrong_x5F_gr">
	<g>
		<polygon style="fill:#FF0000;" points="228.674,78.463 240.786,78.879 237.705,101.351 229.28,101.599 		"/>
		<path style="fill:#FF0000;" d="M236.46,107.749c-0.17-1.639-1.071-3.15-2.675-3.137c-2.333,0.021-3.208,1.631-3.277,3.277
			c-0.07,1.646,0.77,2.656,3.186,2.727C235.297,110.661,236.67,109.78,236.46,107.749"/>
		<path style="fill:#FF0000;" d="M124.925,90.917c0-7.576-4.814-9.935-10.294-9.581l-0.019-2.805l-7.833,0.395l0.007,2.817
			c-8.11,0.098-11.094,3.932-11.094,9.612c0,6.319,3.751,12.485,10.423,11.225l-0.214,5.362h9.024l-0.062-5.867
			C120.443,102.009,124.925,98.841,124.925,90.917z M106.313,95.737c-1.787-0.188-3.261-1.899-3.162-3.812
			c0.097-1.848,1.875-3.625,3.44-3.492L106.313,95.737z M114.796,95.076l-0.096-6.896c2.201-0.256,3.372,1.143,3.259,3.301
			C117.854,93.413,117.401,94.54,114.796,95.076z"/>
		<polygon style="fill:#FF0000;" points="0,81.584 0,108.184 12.922,108.068 10.739,99.434 16.73,107.977 28.069,108.068 
			18.082,94.836 25.139,81.525 15.396,81.491 10.904,90.199 12.216,81.289 		"/>
		<path style="fill:#FF0000;" d="M45.339,81.18l-10.575,0.543l-7.694,26.571l9.659-0.178l1.416-4.367l5.618-0.235l0.64,4.253h9.543
			L45.339,81.18z M38.853,98.526l1.761-7.127l2.409,6.966L38.853,98.526z"/>
		<polygon style="fill:#FF0000;" points="126.61,80.845 126.664,108.629 147.516,108.104 147.956,101.328 139.57,101.908 
			139.718,98.047 147.956,98.374 147.516,92.568 140.319,93.089 140.704,89.396 148.101,89.038 148.696,80.451 		"/>
		<polygon style="fill:#FF0000;" points="174.638,80.041 174.691,107.825 195.543,107.3 195.983,100.524 187.598,101.104 
			187.745,97.243 195.983,97.57 195.543,91.765 188.347,92.285 188.731,88.593 196.128,88.235 196.724,79.647 		"/>
		<path style="fill:#FF0000;" d="M89.069,80.982l-10.574,0.544l-7.695,26.57l9.66-0.178l1.416-4.367l5.617-0.234l0.641,4.252h9.543
			L89.069,80.982z M82.583,98.329l1.762-7.126l2.408,6.966L82.583,98.329z"/>
		<polygon style="fill:#FF0000;" points="51.946,80.913 52.106,88.431 58.362,87.964 56.974,108.791 66.581,108.606 66.181,87.815 
			72.37,87.661 72.212,80.289 		"/>
		<polygon style="fill:#FF0000;" points="222.074,88.252 222.074,78.908 199.752,79.188 199.497,86.428 206.508,94.367 
			199.297,100.195 199.617,107.903 222.074,108.564 222.074,99.221 209.145,99.367 214.396,93.593 210.426,87.456 		"/>
		<path style="fill:#FF0000;" d="M172.082,90.522c-0.157-5.422-1.832-12.579-16.582-10.899l-3.337,0.861l-0.476,27.097l12.102,0.518
			l-0.749-8.17C163.04,99.929,172.297,97.935,172.082,90.522z M160,93.262v0.005v-7c0,0,4.25-0.5,4.25,3.5S160,93.262,160,93.262z"
			/>
		<path style="fill:#FF0000;" d="M179.146,40.485L168.57,41.03l-7.694,26.568l9.659-0.178l1.416-4.367l5.618-0.234l0.64,4.252h9.543
			L179.146,40.485z M172.659,57.832l1.761-7.126l2.409,6.966L172.659,57.832z"/>
		<polygon style="fill:#FF0000;" points="142.021,40.416 142.182,47.934 148.438,47.467 147.05,68.293 156.656,68.108 
			156.257,47.318 162.445,47.164 162.287,39.792 		"/>
		<path style="fill-rule:evenodd;clip-rule:evenodd;fill:#FF0000;" d="M71.789,41.729l-11.164,0.876l-7.592,26.292l27.676,0.429
			L71.789,41.729z M64.061,61.898l2.514-9.09l3.027,8.78L64.061,61.898z"/>
		<polygon style="fill:#FF0000;" points="107.82,68.15 114.68,67.906 114.011,57.388 119.312,67.029 128.428,67.396 128.117,41.964 
			121.805,42.36 122.373,54.37 114.04,42.218 106.9,41.935 		"/>
		<polygon style="fill:#FF0000;" points="81.658,41.348 81.712,69.132 102.563,68.606 103.004,61.831 94.618,62.411 94.766,58.551 
			103.004,58.878 102.563,53.072 95.367,53.593 95.752,49.9 103.148,49.543 103.744,40.955 		"/>
		<polygon style="fill:#FF0000;" points="36.242,2.097 44.597,20.614 44.068,29.227 56.58,29.557 56.318,19.304 64.928,2.396 
			54.386,2.266 50.635,12.424 48.787,2.097 		"/>
		<polygon style="fill:#FF0000;" points="113.767,2.097 122.121,20.614 121.593,29.227 134.104,29.557 133.843,19.304 
			142.452,2.396 131.91,2.266 128.159,12.424 126.312,2.097 		"/>
		<polygon style="fill:#FF0000;" points="88.705,10.344 88.705,1 66.383,1.28 66.129,8.52 73.139,16.459 65.928,22.286 
			66.248,29.994 88.705,30.655 88.705,21.312 75.775,21.458 81.027,15.685 77.057,9.548 		"/>
		<polygon style="fill:#FF0000;" points="228.22,9.344 228.22,0 205.897,0.28 205.644,7.52 212.653,15.459 205.442,21.287 
			205.763,28.994 228.22,29.655 228.22,20.312 215.29,20.459 220.542,14.685 216.571,8.548 		"/>
		<path style="fill-rule:evenodd;clip-rule:evenodd;fill:#FF0000;" d="M31.321,2.028L20.157,2.904l-7.592,26.292l27.677,0.429
			L31.321,2.028z M23.593,22.197l2.514-9.09l3.027,8.78L23.593,22.197z"/>
		<polygon style="fill:#FF0000;" points="175.489,29.004 165.428,16.165 174.058,2.699 161.302,2.735 156.602,9.625 153.428,2.258 
			140.883,2.972 150.289,15.712 141.838,29.004 155.708,29.396 158.517,22.566 162.646,29.359 		"/>
		<polygon style="fill:#FF0000;" points="92.657,2.537 92.657,10.931 97.767,10.717 96.394,29.299 106.935,29.299 105.901,10.717 
			111.636,10.717 111.636,2.355 		"/>
		<path style="fill:#FF0000;" d="M202.5,21.116l-6.898-0.101c2.473-1.666,3.965-4.574,3.518-8.895
			c-0.627-6.07-3.963-11.663-9.9-11.612c-8.639,0.076-11.877,6.037-12.133,12.132c-0.156,3.647,0.908,6.441,3.691,8.16l-5.414-0.079
			l0.248,8.425l27.471-0.92L202.5,21.116z M189.241,8.932c1.907,0.086,3.391,1.738,3.305,3.707c-0.08,1.955-1.694,3.474-3.602,3.389
			c-1.905-0.082-3.378-1.74-3.3-3.703C185.729,10.367,187.341,8.848,189.241,8.932z"/>
	</g>
</g>
</svg>
