<?xml version="1.0" encoding="utf-8"?>
<!DOCTYPE svg PUBLIC "-//W3C//DTD SVG 1.1//EN" "http://www.w3.org/Graphics/SVG/1.1/DTD/svg11.dtd">
<svg version="1.1" id="Layer_1" xmlns="http://www.w3.org/2000/svg" xmlns:xlink="http://www.w3.org/1999/xlink" x="0px" y="0px"
	 width="70px" height="70px" viewBox="0 0 70 70" enable-background="new 0 0 70 70" xml:space="preserve">
<path fill="#ffffff" d="M60.463,33.583c-1.006-4.193-3.604-10.515-10.23-17.082c-0.127-0.184-1.451-2.053-1.451-2.98
	c0-0.928,0.361-1.799,1.018-2.455c0.655-0.656,1.527-1.017,2.454-1.017s1.8,0.361,2.455,1.017c1.474,1.474,3.862,1.474,5.336,0
	s1.474-3.862,0-5.336c-2.081-2.081-4.849-3.228-7.791-3.228s-5.71,1.142-7.791,3.223C42.741,7.446,41.663,9,41.339,12H28.652
	c-0.324-3-1.403-4.554-3.123-6.273c-2.081-2.081-4.848-3.225-7.791-3.225c-2.943,0-5.71,1.147-7.792,3.229
	c-1.473,1.473-1.473,3.863,0,5.336c1.474,1.474,3.863,1.474,5.336,0c0.656-0.655,1.528-1.017,2.455-1.017
	c0.927,0,1.799,0.361,2.454,1.018c0.656,0.656,1.018,1.527,1.018,2.455c0,0.927-1.386,2.872-1.532,3.1
	C7.931,28.311,8.641,39.289,8.958,41.645c0.159,13.305,12.387,25.854,25.926,25.854c11.849,0,22.859-9.607,25.534-20.92
	c0.384-1.615,0.597-3.27,0.617-4.934C61.188,40.551,61.428,37.607,60.463,33.583z M44.137,21.313
	c0.012,0.012,0.188,0.022,0.199,0.034l0.025,0.058c10.25,9.846,9.473,19.792,9.459,19.938l-0.309,0.008
	C53.005,46.955,48,51.186,43,53.455V20.408C43,20.722,43.848,21.024,44.137,21.313z M41.424,15C41.529,15,41,16.699,41,17.246
	v36.899c0,0.404-2,0.709-3,0.906V15H41.424z M36,15v39h2.234c-0.551,1-1.098,0.693-1.637,0.734
	c-0.426,0.033-0.854-0.213-1.287-0.207C34.149,54.541,32.971,55,31.793,54H32V15H36z M30,54.977c-1-0.219-2-0.533-2-0.941V18.301
	C28,17.434,28.391,16,28.567,15H30V54.977z M20.743,27.016c0.359-0.522,4.64-5.722,4.787-5.568l-0.069-0.072
	c0.023-0.021,0.098-0.04,0.121-0.062C25.708,21.188,26,21.06,26,20.93v32.389c-4-1.422-6.02-3.555-7.944-6.299
	C13.854,41.031,17.048,32.392,20.743,27.016z"/>
</svg>
