<?xml version="1.0" encoding="utf-8"?>
<!DOCTYPE svg PUBLIC "-//W3C//DTD SVG 1.1//EN" "http://www.w3.org/Graphics/SVG/1.1/DTD/svg11.dtd">
<svg version="1.1" id="Layer_1" xmlns="http://www.w3.org/2000/svg" xmlns:xlink="http://www.w3.org/1999/xlink" x="0px" y="0px"
	 width="533.343px" height="156.721px" viewBox="0 0 533.343 156.721" enable-background="new 0 0 533.343 156.721"
	 xml:space="preserve">
<path fill="#FF6600" d="M282.028,132.674l4.9-11.246l4.521,11.246h11.285l8.244-27.773l-12.424-0.38l-1.861,13.905l-5.623-13.905
	h-7.521l-4.901,13.905l-1.862-13.905l-12.386,0.38l7.104,27.773H282.028z M457.421,45.419l-8.662,0.456l0.229-3.763l8.436,0.229
	l-0.457-5.699l-7.521,0.418l0.455-3.724l7.752-0.229l0.684-8.548l-23.025,0.228v27.889l21.656-0.418L457.421,45.419z
	 M326.222,24.445l-21.201-0.074l0.227,7.751l5.473-0.076l-1.367,20.896l10.941-0.229l-0.457-20.518l6.385-0.229V24.445z
	 M399.226,73.108l0.684-8.548l-23.025,0.228v27.889l21.656-0.418l0.457-6.839l-8.664,0.456l0.229-3.763l8.436,0.229l-0.455-5.699
	l-7.523,0.418l0.455-3.724L399.226,73.108z M293.367,92.827l0.684-27.965l-8.436,0.076l0.686,14.515l-7.903-14.742l-10.334-0.076
	l-0.229,28.344l9.347-0.228l-0.912-12.538l5.623,12.538L293.367,92.827z M326.521,133.245c8.396,0.266,15.35-7.295,14.211-16.034
	c-0.951-7.105-5.359-13.716-13.756-13.716c-11.854,0-16.262,7.105-16.717,14.172C310.033,125,314.21,132.789,326.521,133.245z
	 M326.976,114.134c2.355,0,3.951,1.634,3.951,3.533c-0.227,2.128-2.09,3.533-4.18,3.534c-2.316-0.229-3.951-1.862-3.951-3.762
	C323.025,115.539,324.886,113.905,326.976,114.134z M367.423,132.143l-6.727-10.449c1.482-1.442,2.965-3.798,2.963-6.422
	c0-5.698-1.824-13.221-17.098-11.397l-3.646,0.912l-0.457,27.888l11.02,0.076l-0.607-8.587l4.635,9.043L367.423,132.143z
	 M351.123,118.009v-7.295c0,0,4.332-0.456,4.332,3.646C355.455,118.693,351.123,118.009,351.123,118.009z M295.341,72.121
	l5.473-0.076l-1.369,20.896l10.941-0.229l-0.455-20.518l6.385-0.229v-7.522l-21.203-0.074L295.341,72.121z M202.003,104.445
	l-21.202-0.074l0.229,7.751l5.471-0.076l-1.368,20.896l10.942-0.229l-0.455-20.518l6.383-0.229V104.445z M395.15,53.663
	c3.23,0,5.016-1.104,6.803-2.546l0.342,2.166l8.016-0.381l-1.064-28.458l-9.422,0.723c0.227,4.293,2.811,17.856-3.191,17.856
	c-6.193,0-3.914-14.398-3.877-18.579l-9.08,0.381C383.675,24.825,377.863,53.663,395.15,53.663z M226.321,82.948
	c-10.068,1.862-10.182-9.688-0.418-9.311v-9.65c0,0-20.327-1.101-20.745,14.515c-0.418,15.579,14.932,15.237,21.581,14.476
	L226.321,82.948z M226.631,132.525l-1.14-28.307l-7.523,0.646l-0.228,9.573l-6.611-0.228l-0.228-9.993l-7.751,0.646l-0.456,27.889
	l9.119-0.229l-0.229-10.03l6.155-0.418l-0.228,10.677L226.631,132.525z M203.543,64.863l-8.435,0.076l0.685,14.515l-7.903-14.742
	l-10.334-0.076l-0.23,28.344l9.347-0.228l-0.912-12.538l5.623,12.538l11.475,0.076L203.543,64.863z M251.549,113.108l0.684-8.548
	l-23.026,0.229v27.888l21.657-0.418l0.456-6.839l-8.663,0.456l0.228-3.763l8.436,0.229l-0.456-5.699l-7.523,0.418l0.456-3.724
	L251.549,113.108z M264.718,85.419l-8.663,0.456l0.228-3.763l8.436,0.229l-0.456-5.699l-7.523,0.418l0.456-3.724l7.751-0.229
	l0.684-8.548l-23.026,0.228v27.889l21.657-0.418L264.718,85.419z M239.155,64.103l-9.574,0.685l-0.456,28.04l10.942-0.229
	L239.155,64.103z M424.298,45.076c0,0,9.953-2.053,9.727-9.804c0-5.698-1.824-13.221-17.098-11.397l-3.646,0.912l-0.457,27.888
	l12.158,0.076L424.298,45.076z M421.486,38.009v-7.295c0,0,4.332-0.456,4.332,3.646C425.818,38.693,421.486,38.009,421.486,38.009z
	 M426.578,72.121l5.471-0.076l-1.367,20.896l10.941-0.229l-0.455-20.518l6.383-0.229v-7.522l-21.201-0.074L426.578,72.121z
	 M102.327,64.864l-0.228,9.574l-6.611-0.228l-0.228-9.993l-7.751,0.646l-0.456,27.889l9.119-0.229l-0.229-10.03l6.155-0.418
	l-0.228,10.677l9.12-0.227l-1.14-28.307L102.327,64.864z M135.68,85.419l-8.663,0.456l0.228-3.763l8.436,0.229l-0.456-5.699
	l-7.523,0.418l0.456-3.724l7.751-0.229l0.684-8.548l-23.026,0.228v27.889l21.657-0.418L135.68,85.419z M65.387,72.121l5.472-0.076
	l-1.368,20.896l10.942-0.229l-0.456-20.518l6.384-0.229v-7.522L65.159,64.37L65.387,72.121z M44.866,79.453l-7.903-14.742
	l-10.334-0.076L26.4,92.979l9.346-0.228l-0.912-12.538l5.623,12.538l11.475,0.076l0.684-27.965l-8.435,0.076L44.866,79.453z
	 M13.375,64.787l-0.456,28.04l10.942-0.229l-0.912-28.495L13.375,64.787z M134.501,133.245c8.396,0.266,15.35-7.295,14.21-16.034
	c-0.95-7.105-5.358-13.716-13.754-13.716c-11.855,0-16.262,7.105-16.718,14.172C118.012,125,122.19,132.789,134.501,133.245z
	 M134.957,114.134c2.355,0,3.951,1.634,3.951,3.533c-0.227,2.128-2.09,3.533-4.18,3.534c-2.317-0.229-3.951-1.862-3.951-3.762
	C131.005,115.539,132.867,113.905,134.957,114.134z M331.015,23.874l-3.646,0.912l-0.457,27.888l11.02,0.076l-0.607-8.587
	l4.635,9.043l9.918-1.063l-6.727-10.449c1.482-1.442,2.965-3.798,2.963-6.422C348.113,29.573,346.289,22.051,331.015,23.874z
	 M335.576,38.009v-7.295c0,0,4.332-0.456,4.332,3.646C339.908,38.693,335.576,38.009,335.576,38.009z M122,156.721h289v-4.273
	l-289-1.544V156.721z M87.629,48.344l5.928-0.229l0.684,4.56h9.803l-8.891-27.812l-10.942,0.685l-8.207,27.584l10.258-0.228
	L87.629,48.344z M90.138,35.577l2.508,7.295L88.315,43.1L90.138,35.577z M511.382,74.058c0-0.606,1.027-1.33,3.115-1.33
	c1.482,0,3.535,0.379,6.156,1.482l0.76-8.701c-3.42-1.025-7.371-1.785-11.322-1.785c-6.119,0-11.436,1.785-11.436,7.104
	c0,8.51,10.219,8.587,10.219,11.359c0,0.798-0.91,1.103-2.24,1.103c-2.318,0-5.814-0.911-7.6-1.481v9.879
	c2.09,0.722,4.977,1.367,9.422,1.367c6.422,0,13.299-0.608,13.299-7.713C521.755,77.554,511.382,77.705,511.382,74.058z
	 M494.951,75.272c0-5.698-1.826-13.221-17.1-11.397l-3.646,0.912l-0.455,27.888l11.018,0.076l-0.607-8.587l4.637,9.043l9.916-1.063
	l-6.725-10.449C493.468,80.251,494.951,77.896,494.951,75.272z M482.414,78.009v-7.295c0,0,4.33-0.456,4.33,3.646
	C486.744,78.693,482.414,78.009,482.414,78.009z M408.101,65.548l-8.207,27.584l10.26-0.229l1.365-4.56l5.93-0.229l0.684,4.56h9.803
	l-8.893-27.811L408.101,65.548z M412.205,83.1l1.824-7.522l2.508,7.295L412.205,83.1z M389.154,104.521l0.76,27.927
	c17.4,1.899,25.988-2.355,25.988-13.983C415.902,106.42,402.603,103,389.154,104.521z M399.564,123.518v-9.688
	c2.318-0.38,5.053,1.558,5.053,4.255C404.998,120.783,403.781,123.48,399.564,123.518z M448.589,92.676l21.656-0.418l0.457-6.839
	l-8.664,0.456l0.229-3.763l8.436,0.229l-0.455-5.699l-7.523,0.418l0.455-3.724l7.752-0.229l0.684-8.548l-23.025,0.228V92.676z
	 M372,0.736L194.008,2.044L162,0.279v5.442h210V0.736z M159.014,92.904l1.367-4.56l5.928-0.229l0.684,4.56h9.803l-8.892-27.811
	l-10.942,0.684l-8.207,27.584L159.014,92.904z M162.889,75.577l2.508,7.295l-4.331,0.228L162.889,75.577z M343.296,72.196
	l6.383-0.229v-7.522l-21.203-0.074l0.23,7.751l5.471-0.076l-1.369,20.896l10.943-0.229L343.296,72.196z M388.736,125.798
	l-8.281,0.076l0.836-21.314l-13.148,0.228v27.888l20.139-0.038L388.736,125.798z M351.164,37.667
	c-0.227,7.333,3.951,15.122,16.262,15.578c8.396,0.266,15.35-7.295,14.211-16.034c-0.949-7.105-5.357-13.716-13.754-13.716
	C356.027,23.495,351.621,30.601,351.164,37.667z M371.833,37.667c-0.229,2.128-2.09,3.533-4.18,3.534
	c-2.318-0.229-3.951-1.862-3.951-3.762c0.229-1.9,2.09-3.535,4.18-3.306C370.238,34.134,371.833,35.768,371.833,37.667z
	 M373.167,64.218l-7.523,0.646l-0.227,9.574l-6.611-0.228l-0.229-9.993l-7.75,0.646l-0.457,27.889l9.119-0.229l-0.229-10.03
	l6.154-0.418l-0.229,10.677l9.121-0.227L373.167,64.218z M169.019,103.988l-8.891,0.229h-4.787l-2.735,0.229h-1.368l-0.912,28.269
	h10.259l-0.114-9.005l6.649,0.151l-0.456-5.698l-6.231,0.342l-0.076-5.852l8.662,0.455V103.988z M130.39,41.623l6.262,9.719
	l6.047-9.719l-0.216,10.582h12.958l-0.217-26.564h-14.037l-4.751,8.639l-3.671-9.07l-12.31,0.432l-0.216,26.564l10.583,0.216
	L130.39,41.623z M172.686,52.745c7.955,0.252,14.541-6.911,13.462-15.189c-0.9-6.731-5.075-12.995-13.029-12.995
	c-11.231,0-15.406,6.731-15.838,13.427C157.064,44.935,161.024,52.314,172.686,52.745z M173.118,34.64
	c2.231,0,3.743,1.548,3.743,3.348c-0.216,2.016-1.979,3.348-3.959,3.348c-2.195-0.216-3.743-1.764-3.743-3.563
	C169.374,35.972,171.138,34.424,173.118,34.64z M213.434,38.743c0-11.411-12.598-14.65-25.339-13.211l0.72,26.457
	C205.3,53.789,213.434,49.758,213.434,38.743z M197.958,34.352c2.195-0.36,4.787,1.476,4.787,4.031
	c0.36,2.556-0.792,5.111-4.787,5.147V34.352z M236.185,45.33l-8.206,0.432l0.217-3.563l7.989,0.217l-0.432-5.399l-7.126,0.396
	l0.432-3.527l7.343-0.216l0.647-8.1l-21.812,0.217v26.42l20.517-0.396L236.185,45.33z M243.1,24.921l-3.456,0.864l-0.432,26.42
	l10.438,0.072l-0.575-8.135l4.391,8.566l9.395-1.008l-6.371-9.898c1.403-1.368,2.807-3.6,2.807-6.083
	C259.297,30.321,257.568,23.194,243.1,24.921z M247.418,38.312v-6.911c0,0,4.104-0.433,4.104,3.455
	C251.522,38.959,247.418,38.312,247.418,38.312z M264.698,25.641l-0.216,26.853l8.855-0.216l-0.864-11.879l5.327,11.879
	l10.871,0.072l0.647-26.493l-7.991,0.072l0.648,13.75l-7.487-13.966L264.698,25.641z"/>
</svg>
