<?xml version="1.0" encoding="iso-8859-1"?>
<!DOCTYPE svg PUBLIC "-//W3C//DTD SVG 1.1//EN" "http://www.w3.org/Graphics/SVG/1.1/DTD/svg11.dtd">
<svg version="1.1" xmlns="http://www.w3.org/2000/svg" xmlns:xlink="http://www.w3.org/1999/xlink" x="0px" y="0px" width="533.343px" height="156.721px" viewBox="0 0 533.343 156.721" style="enable-background:new 0 0 533.343 156.721;" xml:space="preserve">
<g id="game_x5F_3_x5F_title_x5F_en">
	<g>
		<polygon style="fill:#FF6600;" points="411,156.721 122,156.721 122,150.904 411,152.447 		"/>
		<polygon style="fill:#FF6600;" points="372,5.721 162,5.721 162,0.279 194.008,2.044 372,0.736 		"/>
		<path style="fill:#FF6600;" d="M28.04,52.675h-9.803l-0.684-4.56l-5.928,0.229l-1.367,4.56L0,53.131l8.207-27.584l10.942-0.684
			L28.04,52.675z M16.642,42.872l-2.508-7.295l-1.823,7.523L16.642,42.872z"/>
		<path style="fill:#FF6600;" d="M61.024,42.948l0.418,10.03c-6.649,0.761-21.999,1.103-21.581-14.476
			c0.418-15.615,20.745-14.514,20.745-14.514v9.65C50.842,33.26,50.956,44.811,61.024,42.948z"/>
		<path style="fill:#FF6600;" d="M78.835,53.245C66.524,52.789,62.346,45,62.573,37.667c0.456-7.066,4.863-14.172,16.718-14.172
			c8.396,0,12.804,6.611,13.754,13.716C94.185,45.95,87.231,53.511,78.835,53.245z M83.242,37.667c0-1.899-1.596-3.533-3.951-3.533
			c-2.09-0.229-3.952,1.405-4.18,3.306c0,1.899,1.634,3.533,3.951,3.761C81.152,41.2,83.015,39.795,83.242,37.667z"/>
		<path style="fill:#FF6600;" d="M95.113,24.635l10.334,0.076l7.903,14.742l-0.685-14.514l8.435-0.076l-0.684,27.964l-11.475-0.076
			l-5.623-12.538l0.912,12.538l-9.347,0.228L95.113,24.635z"/>
		<path style="fill:#FF6600;" d="M143.366,24.445v7.522l-6.383,0.229l0.455,20.517l-10.942,0.229l1.368-20.897l-5.471,0.076
			l-0.229-7.751L143.366,24.445z"/>
		<path style="fill:#FF6600;" d="M167.43,24.56l-0.684,8.548l-7.751,0.229l-0.456,3.724l7.523-0.418l0.456,5.699l-8.436-0.229
			l-0.228,3.762l8.663-0.456l-0.456,6.839l-21.657,0.418V24.787L167.43,24.56z"/>
		<path style="fill:#FF6600;" d="M180.805,52.903l-11.171-0.229l0.229-28.04l12.994-0.456l3.875,9.575l5.016-9.119h14.817
			l0.228,28.04h-13.678l0.229-11.17l-6.384,10.258l-6.61-10.258L180.805,52.903z"/>
		<path style="fill:#FF6600;" d="M220.981,45.076l0.684,7.675l-12.158-0.076l0.456-27.888l3.647-0.912
			c15.273-1.823,17.098,5.699,17.098,11.398C230.936,43.024,220.981,45.076,220.981,45.076z M222.501,34.361
			c0-4.103-4.331-3.647-4.331-3.647v7.295C218.17,38.009,222.501,38.693,222.501,34.361z"/>
		<path style="fill:#FF6600;" d="M247.086,53.245c-12.311-0.456-16.489-8.245-16.262-15.578c0.456-7.066,4.863-14.172,16.718-14.172
			c8.396,0,12.804,6.611,13.754,13.716C262.436,45.95,255.482,53.511,247.086,53.245z M251.493,37.667
			c0-1.899-1.596-3.533-3.951-3.533c-2.09-0.229-3.952,1.405-4.18,3.306c0,1.899,1.634,3.533,3.951,3.761
			C249.403,41.2,251.266,39.795,251.493,37.667z"/>
		<path style="fill:#FF6600;" d="M281.263,41.694l6.726,10.449l-9.917,1.063l-4.636-9.043l0.608,8.587l-11.019-0.076l0.456-27.888
			l3.647-0.912c15.273-1.823,17.098,5.699,17.098,11.398C284.227,37.896,282.744,40.251,281.263,41.694z M276.02,34.361
			c0-4.103-4.331-3.647-4.331-3.647v7.295C271.688,38.009,276.02,38.693,276.02,34.361z"/>
		<path style="fill:#FF6600;" d="M315.704,52.675h-9.803l-0.684-4.56l-5.928,0.229l-1.367,4.56l-10.259,0.228l8.207-27.584
			l10.942-0.684L315.704,52.675z M304.306,42.872l-2.508-7.295l-1.823,7.523L304.306,42.872z"/>
		<path style="fill:#FF6600;" d="M334.474,41.694l6.726,10.449l-9.917,1.063l-4.636-9.043l0.608,8.587l-11.019-0.076l0.456-27.888
			l3.647-0.912c15.273-1.823,17.098,5.699,17.098,11.398C337.438,37.896,335.955,40.251,334.474,41.694z M329.23,34.361
			c0-4.103-4.331-3.647-4.331-3.647v7.295C324.899,38.009,329.23,38.693,329.23,34.361z"/>
		<path style="fill:#FF6600;" d="M351.376,24.749l2.432,11.095l3.495-11.095l10.942,0.229l-8.891,17.553l0.229,10.335l-12.994-0.076
			l0.456-8.891l-8.663-19.149H351.376z"/>
		<path style="fill:#FF6600;" d="M401.23,24.445v7.522l-6.384,0.229l0.456,20.517l-10.942,0.229l1.368-20.897l-5.472,0.076
			l-0.228-7.751L401.23,24.445z"/>
		<path style="fill:#FF6600;" d="M420.158,41.694l6.726,10.449l-9.917,1.063l-4.636-9.043l0.608,8.587l-11.019-0.076l0.456-27.888
			l3.647-0.912c15.273-1.823,17.098,5.699,17.098,11.398C423.122,37.896,421.64,40.251,420.158,41.694z M414.915,34.361
			c0-4.103-4.331-3.647-4.331-3.647v7.295C410.584,38.009,414.915,38.693,414.915,34.361z"/>
		<path style="fill:#FF6600;" d="M442.434,53.245c-12.311-0.456-16.489-8.245-16.262-15.578c0.456-7.066,4.863-14.172,16.718-14.172
			c8.396,0,12.804,6.611,13.754,13.716C457.783,45.95,450.83,53.511,442.434,53.245z M446.841,37.667
			c0-1.899-1.596-3.533-3.951-3.533c-2.09-0.229-3.952,1.405-4.18,3.306c0,1.899,1.634,3.533,3.951,3.761
			C444.751,41.2,446.613,39.795,446.841,37.667z"/>
		<path style="fill:#FF6600;" d="M477.302,53.283l-0.342-2.166c-1.786,1.443-3.572,2.546-6.802,2.546
			c-17.287,0-11.474-28.838-11.474-28.838l9.08-0.38c-0.038,4.18-2.317,18.579,3.876,18.579c6.003,0,3.419-13.564,3.191-17.857
			l9.423-0.722l1.063,28.458L477.302,53.283z"/>
		<path style="fill:#FF6600;" d="M499.306,45.076l0.684,7.675l-12.158-0.076l0.456-27.888l3.647-0.912
			c15.273-1.823,17.098,5.699,17.098,11.398C509.26,43.024,499.306,45.076,499.306,45.076z M500.825,34.361
			c0-4.103-4.331-3.647-4.331-3.647v7.295C496.494,38.009,500.825,38.693,500.825,34.361z"/>
		<path style="fill:#FF6600;" d="M533.343,24.56l-0.684,8.548l-7.751,0.229l-0.456,3.724l7.523-0.418l0.456,5.699l-8.436-0.229
			l-0.228,3.762l8.663-0.456l-0.456,6.839l-21.657,0.418V24.787L533.343,24.56z"/>
		<path style="fill:#FF6600;" d="M13.375,64.787l9.574-0.684l0.912,28.495l-10.942,0.229L13.375,64.787z"/>
		<path style="fill:#FF6600;" d="M26.629,64.635l10.334,0.076l7.903,14.742l-0.685-14.514l8.435-0.076l-0.684,27.964l-11.475-0.076
			l-5.623-12.538l0.912,12.538L26.4,92.979L26.629,64.635z"/>
		<path style="fill:#FF6600;" d="M86.361,64.445v7.522l-6.384,0.229l0.456,20.517l-10.942,0.229l1.368-20.897l-5.472,0.076
			l-0.228-7.751L86.361,64.445z"/>
		<path style="fill:#FF6600;" d="M101.87,92.751l0.228-10.677l-6.155,0.418l0.229,10.031l-9.119,0.228l0.456-27.888l7.751-0.646
			l0.228,9.993l6.611,0.228l0.228-9.574l7.523-0.646l1.14,28.307L101.87,92.751z"/>
		<path style="fill:#FF6600;" d="M136.593,64.56l-0.684,8.548l-7.751,0.229l-0.456,3.724l7.523-0.418l0.456,5.699l-8.436-0.229
			l-0.228,3.762l8.663-0.456l-0.456,6.839l-21.657,0.418V64.787L136.593,64.56z"/>
		<path style="fill:#FF6600;" d="M176.796,92.675h-9.803l-0.684-4.56l-5.928,0.229l-1.367,4.56l-10.259,0.228l8.207-27.584
			l10.942-0.684L176.796,92.675z M165.397,82.872l-2.508-7.295l-1.823,7.523L165.397,82.872z"/>
		<path style="fill:#FF6600;" d="M177.556,64.635l10.334,0.076l7.903,14.742l-0.685-14.514l8.435-0.076l-0.684,27.964l-11.475-0.076
			l-5.623-12.538l0.912,12.538l-9.347,0.228L177.556,64.635z"/>
		<path style="fill:#FF6600;" d="M226.321,82.948l0.418,10.03c-6.649,0.761-21.999,1.103-21.581-14.476
			c0.418-15.615,20.745-14.514,20.745-14.514v9.65C216.139,73.26,216.253,84.811,226.321,82.948z"/>
		<path style="fill:#FF6600;" d="M229.581,64.787l9.574-0.684l0.912,28.495l-10.942,0.229L229.581,64.787z"/>
		<path style="fill:#FF6600;" d="M265.631,64.56l-0.684,8.548l-7.751,0.229l-0.456,3.724l7.523-0.418l0.456,5.699l-8.436-0.229
			l-0.228,3.762l8.663-0.456l-0.456,6.839l-21.657,0.418V64.787L265.631,64.56z"/>
		<path style="fill:#FF6600;" d="M268.063,64.635l10.334,0.076l7.903,14.742l-0.685-14.514l8.435-0.076l-0.684,27.964l-11.475-0.076
			l-5.623-12.538l0.912,12.538l-9.347,0.228L268.063,64.635z"/>
		<path style="fill:#FF6600;" d="M316.315,64.445v7.522l-6.383,0.229l0.455,20.517l-10.942,0.229l1.368-20.897l-5.471,0.076
			l-0.229-7.751L316.315,64.445z"/>
		<path style="fill:#FF6600;" d="M349.679,64.445v7.522l-6.383,0.229l0.455,20.517l-10.942,0.229l1.368-20.897l-5.471,0.076
			l-0.229-7.751L349.679,64.445z"/>
		<path style="fill:#FF6600;" d="M365.188,92.751l0.228-10.677l-6.155,0.418l0.229,10.031l-9.119,0.228l0.456-27.888l7.751-0.646
			l0.228,9.993l6.611,0.228l0.228-9.574l7.523-0.646l1.14,28.307L365.188,92.751z"/>
		<path style="fill:#FF6600;" d="M399.91,64.56l-0.684,8.548l-7.751,0.229l-0.456,3.724l7.523-0.418l0.456,5.699l-8.436-0.229
			l-0.228,3.762l8.663-0.456l-0.456,6.839l-21.657,0.418V64.787L399.91,64.56z"/>
		<path style="fill:#FF6600;" d="M427.935,92.675h-9.803l-0.684-4.56l-5.928,0.229l-1.367,4.56l-10.259,0.228l8.207-27.584
			l10.942-0.684L427.935,92.675z M416.536,82.872l-2.508-7.295l-1.823,7.523L416.536,82.872z"/>
		<path style="fill:#FF6600;" d="M447.551,64.445v7.522l-6.384,0.229l0.456,20.517l-10.942,0.229l1.368-20.897l-5.472,0.076
			l-0.228-7.751L447.551,64.445z"/>
		<path style="fill:#FF6600;" d="M471.615,64.56l-0.684,8.548l-7.751,0.229l-0.456,3.724l7.523-0.418l0.456,5.699l-8.436-0.229
			l-0.228,3.762l8.663-0.456l-0.456,6.839l-21.657,0.418V64.787L471.615,64.56z"/>
		<path style="fill:#FF6600;" d="M491.987,81.694l6.726,10.449l-9.917,1.063l-4.636-9.043l0.608,8.587l-11.019-0.076l0.456-27.888
			l3.647-0.912c15.273-1.823,17.098,5.699,17.098,11.398C494.951,77.896,493.469,80.251,491.987,81.694z M486.744,74.361
			c0-4.103-4.331-3.647-4.331-3.647v7.295C482.413,78.009,486.744,78.693,486.744,74.361z"/>
		<path style="fill:#FF6600;" d="M520.653,74.21c-2.621-1.103-4.673-1.482-6.155-1.482c-2.089,0-3.115,0.723-3.115,1.33
			c0,3.647,10.373,3.496,10.373,11.284c0,7.105-6.878,7.713-13.299,7.713c-4.445,0-7.333-0.646-9.422-1.367v-9.879
			c1.785,0.57,5.281,1.481,7.599,1.481c1.33,0,2.241-0.304,2.241-1.102c0-2.773-10.22-2.85-10.22-11.36
			c0-5.319,5.318-7.104,11.436-7.104c3.952,0,7.903,0.76,11.322,1.785L520.653,74.21z"/>
		<path style="fill:#FF6600;" d="M134.501,133.245c-12.311-0.456-16.489-8.245-16.262-15.578
			c0.456-7.066,4.863-14.172,16.718-14.172c8.396,0,12.804,6.611,13.754,13.716C149.851,125.95,142.897,133.511,134.501,133.245z
			 M138.908,117.667c0-1.899-1.596-3.533-3.951-3.533c-2.09-0.229-3.952,1.405-4.18,3.306c0,1.899,1.634,3.533,3.951,3.761
			C136.818,121.2,138.681,119.795,138.908,117.667z"/>
		<path style="fill:#FF6600;" d="M169.02,113.107l-8.663-0.455l0.076,5.851l6.231-0.342l0.456,5.699l-6.649-0.152l0.114,9.005
			h-10.259l0.912-28.268h1.368l2.735-0.229h4.787l8.891-0.228V113.107z"/>
		<path style="fill:#FF6600;" d="M202.003,104.445v7.522l-6.383,0.229l0.455,20.517l-10.942,0.229l1.368-20.897l-5.471,0.076
			l-0.229-7.751L202.003,104.445z"/>
		<path style="fill:#FF6600;" d="M217.511,132.751l0.228-10.677l-6.155,0.418l0.229,10.031l-9.119,0.228l0.456-27.888l7.751-0.646
			l0.228,9.993l6.611,0.228l0.228-9.574l7.523-0.646l1.14,28.307L217.511,132.751z"/>
		<path style="fill:#FF6600;" d="M252.233,104.56l-0.684,8.548l-7.751,0.229l-0.456,3.724l7.523-0.418l0.456,5.699l-8.436-0.229
			l-0.228,3.762l8.663-0.456l-0.456,6.839l-21.657,0.418v-27.888L252.233,104.56z"/>
		<path style="fill:#FF6600;" d="M310.978,104.901l-8.245,27.773h-11.284l-4.521-11.246l-4.9,11.246h-10.525l-7.104-27.773
			l12.386-0.38l1.862,13.905l4.901-13.905h7.522l5.623,13.905l1.862-13.905L310.978,104.901z"/>
		<path style="fill:#FF6600;" d="M326.521,133.245c-12.311-0.456-16.489-8.245-16.262-15.578
			c0.456-7.066,4.863-14.172,16.718-14.172c8.396,0,12.804,6.611,13.754,13.716C341.87,125.95,334.917,133.511,326.521,133.245z
			 M330.928,117.667c0-1.899-1.596-3.533-3.951-3.533c-2.09-0.229-3.952,1.405-4.18,3.306c0,1.899,1.634,3.533,3.951,3.761
			C328.838,121.2,330.7,119.795,330.928,117.667z"/>
		<path style="fill:#FF6600;" d="M360.697,121.694l6.726,10.449l-9.917,1.063l-4.636-9.043l0.608,8.587l-11.019-0.076l0.456-27.888
			l3.647-0.912c15.273-1.823,17.098,5.699,17.098,11.398C363.661,117.896,362.179,120.251,360.697,121.694z M355.454,114.361
			c0-4.103-4.331-3.647-4.331-3.647v7.295C351.123,118.009,355.454,118.693,355.454,114.361z"/>
		<path style="fill:#FF6600;" d="M381.29,104.56l-0.836,21.314l8.282-0.076l-0.456,6.839l-20.137,0.038v-27.888L381.29,104.56z"/>
		<path style="fill:#FF6600;" d="M389.913,132.447l-0.76-27.926c13.45-1.521,26.748,1.899,26.748,13.943
			C415.901,130.092,407.314,134.347,389.913,132.447z M404.617,118.085c0-2.697-2.735-4.635-5.054-4.255v9.688
			C403.781,123.48,404.997,120.783,404.617,118.085z"/>
	</g>
</g>
</svg>
