<?xml version="1.0" encoding="iso-8859-1"?>
<!DOCTYPE svg PUBLIC "-//W3C//DTD SVG 1.1//EN" "http://www.w3.org/Graphics/SVG/1.1/DTD/svg11.dtd">
<svg version="1.1" xmlns="http://www.w3.org/2000/svg" xmlns:xlink="http://www.w3.org/1999/xlink" x="0px" y="0px" width="456.396px" height="156.721px" viewBox="0 0 456.396 156.721" style="enable-background:new 0 0 456.396 156.721;" xml:space="preserve">
<g id="game_x5F_3_x5F_title_x5F_gr">
	<g>
		<polygon style="fill:#FF6600;" points="372,156.721 83,156.721 83,150.904 372,152.447 		"/>
		<polygon style="fill:#FF6600;" points="333,5.721 123,5.721 123,0.279 155.007,2.044 333,0.736 		"/>
		<polygon style="fill:#FF6600;" points="280.647,50.939 270.586,38.1 279.216,24.634 266.46,24.67 261.76,31.56 258.586,24.192 
			246.041,24.906 255.447,37.646 246.997,50.939 260.866,51.331 263.675,44.502 267.804,51.295 		"/>
		<polygon style="fill:#FF6600;" points="72.217,53.707 79.98,53.432 79.223,41.525 85.223,52.439 95.541,52.854 95.188,24.07 
			88.044,24.519 88.687,38.11 79.256,24.357 71.176,24.037 		"/>
		<polygon style="fill:#FF6600;" points="336.184,49.854 343.043,49.61 342.374,39.091 347.675,48.733 356.791,49.1 356.48,23.667 
			350.168,24.063 350.736,36.073 342.403,23.921 335.264,23.638 		"/>
		<path style="fill:#FF6600;" d="M116.58,23.696l-10.575,0.577l-7.694,28.157l9.659-0.188l1.416-4.628l5.618-0.248l0.64,4.506h9.543
			L116.58,23.696z M110.094,42.08l1.761-7.553l2.409,7.383L110.094,42.08z"/>
		<polygon style="fill:#FF6600;" points="44.913,24.936 44.707,52.72 65.562,52.39 66.066,45.618 57.676,46.12 57.859,42.261 
			66.094,42.665 65.708,36.854 58.507,37.309 58.926,33.619 66.326,33.331 67.002,24.748 		"/>
		<polygon style="fill:#FF6600;" points="195.802,24.333 204.156,42.851 203.628,51.464 216.14,51.794 215.878,41.54 
			224.487,24.632 213.945,24.502 210.194,34.66 208.347,24.333 		"/>
		<path style="fill:#FF6600;" d="M333.064,36.255c-0.814-6.625-5.145-12.729-12.854-12.673
			c-11.215,0.082-15.423,6.588-15.757,13.239c-0.333,6.656,3.7,14.008,15.312,14.289C327.478,51.298,334.077,44.462,333.064,36.255
			 M319.884,39.917c-2.084-0.078-3.709-1.605-3.617-3.414c0.091-1.805,1.861-3.203,3.946-3.125c2.09,0.074,3.715,1.604,3.621,3.414
			C323.742,38.597,321.975,39.991,319.884,39.917"/>
		<path style="fill:#FF6600;" d="M388.055,35.641c-0.814-6.625-5.145-12.729-12.854-12.673
			c-11.215,0.082-15.423,6.588-15.757,13.239c-0.333,6.656,3.7,14.008,15.312,14.289C382.468,50.684,389.067,43.848,388.055,35.641
			 M374.874,39.303c-2.084-0.078-3.709-1.605-3.617-3.414c0.091-1.805,1.861-3.203,3.946-3.125c2.09,0.074,3.715,1.604,3.621,3.414
			C378.732,37.982,376.965,39.377,374.874,39.303"/>
		<polygon style="fill:#FF6600;" points="150.116,32.389 150.116,23.044 127.794,23.324 127.539,30.564 134.55,38.504 
			127.339,44.332 127.659,52.04 150.116,52.701 150.116,43.357 137.187,43.504 142.438,37.729 138.468,31.593 		"/>
		<polygon style="fill:#FF6600;" points="193.355,32.389 193.355,23.044 171.033,23.324 170.778,30.564 177.789,38.504 
			170.578,44.332 170.898,52.04 193.355,52.701 193.355,43.357 180.426,43.504 185.678,37.729 181.707,31.593 		"/>
		<polygon style="fill:#FF6600;" points="411.688,31.25 411.688,21.905 389.366,22.186 389.111,29.426 396.122,37.365 
			388.911,43.193 389.231,50.901 411.688,51.562 411.688,42.219 398.759,42.365 404.011,36.591 400.04,30.454 		"/>
		<path style="fill:#FF6600;" d="M303.241,34.521c-0.157-5.422-1.832-12.58-16.582-10.9l-3.337,0.861l-0.476,27.098l12.102,0.518
			l-0.749-8.17C294.199,43.927,303.456,41.933,303.241,34.521z M291,37.26v0.005v-7c0,0,4.25-0.5,4.25,3.5S291,37.26,291,37.26z"/>
		<polygon style="fill:#FF6600;" points="244.363,24.541 235.877,24.703 235.875,24.541 231.183,24.795 228.587,24.844 
			228.589,24.934 227.331,24.945 226.413,52.132 236.179,52.132 235.965,32.809 244.363,33.306 		"/>
		<polygon style="fill:#FF6600;" points="53.082,66.703 62.194,66.119 63.113,93.591 52.688,93.839 		"/>
		<polygon style="fill:#FF6600;" points="395.463,65.703 404.575,65.119 405.494,92.591 395.069,92.839 		"/>
		<polygon style="fill:#FF6600;" points="364.751,92.156 354.688,79.316 363.319,65.851 350.563,65.887 345.862,72.776 
			342.689,65.409 330.145,66.123 339.55,78.863 331.1,92.156 344.97,92.548 347.778,85.719 351.907,92.512 		"/>
		<path style="fill:#FF6600;" d="M83.549,65.279l-10.575,0.577l-7.694,28.157l9.659-0.188l1.416-4.628l5.618-0.248l0.64,4.506h9.543
			L83.549,65.279z M77.062,83.663l1.761-7.553l2.409,7.383L77.062,83.663z"/>
		<path style="fill:#FF6600;" d="M258.503,64.921l-10.575,0.577l-7.694,28.157l9.659-0.188l1.416-4.628l5.617-0.248l0.641,4.506
			h9.543L258.503,64.921z M252.017,83.305l1.761-7.553l2.408,7.383L252.017,83.305z"/>
		<path style="fill:#FF6600;" d="M299.133,63.611l-10.575,0.577l-7.694,28.157l9.659-0.188l1.416-4.628l5.618-0.248l0.64,4.506
			h9.543L299.133,63.611z M292.646,81.995l1.761-7.553l2.409,7.383L292.646,81.995z"/>
		<path style="fill:#FF6600;" d="M383.854,63.611l-10.575,0.577l-7.694,28.157l9.659-0.188l1.416-4.628l5.617-0.248l0.641,4.506
			h9.543L383.854,63.611z M377.368,81.995l1.761-7.553l2.408,7.383L377.368,81.995z"/>
		<path style="fill:#FF6600;" d="M426.764,63.802l-10.575,0.577l-7.694,28.157l9.659-0.188l1.416-4.628l5.617-0.248l0.641,4.506
			h9.543L426.764,63.802z M420.277,82.186l1.761-7.553l2.408,7.383L420.277,82.186z"/>
		<path style="fill:#FF6600;" d="M147.715,77.886c-0.814-6.625-5.145-12.729-12.854-12.673
			c-11.215,0.082-15.423,6.588-15.757,13.239c-0.333,6.656,3.7,14.008,15.312,14.289C142.128,92.929,148.728,86.093,147.715,77.886
			 M134.534,81.548c-2.084-0.078-3.709-1.605-3.617-3.414c0.091-1.805,1.861-3.203,3.946-3.125c2.09,0.074,3.715,1.604,3.621,3.414
			C138.393,80.228,136.625,81.622,134.534,81.548"/>
		<polygon style="fill:#FF6600;" points="173.351,74.163 173.351,64.818 151.028,65.099 150.773,72.339 156.784,79.278 
			150.573,86.106 150.894,93.814 173.351,94.476 173.351,85.132 160.421,85.278 165.673,79.504 161.702,73.367 		"/>
		<polygon style="fill:#FF6600;" points="217.77,73.805 217.77,64.46 195.448,64.74 195.193,71.98 201.204,78.92 194.993,85.748 
			195.313,93.456 217.77,94.117 217.77,84.773 204.84,84.92 210.092,79.146 206.122,73.009 		"/>
		<polygon style="fill:#FF6600;" points="116.998,74.495 116.998,65.15 94.676,65.431 94.421,72.671 100.432,79.61 94.221,86.438 
			94.541,94.146 116.998,94.808 116.998,85.464 104.068,85.61 109.32,79.836 105.35,73.699 		"/>
		<path style="fill:#FF6600;" d="M330.304,75.266c-0.157-5.421-1.832-12.578-16.582-10.899l-3.337,0.861l-0.476,27.099l12.102,0.518
			l-0.749-8.17C321.262,84.674,330.519,82.678,330.304,75.266z M318,78.006v0.006v-7c0,0,4.25-0.5,4.25,3.5S318,78.006,318,78.006z"
			/>
		<path style="fill:#FF6600;" d="M50.527,79.163c-0.838-6.826-5.301-13.118-13.246-13.06c-11.556,0.085-15.892,6.789-16.236,13.643
			c-0.343,6.86,3.813,14.433,15.779,14.724C44.771,94.663,51.571,87.619,50.527,79.163z M36.173,73.701
			c3.209,0.119,4.949,1.391,5.589,3.539l-11.886,0.398C30.547,74.972,32.512,73.571,36.173,73.701z M35.476,85.732
			c-3.267-0.121-5.013-1.439-5.619-3.67l11.799,0.171C40.883,84.617,38.944,85.864,35.476,85.732z"/>
		<polygon style="fill:#FF6600;" points="221.875,65.66 222.035,73.18 227.292,72.712 225.903,93.539 236.51,93.354 236.11,72.564 
			242.299,72.41 242.141,65.037 		"/>
		<polygon style="fill:#FF6600;" points="274.99,106.928 274.99,133.527 287.912,133.412 285.729,124.777 291.721,133.32 
			303.06,133.412 293.072,120.18 300.129,106.869 290.387,106.835 285.895,115.543 287.206,106.632 		"/>
		<polygon style="fill:#FF6600;" points="34.112,106.114 34.166,133.899 55.017,133.374 55.458,126.599 47.072,127.179 
			47.219,123.317 55.458,123.645 55.017,117.839 47.821,118.359 48.206,114.667 55.602,114.31 56.198,105.721 		"/>
		<path style="fill:#FF6600;" d="M77.006,105.332l-10.575,0.577l-7.694,28.157l9.659-0.188l1.416-4.628l5.618-0.248l0.64,4.506
			h9.543L77.006,105.332z M70.52,123.716l1.761-7.553l2.409,7.383L70.52,123.716z"/>
		<path style="fill:#FF6600;" d="M148.956,104.713l-10.575,0.577l-7.694,28.157l9.659-0.188l1.416-4.628l5.618-0.248l0.64,4.506
			h9.543L148.956,104.713z M142.469,123.097l1.761-7.553l2.409,7.383L142.469,123.097z"/>
		<polygon style="fill:#FF6600;" points="427.711,104.373 436.065,122.891 435.537,131.504 448.049,131.834 447.787,121.58 
			456.396,104.672 445.854,104.542 442.104,114.7 440.256,104.373 		"/>
		<polygon style="fill:#FF6600;" points="223.704,106.35 232.059,124.867 231.53,133.48 244.042,133.811 243.78,123.557 
			252.39,106.648 241.848,106.519 238.097,116.677 236.249,106.35 		"/>
		<path style="fill:#FF6600;" d="M224.868,118.606c-0.814-6.625-5.145-12.729-12.854-12.673
			c-11.215,0.082-15.423,6.588-15.757,13.239c-0.333,6.656,3.7,14.008,15.312,14.289
			C219.281,133.649,225.881,126.813,224.868,118.606 M211.688,122.269c-2.084-0.078-3.709-1.605-3.617-3.414
			c0.091-1.805,1.861-3.203,3.946-3.125c2.09,0.074,3.715,1.604,3.621,3.414C215.546,120.948,213.778,122.343,211.688,122.269"/>
		<path style="fill:#FF6600;" d="M427.919,117.986c-0.814-6.625-5.145-12.729-12.854-12.673
			c-11.215,0.082-15.423,6.588-15.757,13.239c-0.333,6.656,3.7,14.008,15.312,14.289
			C422.332,133.029,428.932,126.193,427.919,117.986 M414.738,121.648c-2.084-0.078-3.709-1.605-3.617-3.414
			c0.091-1.805,1.861-3.203,3.946-3.125c2.09,0.074,3.715,1.604,3.621,3.414C418.597,120.328,416.829,121.723,414.738,121.648"/>
		<path style="fill:#FF6600;" d="M329.878,118.986c-0.814-6.625-5.145-12.729-12.854-12.673
			c-11.215,0.082-15.423,6.588-15.757,13.239c-0.333,6.656,3.7,14.008,15.312,14.289
			C324.291,134.029,330.891,127.193,329.878,118.986 M316.697,122.648c-2.084-0.078-3.709-1.605-3.617-3.414
			c0.091-1.805,1.861-3.203,3.946-3.125c2.09,0.074,3.715,1.604,3.621,3.414C320.556,121.328,318.788,122.723,316.697,122.648"/>
		<polygon style="fill:#FF6600;" points="354.975,114.505 354.975,105.16 332.652,105.44 332.397,112.681 338.408,119.62 
			332.197,126.448 332.518,134.156 354.975,134.817 354.975,125.474 342.045,125.62 347.297,119.846 343.326,113.709 		"/>
		<path style="fill:#FF6600;" d="M130.917,116.399c-0.157-5.421-1.832-12.578-16.582-10.899l-3.337,0.861l-0.476,27.099
			l12.102,0.518l-0.749-8.17C121.875,125.808,131.132,123.812,130.917,116.399z M119,119.14v0.006v-7c0,0,4.25-0.5,4.25,3.5
			S119,119.14,119,119.14z"/>
		<path style="fill:#FF6600;" d="M31.263,118.689c-0.889-7.233-5.618-13.9-14.037-13.839c-12.246,0.09-16.84,7.194-17.206,14.457
			c-0.364,7.271,4.041,15.295,16.721,15.603C25.163,135.115,32.369,127.651,31.263,118.689z M16.052,112.902
			c3.4,0.127,5.245,1.474,5.922,3.75l-12.596,0.422C10.089,114.248,12.171,112.765,16.052,112.902z M15.312,125.652
			c-3.462-0.129-5.312-1.526-5.955-3.89l12.503,0.182C21.042,124.47,18.987,125.792,15.312,125.652z"/>
		<polygon style="fill:#FF6600;" points="370.98,122.858 377.468,132.646 383.479,122.858 383.256,133.646 396.364,133.562 
			396.192,106.729 381.975,106.645 377.164,115.411 373.423,106.202 360.866,106.591 360.704,133.654 371.368,133.786 		"/>
		<polygon style="fill:#FF6600;" points="86.667,106.071 86.828,113.591 92.084,113.123 90.696,133.95 101.302,133.766 
			100.903,112.976 107.091,112.821 106.933,105.448 		"/>
		<polygon style="fill:#FF6600;" points="175.504,105.452 175.664,112.972 180.921,112.504 179.532,133.331 190.139,133.146 
			189.739,112.356 195.928,112.202 195.77,104.829 		"/>
	</g>
</g>
</svg>
