<?xml version="1.0" encoding="iso-8859-1"?>
<!-- Generator: Adobe Illustrator 16.0.0, SVG Export Plug-In . SVG Version: 6.00 Build 0)  -->
<!DOCTYPE svg PUBLIC "-//W3C//DTD SVG 1.1//EN" "http://www.w3.org/Graphics/SVG/1.1/DTD/svg11.dtd">
<svg version="1.1" id="Layer_1" xmlns="http://www.w3.org/2000/svg" xmlns:xlink="http://www.w3.org/1999/xlink" x="0px" y="0px"
	 width="100px" height="100px" viewBox="0 0 100 100" style="enable-background:new 0 0 100 100;" xml:space="preserve">
<g>
	<path style="fill:#4D260D;" d="M59.622,18.4c0-0.811,0.06-1.612,0.177-2.4H41.208c0.117,0.788,0.176,1.589,0.176,2.4
		c0,0.201-0.003,0.401-0.011,0.6c-0.025,0.675-0.091,1.342-0.197,2H59.83c-0.106-0.658-0.173-1.325-0.197-2
		C59.626,18.801,59.622,18.601,59.622,18.4z"/>
	<path style="fill:#8C6239;" d="M53,79.409c-0.052,0.005-0.103,0.009-0.153,0.013c-0.746,0.059-1.5,0.088-2.259,0.088
		c0,0,0,0,0.001,0c0.759,0,1.514-0.029,2.26-0.088C52.899,79.418,52.949,79.414,53,79.409L53,79.409 M61,77.629
		c-1.991,0.713-4.018,1.23-6,1.539l0,0C56.982,78.86,59.01,78.342,61,77.629L61,77.629 M78.081,59.067
		c-0.003,0.007-0.005,0.011-0.005,0.011C77.33,67.325,70.661,73.54,63,76.841v0.001c7.662-3.301,14.333-9.516,15.08-17.764
		C78.08,59.078,78.08,59.074,78.081,59.067 M87.729,47.725L87.729,47.725c1.411,5.881,1.055,10.199,0.831,11.8
		c-0.03,2.447-0.346,4.878-0.913,7.256c0.569-2.383,0.887-4.819,0.917-7.272C88.786,57.907,89.14,53.606,87.729,47.725
		L87.729,47.725"/>
	<path style="fill:#795531;" d="M55,79.168c-0.673,0.104-1.341,0.186-2,0.241l0,0C53.659,79.354,54.327,79.273,55,79.168L55,79.168"
		/>
	<path style="fill:#795531;" d="M63,76.841c-0.66,0.284-1.328,0.547-2,0.788v0.001C61.673,77.389,62.339,77.127,63,76.841L63,76.841
		"/>
	<path style="fill:#4D260D;" d="M86.672,46.421c-2.629,0-8.402,12.238-8.591,12.646c-0.001,0.007-0.001,0.011-0.001,0.011
		C77.333,67.326,70.662,73.541,63,76.842c-0.661,0.285-1.327,0.547-2,0.788c-1.99,0.712-4.018,1.23-6,1.538
		c-0.673,0.105-1.341,0.186-2,0.241c-0.051,0.005-0.101,0.009-0.151,0.013c-0.746,0.059-1.501,0.088-2.26,0.088c0,0,0,0-0.001,0
		h-0.001c-9.376,0-19.523-4.451-24.921-12.146c-0.625-0.89-1.072-1.29-1.35-1.29c-2.458-0.003,8.253,31.188,26.032,31.188
		c17.293,0,33.357-13.983,37.299-30.48c0.567-2.378,0.883-4.809,0.913-7.256c0.224-1.602,0.58-5.919-0.831-11.8l0,0
		C87.51,46.811,87.141,46.421,86.672,46.421"/>
	<g>
		<rect x="61" y="21" style="fill:#DDDDDD;" width="2" height="63"/>
		<rect x="53" y="21" style="fill:#DDDDDD;" width="2" height="63"/>
		<rect x="45" y="21" style="fill:#DDDDDD;" width="2" height="63"/>
		<rect x="37" y="21" style="fill:#DDDDDD;" width="2" height="63"/>
	</g>
	<path style="fill:#8C6239;" d="M62.854,76.899c0.048-0.021,0.098-0.037,0.146-0.058c0.04-0.018,0.079-0.037,0.119-0.055
		C63.031,76.825,62.942,76.861,62.854,76.899z M60.775,77.704c0.074-0.025,0.15-0.048,0.225-0.074
		c0.026-0.01,0.053-0.021,0.079-0.031C60.978,77.635,60.876,77.669,60.775,77.704z M72.774,22.756
		c-0.187-0.27-2.122-3.001-2.122-4.356s0.528-2.63,1.487-3.589c0.958-0.958,2.232-1.486,3.587-1.486
		c1.355,0,2.631,0.528,3.589,1.486c2.154,2.154,5.646,2.154,7.8,0s2.154-5.646,0-7.799c-3.042-3.042-7.086-4.717-11.389-4.717
		c-4.302,0-8.346,1.675-11.388,4.717c-3.041,3.042-4.717,7.086-4.717,11.388s1.676,8.347,4.718,11.388l0.055,0.05l-0.121,0.084
		C79.364,44.417,78,59.07,78,59.078c0,0,0-0.004,0-0.011c0-0.408,6.002-12.646,8.631-12.646c0.469,0,0.858,0.389,1.077,1.304
		C86.238,41.595,82.46,32.355,72.774,22.756z M53.093,79.398c-0.081,0.007-0.163,0.017-0.244,0.023
		c0.051-0.004,0.101-0.008,0.151-0.013C53.03,79.406,53.062,79.4,53.093,79.398z M50.348,97.262
		c-17.779,0-28.49-31.19-26.032-31.188c0.278,0,0.726,0.4,1.35,1.29c0.353,0.503,0.729,0.991,1.121,1.467
		c-0.392-0.476-0.768-0.964-1.121-1.467c-6.141-8.754-1.396-21.384,4.003-29.242c0.525-0.763,6.783-8.363,6.998-8.138l-0.101-0.105
		l0.1-0.091c3.042-3.042,4.717-7.086,4.717-11.388s-1.675-8.346-4.717-11.388S29.582,2.294,25.28,2.294
		c-4.302,0-8.347,1.675-11.389,4.717c-2.154,2.154-2.154,5.646,0,7.799c2.154,2.154,5.646,2.154,7.8,0
		c0.958-0.958,2.233-1.486,3.588-1.486c1.355,0,2.629,0.528,3.587,1.486c0.959,0.959,1.487,2.233,1.487,3.589
		s-2.026,4.198-2.239,4.532C10.943,40.015,11.979,56.064,12.444,59.509C12.676,78.952,30.55,97.295,50.34,97.295
		c13.944,0,27.082-9.105,33.717-21.281C77.42,88.176,64.285,97.262,50.348,97.262z M50.587,79.51
		C50.588,79.51,50.588,79.51,50.587,79.51c0.055,0,0.107-0.006,0.161-0.006c-0.357,0.002-0.716-0.01-1.075-0.021
		C49.978,79.492,50.283,79.51,50.587,79.51L50.587,79.51z M55.089,79.152c-0.036,0.005-0.071,0.013-0.107,0.018
		c0.007-0.001,0.013-0.001,0.019-0.002C55.029,79.163,55.06,79.156,55.089,79.152z"/>
</g>
</svg>
