<?xml version="1.0" encoding="iso-8859-1"?>
<!DOCTYPE svg PUBLIC "-//W3C//DTD SVG 1.1//EN" "http://www.w3.org/Graphics/SVG/1.1/DTD/svg11.dtd">
<svg version="1.1" id="Layer_1" xmlns="http://www.w3.org/2000/svg" xmlns:xlink="http://www.w3.org/1999/xlink" x="0px" y="0px" width="100px" height="100px" viewBox="0 0 100 100" style="enable-background:new 0 0 100 100;" xml:space="preserve">
<g>
	<g>
		<path style="fill:#DDDDDD;" d="M40,77.941V24.594c-1,1.768-2,3.469-3,4.907v47.223C38,77.18,38,77.587,40,77.941z"/>
		<path style="fill:#DDDDDD;" d="M47,21h-3v58.05c1,0.192,1.634-0.05,2.579-0.05H47V21z"/>
		<path style="fill:#DDDDDD;" d="M60,24.032v53.925c1-0.357,2-0.769,3-1.23V29.275C62,27.731,61,25.903,60,24.032z"/>
		<path style="fill:#DDDDDD;" d="M53,79h0.473C54.317,79,55,79.269,56,79.09V21h-3V79z"/>
	</g>
	<path style="fill:#8C6239;" d="M87.22,47.93c-1.47-6.129-5.27-15.37-14.955-24.968c-0.187-0.269-2.122-3.002-2.122-4.357 c0-1.355,0.529-2.63,1.488-3.589c0.957-0.958,2.23-1.486,3.588-1.486c1.354,0,2.629,0.528,3.588,1.486 c2.153,2.155,5.646,2.155,7.801,0c2.152-2.153,2.152-5.645,0-7.799C83.564,4.174,79.52,2.5,75.219,2.5 c-4.303,0-8.348,1.751-11.389,4.793C61.207,9.915,59.607,13,59.213,17H40.774c-0.394-4-1.994-7.085-4.618-9.707 c-3.041-3.042-7.085-4.755-11.388-4.755c-4.301,0-8.347,1.656-11.387,4.697c-2.156,2.154-2.156,5.637,0,7.791 c2.152,2.154,5.646,2.149,7.798-0.005c0.958-0.959,2.232-1.489,3.588-1.489c1.356,0,2.63,0.527,3.588,1.486 c0.959,0.958,1.486,2.233,1.486,3.588c0,1.354-2.024,4.197-2.237,4.53C10.432,40.22,11.47,56.27,11.934,59.715 C12.166,79.157,30.039,97.5,49.832,97.5c19.791,0,37.976-18.334,38.219-37.77C88.273,58.13,88.631,53.812,87.22,47.93z M77.57,59.282c-1.071,11.834-14.335,19.483-25.231,20.347c-9.96,0.787-21.348-3.742-27.183-12.06 c-6.14-8.753-1.396-21.383,4.004-29.243c0.524-0.763,6.782-8.361,6.997-8.137l-0.099-0.105c0.033-0.03,0.067-0.162,0.099-0.196 C38.575,27.472,40.113,24,40.649,21h18.688c0.538,3,2.073,6.472,4.492,8.888c0.018,0.019,0.038,0.086,0.055,0.103l-0.081,0.11 C78.896,44.596,77.571,59.275,77.57,59.282z"/>
	<path style="fill:#8C6239;" d="M87.22,47.93c-1.47-6.129-9.652,11.346-9.653,11.353c-1.07,11.834-14.335,19.483-25.229,20.347 c-9.963,0.787-21.349-3.742-27.183-12.06c-6.141-8.753,4.892,29.898,24.683,29.898c19.791,0,37.974-18.318,38.215-37.753 C88.276,58.112,88.631,53.812,87.22,47.93z"/>
</g>
</svg>
