<?xml version="1.0" encoding="iso-8859-1"?>
<!-- Generator: Adobe Illustrator 16.0.0, SVG Export Plug-In . SVG Version: 6.00 Build 0)  -->
<!DOCTYPE svg PUBLIC "-//W3C//DTD SVG 1.1//EN" "http://www.w3.org/Graphics/SVG/1.1/DTD/svg11.dtd">
<svg version="1.1" id="Layer_1" xmlns="http://www.w3.org/2000/svg" xmlns:xlink="http://www.w3.org/1999/xlink" x="0px" y="0px"
	 width="100px" height="100px" viewBox="0 0 100 100" style="enable-background:new 0 0 100 100;" xml:space="preserve">
<g>
	<path style="fill:#402914;" d="M95.33,51.294L58.88,30.25c-2.259-1.304-5.215-0.614-6.674,1.912L40.808,51.904
		c-7.297,12.638-3.29,28.153,9.021,35.26c8.077,4.664,17.502,4.422,25.09,0.134c3.932-1.798,7.501-4.884,9.957-9.952l11.397-19.742
		C98.661,53.469,96.34,51.877,95.33,51.294z M55.695,43.087c1.629-1.628,4.27-1.628,5.898,0c1.628,1.628,1.628,4.269-0.001,5.897
		c-1.628,1.628-4.27,1.629-5.897,0C54.067,47.356,54.067,44.715,55.695,43.087z M63.251,82.263c-2.512-1.691-2.73-5.236-5.562-6.753
		c-0.148-0.079-0.297-0.152-0.449-0.222c-2.222-1.001-4.745-0.816-7.117-0.503c-2.189,0.289-3.495-0.492-2.212-2.772
		c0.787-1.402,2.177-2.735,3.557-3.562c1.243-0.743,3.117-1.157,4.553-1.154c5.218,0.012,10.338,5.271,10.406,10.444
		C66.446,79.157,65.766,83.952,63.251,82.263z M82.217,60.832c-1.629,1.629-4.27,1.629-5.897,0c-1.629-1.628-1.629-4.27,0-5.897
		c1.628-1.628,4.269-1.628,5.897,0C83.845,56.562,83.845,59.204,82.217,60.832z"/>
	<path style="fill:#8C6239;" d="M57.556,34.955l-5.9-22.02c-1.236-4.612-4.002-4.096-5.129-3.794L5.871,20.034
		c-2.519,0.675-4.122,3.253-3.367,6.071l5.9,22.02c3.777,14.096,17.582,22.233,31.312,18.554C53.446,63,61.333,49.051,57.556,34.955
		z M17.488,36.774c-2.303,0-4.17-1.867-4.17-4.17s1.867-4.17,4.17-4.17c2.303,0,4.17,1.867,4.17,4.17S19.791,36.774,17.488,36.774z
		 M40.449,30.569c-2.303,0-4.17-1.867-4.17-4.17s1.867-4.17,4.17-4.17c2.303,0,4.17,1.867,4.17,4.17S42.751,30.569,40.449,30.569z"
		/>
	<path style="fill:#FFFFFF;" d="M44.265,50.971c-0.353,1.404-1.386,3.022-2.403,4.035c-3.697,3.682-11.037,3.583-14.743-0.026
		c-1.016-0.988-3.926-4.86-0.952-5.443c2.971-0.581,5.633,1.772,8.708,0.842c0.161-0.049,0.318-0.102,0.474-0.161
		c2.28-0.863,3.934-2.777,5.389-4.676c1.343-1.753,2.818-2.125,3.525,0.396C44.696,47.484,44.656,49.41,44.265,50.971z"/>
</g>
</svg>
