<?xml version="1.0" encoding="iso-8859-1"?>
<!DOCTYPE svg PUBLIC "-//W3C//DTD SVG 1.1//EN" "http://www.w3.org/Graphics/SVG/1.1/DTD/svg11.dtd">
<svg version="1.1" id="Layer_1" xmlns="http://www.w3.org/2000/svg" xmlns:xlink="http://www.w3.org/1999/xlink" x="0px" y="0px" width="100px" height="100px" viewBox="0 0 100 100" style="enable-background:new 0 0 100 100;" xml:space="preserve">
<g>
	<path style="fill:#402914;" d="M95.831,49.067c-0.479-0.479-0.983-0.795-1.323-0.991L59.129,27.652l0.927,3.453l13.55,7.835 L56.298,69.699c-0.091-0.041-0.188-0.084-0.275-0.128c-1.116-0.601-1.867-1.817-2.604-3.14c-0.335-0.595-0.683-1.199-1.089-1.779 c-0.655,0.544-1.334,1.059-2.039,1.539c0.312,0.459,0.6,0.961,0.893,1.487c0.571,1.017,1.158,2.069,2.059,2.97 c0.479,0.48,0.991,0.861,1.571,1.173c0.177,0.094,0.355,0.182,0.537,0.265c2.529,1.14,5.346,0.972,8.009,0.616 c0.78-0.101,1.202-0.015,1.352,0.043c-0.01,0.119-0.066,0.408-0.354,0.92c-0.666,1.187-1.894,2.409-3.2,3.192 c-0.995,0.596-2.648,1.01-4.023,1.007c-2.186-0.004-4.514-1.081-6.385-2.954c-1.876-1.877-3.014-4.315-3.043-6.527 c-0.002-0.205,0.01-0.424,0.028-0.648c-0.824,0.438-1.672,0.833-2.544,1.187c0.18,2.747,1.521,5.56,3.755,7.794 c0.726,0.726,1.519,1.345,2.346,1.87l-3.34,6.369C46.038,83.848,44,82.51,43,80.977c0-0.002,0-0.002,0-0.002 c-3-2.871-4.939-6.359-6.133-10.019C36.202,71.027,35.515,71,34.851,71c-0.001,0-0.001,0-0.001,0c-0.313,0-0.589,0.046-0.899,0.036 C35.201,75.338,37,79.42,41,82.772c0,0,0,0.003,0,0.005c1,1.695,3.477,3.174,5.591,4.394c6.425,3.711,13.787,4.667,20.858,2.69 c7.071-1.974,12.99-6.682,16.783-13.252L95.95,56.309C98.106,52.574,97.073,50.309,95.831,49.067z M79.936,60.344 c-1.674,1.675-4.392,1.675-6.064,0c-1.677-1.675-1.675-4.389,0-6.064c1.675-1.674,4.389-1.675,6.064,0 C81.608,55.953,81.608,58.671,79.936,60.344z"/>
	<path style="fill:#8C6239;" d="M19.081,27.947c-3.069,0-5.564,2.496-5.564,5.565c0,3.069,2.495,5.565,5.564,5.565 c3.069,0,5.564-2.496,5.564-5.565C24.645,30.443,22.149,27.947,19.081,27.947z M19.081,36.525c-1.661,0-3.013-1.352-3.013-3.013 c0-1.661,1.352-3.013,3.013-3.013c1.661,0,3.011,1.353,3.011,3.013C22.092,35.173,20.742,36.525,19.081,36.525z"/>
	<path style="fill:#8C6239;" d="M61.515,35.598l-6.067-22.642c-1.115-4.165-3.445-5.039-5.203-5.039 c-0.678,0-1.257,0.133-1.633,0.236L6.805,19.355C3.427,20.26,1.51,23.688,2.44,27.16l6.066,22.774 C11.861,62.455,22.55,71,35.104,71c0,0,0,0,0.002,0c2.396,0,4.805-0.452,7.161-1.083c7.169-1.922,13.102-6.567,16.704-12.967 C62.576,50.555,63.478,42.928,61.515,35.598z M37.331,53.011c0.192-0.06,0.38-0.123,0.566-0.192 c2.595-0.983,4.466-3.093,6.101-5.227c0.479-0.624,0.838-0.861,0.985-0.926c0.077,0.09,0.242,0.335,0.399,0.9 c0.367,1.311,0.365,3.044-0.005,4.521c-0.282,1.125-1.16,2.588-2.133,3.557c-1.548,1.542-3.956,2.427-6.604,2.427 c-2.652,0-5.182-0.921-6.766-2.463c-1.028-1.002-2.089-2.851-1.949-3.319c0.02-0.016,0.117-0.071,0.324-0.112 c0.25-0.049,0.501-0.073,0.774-0.073c0.895,0,1.826,0.266,2.812,0.545c1.123,0.316,2.282,0.645,3.558,0.645 C36.07,53.292,36.702,53.2,37.331,53.011z M42.691,22.842c2.367,0,4.287,1.923,4.287,4.289c0,2.369-1.92,4.29-4.287,4.29 c-2.37,0-4.289-1.921-4.289-4.29C38.403,24.765,40.322,22.842,42.691,22.842z M35.107,68c-0.002,0-0.002,0-0.002,0 c-11.382,0-21.082-7.561-24.132-18.951L4.904,26.454c-0.568-2.125,0.533-4.113,2.561-4.657l19.883-5.315l9.522,33.984 c-0.094,0.034-0.188,0.07-0.281,0.101c-1.214,0.365-2.603,0.035-4.06-0.378c-1.11-0.312-2.259-0.637-3.507-0.637 c-0.432,0-0.856,0.04-1.264,0.12c-1.576,0.309-2.09,1.295-2.256,1.854c-0.761,2.556,2.556,5.879,2.589,5.911 c2.081,2.025,5.195,3.187,8.547,3.187c1.029,0,2.026-0.123,2.981-0.337l1.971,6.945C39.457,67.8,37.274,68,35.107,68z"/>
</g>
</svg>
