<?xml version="1.0" encoding="utf-8"?>
<!DOCTYPE svg PUBLIC "-//W3C//DTD SVG 1.1//EN" "http://www.w3.org/Graphics/SVG/1.1/DTD/svg11.dtd">
<svg version="1.1" id="Layer_1" xmlns="http://www.w3.org/2000/svg" xmlns:xlink="http://www.w3.org/1999/xlink" x="0px" y="0px" width="70px" height="70px" viewBox="0 0 70 70" enable-background="new 0 0 70 70" xml:space="preserve">
<g>
	<path fill="#ffffff" d="M38.418,24.146L34.582,9.829c-0.804-2.999-2.603-2.663-3.335-2.467L4.812,14.445
		c-1.638,0.439-2.681,2.116-2.189,3.947L6.458,32.71c2.456,9.165,11.432,14.458,20.36,12.064
		C35.746,42.383,40.874,33.313,38.418,24.146z M12.365,25.33c-1.498,0-2.712-1.213-2.712-2.711c0-1.498,1.214-2.711,2.712-2.711
		s2.711,1.214,2.711,2.711C15.077,24.116,13.863,25.33,12.365,25.33z M29.776,34.561c-0.229,0.914-0.901,1.966-1.562,2.624
		c-2.404,2.393-7.176,2.329-9.587-0.018c-0.66-0.643-2.552-3.16-0.619-3.539c1.932-0.377,3.663,1.152,5.662,0.548
		c0.104-0.032,0.207-0.067,0.307-0.105c1.483-0.561,2.558-1.806,3.504-3.041c0.875-1.139,1.833-1.381,2.292,0.258
		C30.056,32.293,30.031,33.546,29.776,34.561z M27.295,21.295c-1.498,0-2.712-1.214-2.712-2.712s1.214-2.712,2.712-2.712
		c1.497,0,2.711,1.214,2.711,2.712S28.792,21.295,27.295,21.295z"/>
	<path fill="#ffffff" d="M66.209,37.21L42.508,23.526c-1.47-0.848-3.392-0.399-4.34,1.244l-7.412,12.837
		c-4.745,8.217-2.139,18.307,5.865,22.928c8.005,4.621,18.045,1.833,22.789-6.384l7.412-12.838
		C68.374,38.624,66.865,37.589,66.209,37.21z M40.437,31.874c1.06-1.06,2.776-1.06,3.836,0c1.058,1.059,1.058,2.775-0.001,3.834
		c-1.059,1.06-2.776,1.06-3.835,0C39.378,34.649,39.378,32.932,40.437,31.874z M45.35,57.347c-1.633-1.1-1.775-3.405-3.616-4.391
		c-0.097-0.052-0.193-0.1-0.292-0.145c-1.445-0.652-3.086-0.531-4.628-0.327c-1.423,0.188-2.272-0.32-1.438-1.803
		c0.512-0.911,1.415-1.779,2.312-2.317c0.809-0.483,2.027-0.751,2.96-0.75c3.394,0.008,6.723,3.428,6.767,6.791
		C47.427,55.327,46.985,58.444,45.35,57.347z M57.682,43.411c-1.059,1.06-2.776,1.06-3.834,0c-1.06-1.058-1.06-2.775,0-3.834
		c1.058-1.059,2.775-1.059,3.834,0S58.74,42.354,57.682,43.411z"/>
</g>
</svg>
