<?xml version="1.0" encoding="utf-8"?>
<!-- Generator: Adobe Illustrator 16.0.0, SVG Export Plug-In . SVG Version: 6.00 Build 0)  -->
<!DOCTYPE svg PUBLIC "-//W3C//DTD SVG 1.1//EN" "http://www.w3.org/Graphics/SVG/1.1/DTD/svg11.dtd">
<svg version="1.1" id="Layer_1" xmlns="http://www.w3.org/2000/svg" xmlns:xlink="http://www.w3.org/1999/xlink" x="0px" y="0px"
	 width="50px" height="50px" viewBox="0 0 50 50" enable-background="new 0 0 50 50" xml:space="preserve">
<g>
	<rect x="23" y="14" fill="#E6E6E6" width="12" height="10"/>
	<polygon fill="#FBB03B" points="15,26.022 15,41 0.141,41 	"/>
	<polygon opacity="0.3" fill="#FBB03B" points="16.321,41 0.141,41 8.263,33.987 	"/>
	<path fill="#FBB03B" d="M46,23h-8V12H21.358L21.02,22.746L17,23.605v9.99l29-0.104V23z M24.935,15H34v8h-9.074L24.935,15z"/>
	<path fill="#333333" d="M45.289,35H17.032c-2.197,0-4.853,2.369-4.853,5c0,2.629,2.656,5,4.853,5h28.257
		c3.297,0,4.852-2.371,4.852-5C50.141,37.369,48.586,35,45.289,35z"/>
	<circle fill="#E6E6E6" cx="45.146" cy="39.984" r="3.504"/>
	<circle fill="#E6E6E6" cx="36.155" cy="39.984" r="3.504"/>
	<circle fill="#E6E6E6" cx="27.164" cy="39.984" r="3.504"/>
	<circle fill="#E6E6E6" cx="18.173" cy="39.984" r="3.504"/>
	<rect x="24" y="23" opacity="0.3" fill="#FBB03B" width="10" height="11"/>
	<polygon fill="#FBB03B" points="44,8.684 46.098,6.061 43.811,4.585 42.003,8 41,8 41,13.511 41,13.511 41,24 44,24 44,13.511 
		44,13.511 	"/>
	<polygon fill="#F2F2F2" points="34,23 25,23 34,14.51 	"/>
	<polygon opacity="0.3" fill="#FBB03B" points="17.923,34 46,22.669 46,34 	"/>
	<polygon opacity="0.5" fill="#E6E6E6" points="21.358,12 24.935,15 34.99,15 38.986,12 	"/>
</g>
</svg>
