<?xml version="1.0" encoding="utf-8"?>
<!-- Generator: Adobe Illustrator 16.0.0, SVG Export Plug-In . SVG Version: 6.00 Build 0)  -->
<!DOCTYPE svg PUBLIC "-//W3C//DTD SVG 1.1//EN" "http://www.w3.org/Graphics/SVG/1.1/DTD/svg11.dtd">
<svg version="1.1" id="Layer_1" xmlns="http://www.w3.org/2000/svg" xmlns:xlink="http://www.w3.org/1999/xlink" x="0px" y="0px"
	 width="50px" height="50px" viewBox="0 0 50 50" enable-background="new 0 0 50 50" xml:space="preserve">
<g>
	<polygon fill="#4D4D4D" points="38.551,13.052 21.419,3.16 16.778,11.198 16.509,16.555 15.068,21.078 26.329,27.517 29.5,24.01 
		33.972,21.027 	"/>
	<polygon opacity="0.5" fill="#E6E6E6" points="38.551,13.052 21.419,3.16 16.778,11.198 16.509,16.555 15.068,21.078 
		25.163,17.627 	"/>
	
		<rect x="13.244" y="25.24" transform="matrix(0.866 0.5 -0.5 0.866 16.9044 -5.0956)" fill="#333333" width="9.434" height="7.518"/>
	
		<rect x="13.623" y="23.825" transform="matrix(0.866 0.5001 -0.5001 0.866 15.873 -4.0594)" opacity="0.5" fill="#E6E6E6" width="3.773" height="7.518"/>
	<polygon fill="#E6E6E6" points="9.961,48.192 6.646,48.5 5.338,45.523 12.69,32.792 17.312,35.461 	"/>
	<line fill="none" stroke="#000000" stroke-miterlimit="10" x1="22.065" y1="5.596" x2="27.785" y2="8.898"/>
	<line fill="none" stroke="#000000" stroke-miterlimit="10" x1="20.65" y1="8.047" x2="26.37" y2="11.349"/>
	<line fill="none" stroke="#000000" stroke-miterlimit="10" x1="19.235" y1="10.499" x2="24.955" y2="13.801"/>
	<polygon fill="#FFFFFF" points="15,34.126 6.708,48.489 9.961,48.192 17.312,35.461 	"/>
	
		<rect x="12.371" y="2.965" transform="matrix(-0.866 -0.5 0.5 -0.866 26.2513 16.7378)" fill="#333333" width="5.994" height="3.774"/>
	<polygon points="26.31,27.51 15.075,21.023 29.52,23.917 	"/>
	<circle fill="#333333" cx="12.821" cy="3.367" r="1.867"/>
	
		<rect x="37.226" y="17.158" transform="matrix(0.866 0.5 -0.5 0.866 14.9105 -17.5596)" fill="#333333" width="5.994" height="3.774"/>
	<circle fill="#333333" cx="42.778" cy="20.516" r="1.883"/>
</g>
</svg>
