<?xml version="1.0" encoding="utf-8"?>
<!DOCTYPE svg PUBLIC "-//W3C//DTD SVG 1.1//EN" "http://www.w3.org/Graphics/SVG/1.1/DTD/svg11.dtd">
<svg version="1.1" xmlns="http://www.w3.org/2000/svg" xmlns:xlink="http://www.w3.org/1999/xlink" x="0" y="0" width="55px" height="55px" viewBox="472.5 472.5 55 55" enable-background="new 472.5 472.5 55 55" xml:space="preserve">
<path fill="#ff0000" d="M500,521.429c-0.483,0-0.893-0.168-1.228-0.503l-17.411-16.797c-0.186-0.148-0.442-0.391-0.768-0.726 c-0.326-0.334-0.842-0.943-1.548-1.827c-0.707-0.884-1.339-1.791-1.897-2.72c-0.558-0.93-1.056-2.056-1.493-3.376 c-0.437-1.32-0.656-2.604-0.656-3.85c0-4.092,1.181-7.292,3.543-9.599c2.362-2.306,5.627-3.459,9.793-3.459 c1.153,0,2.33,0.2,3.53,0.6s2.316,0.939,3.348,1.619c1.032,0.679,1.92,1.316,2.665,1.911s1.451,1.228,2.121,1.897 c0.67-0.67,1.376-1.302,2.12-1.897s1.633-1.232,2.665-1.911c1.032-0.679,2.148-1.219,3.349-1.619c1.199-0.4,2.376-0.6,3.529-0.6 c4.167,0,7.431,1.153,9.793,3.459c2.362,2.307,3.544,5.506,3.544,9.599c0,4.111-2.13,8.296-6.39,12.556l-17.383,16.74 C500.893,521.261,500.484,521.429,500,521.429L500,521.429z"/>
</svg>
