<?xml version="1.0" encoding="utf-8"?>
<!DOCTYPE svg PUBLIC "-//W3C//DTD SVG 1.1//EN" "http://www.w3.org/Graphics/SVG/1.1/DTD/svg11.dtd">
<svg version="1.1" id="Layer_1" xmlns="http://www.w3.org/2000/svg" xmlns:xlink="http://www.w3.org/1999/xlink" x="0px" y="0px" width="50px" height="50px" viewBox="0 0 50 50" enable-background="new 0 0 50 50" xml:space="preserve">
<g>
	<path fill="#FFFFFF" d="M12.58,5.76c0,0,6.418-2.564,9.666-1.551s5.561,1.822,5.561,1.822s2.297,2.709,3.26,3.266 c0.963,0.555,4.456,1.189,4.456,1.189s1.958,1.611,4.435,3.92c2.477,2.307,3.955,10.324,3.955,10.324l-0.792,1.168 c0,0-3.23-3.936-6.318-6.586c-3.087-2.652-5.442-2.969-5.442-2.969l-1.559,1.027l-5.264-3.039l0.277-1.766 c0,0-2.174-1.949-4.811-3.1s-8.082-2.463-8.082-2.463L12.58,5.76z"/>
	<rect x="17.137" y="15.564" transform="matrix(0.866 0.5 -0.5 0.866 16.7273 -6.2972)" fill="#8C6239" width="5.953" height="25"/>
	<polygon fill="#333333" points="12.975,48.381 6.088,44.404 10.453,38.842 15.609,41.818"/>
	<polygon opacity="0.5" fill="#E6E6E6" points="9.735,46.434 6.088,44.404 10.453,38.842 13.235,40.517"/>
	<rect x="17.252" y="14.802" transform="matrix(0.866 0.5001 -0.5001 0.866 16.1655 -5.7184)" opacity="0.5" fill="#E6E6E6" width="3" height="25"/>
	<polygon fill="#333333" points="33.537,8.766 30.073,6.766 31.89,1.619 37.086,4.619"/>
	<polygon opacity="0.5" fill="#E6E6E6" points="30.082,6.784 31.82,7.773 34.475,3.111 31.867,1.627"/>
	<path fill="#E6E6E6" d="M12.58,5.76c0,0,5.418-0.832,8.666,0.182s7.357,5.396,8.32,5.953c0.963,0.555,6.914,1.936,9.391,4.244 c2.477,2.307,4.955,8.592,4.955,8.592l-0.792,1.168c0,0-3.23-3.936-6.318-6.586c-3.087-2.652-5.442-2.969-5.442-2.969l-1.559,1.027 l-5.264-3.039l0.277-1.766c0,0-2.174-1.949-4.811-3.1s-8.082-2.463-8.082-2.463L12.58,5.76z"/>
	<path fill="#B3B3B3" d="M29.566,11.895c0,0,6.914,1.936,9.391,4.244c2.477,2.307,4.955,8.592,4.955,8.592l-0.792,1.168 c0,0-3.23-3.936-6.318-6.586c-3.087-2.652-5.442-2.969-5.442-2.969l-1.559,1.027L29.566,11.895z"/>
</g>
</svg>
